<mxfile host="app.diagrams.net" modified="2024-06-25T14:27:20.101Z" agent="Mozilla/5.0 (Windows NT 10.0; Win64; x64) AppleWebKit/537.36 (KHTML, like Gecko) Chrome/126.0.0.0 Safari/537.36 Edg/126.0.0.0" etag="qgV47j_h4V5LtLTqkP_u" version="24.6.2" type="device">
  <diagram name="Page-1" id="EFFu8qt1pmZ-xb2JIz8c">
    <mxGraphModel dx="1386" dy="759" grid="1" gridSize="10" guides="1" tooltips="1" connect="1" arrows="1" fold="1" page="1" pageScale="1" pageWidth="1169" pageHeight="1654" background="none" math="0" shadow="0">
      <root>
        <mxCell id="0" />
        <mxCell id="1" parent="0" />
        <mxCell id="8yc0GDcmws6-InHvEI8O-2" value="" style="whiteSpace=wrap;html=1;fillColor=#f5f5f5;strokeColor=#666666;verticalAlign=top;align=center;rounded=1;fontColor=#333333;" vertex="1" parent="1">
          <mxGeometry x="915.5" y="190" width="160" height="200" as="geometry" />
        </mxCell>
        <mxCell id="fNX_a5Hz9HWH8XYPbjZu-36" value="&lt;b&gt;Orchestration&lt;/b&gt;" style="rounded=0;whiteSpace=wrap;html=1;fillColor=none;verticalAlign=top;align=left;dashed=1;dashPattern=8 8;" parent="1" vertex="1">
          <mxGeometry x="265" y="30" width="641" height="130" as="geometry" />
        </mxCell>
        <mxCell id="fNX_a5Hz9HWH8XYPbjZu-15" value="&lt;b&gt;Storage&lt;/b&gt;" style="rounded=0;whiteSpace=wrap;html=1;fillColor=none;verticalAlign=top;align=left;dashed=1;dashPattern=8 8;" parent="1" vertex="1">
          <mxGeometry x="85" y="160" width="821" height="240" as="geometry" />
        </mxCell>
        <mxCell id="fNX_a5Hz9HWH8XYPbjZu-16" value="&lt;b&gt;Compute&lt;/b&gt;" style="rounded=0;whiteSpace=wrap;html=1;fillColor=none;verticalAlign=top;align=left;dashed=1;dashPattern=8 8;glass=0;" parent="1" vertex="1">
          <mxGeometry x="265" y="400.25" width="641" height="299.75" as="geometry" />
        </mxCell>
        <mxCell id="fNX_a5Hz9HWH8XYPbjZu-11" value="&lt;b&gt;AI/ML&lt;/b&gt;" style="rounded=1;whiteSpace=wrap;html=1;verticalAlign=top;align=center;fillColor=#fff2cc;strokeColor=#d6b656;" parent="1" vertex="1">
          <mxGeometry x="446" y="431.5" width="450" height="257.5" as="geometry" />
        </mxCell>
        <mxCell id="zvPZIyypiw4BT_DNb9Xp-8" value="&lt;b&gt;Source&lt;/b&gt;" style="whiteSpace=wrap;html=1;fillColor=#b1ddf0;strokeColor=#10739e;verticalAlign=top;align=center;rounded=1;" parent="1" vertex="1">
          <mxGeometry x="96" y="190" width="160" height="200" as="geometry" />
        </mxCell>
        <mxCell id="zvPZIyypiw4BT_DNb9Xp-6" value="&lt;b&gt;SQL Orchestration&lt;/b&gt;" style="whiteSpace=wrap;html=1;align=center;glass=0;fillColor=#d5e8d4;strokeColor=#82b366;verticalAlign=top;rounded=1;" parent="1" vertex="1">
          <mxGeometry x="276" y="60" width="620" height="90" as="geometry" />
        </mxCell>
        <mxCell id="zvPZIyypiw4BT_DNb9Xp-9" value="&lt;b&gt;Data Lake&lt;/b&gt;" style="whiteSpace=wrap;html=1;verticalAlign=top;align=center;fillColor=#dae8fc;strokeColor=#6c8ebf;rounded=1;" parent="1" vertex="1">
          <mxGeometry x="276" y="190" width="620" height="200" as="geometry" />
        </mxCell>
        <mxCell id="fNX_a5Hz9HWH8XYPbjZu-26" value="" style="edgeStyle=orthogonalEdgeStyle;rounded=0;orthogonalLoop=1;jettySize=auto;html=1;entryX=0.5;entryY=0;entryDx=0;entryDy=0;startArrow=open;startFill=0;dashed=1;opacity=30;endArrow=open;endFill=0;" parent="1" source="zvPZIyypiw4BT_DNb9Xp-1" target="jw7mLviETihouoWUYdHp-1" edge="1">
          <mxGeometry relative="1" as="geometry">
            <mxPoint x="992" y="545.1199999999999" as="targetPoint" />
          </mxGeometry>
        </mxCell>
        <mxCell id="zvPZIyypiw4BT_DNb9Xp-1" value="&lt;span&gt;BigQuery&lt;/span&gt;" style="editableCssRules=.*;html=1;shape=image;verticalLabelPosition=bottom;labelBackgroundColor=none;verticalAlign=middle;aspect=fixed;imageAspect=0;image=data:image/svg+xml,PHN2ZyB4bWxucz0iaHR0cDovL3d3dy53My5vcmcvMjAwMC9zdmciIHhtbG5zOnY9Imh0dHBzOi8vdmVjdGEuaW8vbmFubyIgd2lkdGg9IjIwLjAwMTA0NTIyNzA1MDc4IiBoZWlnaHQ9IjIwLjAwMTA0NTIyNzA1MDc4IiBmaWxsLXJ1bGU9ImV2ZW5vZGQiIHZpZXdCb3g9IjAgMCAyMC4wMDEwNDUyMjcwNTA3OCAyMC4wMDEwNDUyMjcwNTA3OCI+JiN4YTsJPHN0eWxlIHR5cGU9InRleHQvY3NzIj4mI3hhOwkuc3Qwe2ZpbGw6I2FlY2JmYTt9JiN4YTsJLnN0MXtmaWxsOiM2NjlkZjY7fSYjeGE7CS5zdDJ7ZmlsbDojNDI4NWY0O30mI3hhOwk8L3N0eWxlPiYjeGE7CTxwYXRoIGNsYXNzPSJzdDAiIGQ9Ik00LjczIDguODN2Mi42M2E0LjkxIDQuOTEgMCAwIDAgMS43MSAxLjc0VjguODN6Ii8+JiN4YTsJPHBhdGggY2xhc3M9InN0MSIgZD0iTTcuODkgNi40MXY3LjUzQTcuNjIgNy42MiAwIDAgMCA5IDE0YTggOCAwIDAgMCAxIDBWNi40MXoiLz4mI3hhOwk8cGF0aCBjbGFzcz0ic3QwIiBkPSJNMTEuNjQgOS44NnYzLjI5YTUgNSAwIDAgMCAxLjctMS44MlY5Ljg2eiIvPiYjeGE7CTxwYXRoIGNsYXNzPSJzdDIiIGQ9Ik0xNS43NCAxNC4zMmwtMS40MiAxLjQyYS40Mi40MiAwIDAgMCAwIC42bDMuNTQgMy41NGEuNDIuNDIgMCAwIDAgLjU5IDBsMS40My0xLjQzYS40Mi40MiAwIDAgMCAwLS41OWwtMy41NC0zLjU0YS40Mi40MiAwIDAgMC0uNiAwIi8+JiN4YTsJPHBhdGggY2xhc3M9InN0MSIgZD0iTTkgMGE5IDkgMCAxIDAgMCAxOEE5IDkgMCAxIDAgOSAwbTAgMTUuNjlhNi42OCA2LjY4IDAgMCAxIC4wMDctMTMuMzYgNi42OCA2LjY4IDAgMCAxIDQuNzI3IDExLjQwM0E2LjY4IDYuNjggMCAwIDEgOSAxNS42OSIvPiYjeGE7PC9zdmc+;fontStyle=1;textOpacity=50;opacity=50;" parent="1" vertex="1">
          <mxGeometry x="823" y="315" width="40" height="40" as="geometry" />
        </mxCell>
        <mxCell id="zvPZIyypiw4BT_DNb9Xp-13" style="edgeStyle=orthogonalEdgeStyle;rounded=0;orthogonalLoop=1;jettySize=auto;html=1;exitX=0.5;exitY=1;exitDx=0;exitDy=0;entryX=0.5;entryY=0;entryDx=0;entryDy=0;startArrow=open;startFill=0;strokeColor=default;dashed=1;opacity=30;endArrow=open;endFill=0;" parent="1" source="zvPZIyypiw4BT_DNb9Xp-2" target="zvPZIyypiw4BT_DNb9Xp-1" edge="1">
          <mxGeometry relative="1" as="geometry" />
        </mxCell>
        <mxCell id="zvPZIyypiw4BT_DNb9Xp-2" value="Dataform" style="shape=image;imageAspect=0;aspect=fixed;verticalLabelPosition=bottom;verticalAlign=middle;image=data:image/png,iVBORw0KGgoAAAANSUhEUgAAAgAAAAIACAYAAAD0eNT6AAAACXBIWXMAAAsSAAALEgHS3X78AAAfTklEQVR4nO3dvW5k57Um4CVDDAgHrTvoPlfQPQDzpuELUPMKmmbC0DypE20lTg8VMqHYV1CtbBJDZE6Mu8fBJAZM4swZwMaBjijbKEN1JE5Qm1ar1T9k7apa+/u+5wEIGZJgvOqA6/3W/vvg+vo6AIC2/Cw7AACwfgoAADRIAQCABikAANAgBQAAGqQAAECDFAAAaJACAAANUgAAoEEKAAA0SAEAgAYpAADQIAUAABqkAABAgxQAAGiQAgAADVIAAKBBCgAANEgBAIAGKQAA0CAFAAAapAAAQIMUAABokAIAAA1SAACgQQoAADRIAQCABikAANAgBQAAGqQAAECDFAAAaJACAAANUgAAoEEKAAA0SAEAgAYpAADQIAUAABqkAABAgxQAAGiQAgAADVIAAKBBCgAANEgBAIAGKQAA0CAFAAAapAAAQIM+zA4w1OR8tp2doSAXO1sbF9khAMj3wfX1dXaGQSbns7L/A3JdRcSL/n9fvP6jLADUSwHgfc7ih1JwGhEvdrY2vk7MA8ASKAAs4jLmZeA05oXgxTv/bQBGRwFgGa4i4nn0pcClA4DxUwBYhZcRcRLzMmA7ADBCCgCrdhnzMnBiMwAwHgoA6/QyIg4j4rkbCQFyKQBkeRbzrcBpdhCAFikAZHsZEYc7WxsnyTkAmqIAMBY39wocujwAsHoKAGNzFfP7BBQBgBVSABgrRQBghXwNkLG6FxGfRMTF5Hy2m5wFoDo2AJTiMiJ2PTUAsBw2AJTifkR8OTmfnU7OZw+ywwCUTgGgNI8j4k+T81mXHQSgZC4BULKXEXHgsgDA3dkAULKHMb8scJgdBKA0NgDU4mXMbxL09UGAW7ABoBYPI+L3k/PZQXYQgBLYAFCjs4h44gVCAG9nA0CNHkfEi8n57FF2EICxUgCo1f2YXxLYzQ4CMEYKALX7fHI+O8kOATA27gGgFe4LAHiFDQCteBwRXiMM0FMAaMnDcHMgQEQoALTnXsw3AUoA0DQFgBbdlIDt7CAAWRQAWnUv5t8R2M0OApBBAaB1nysBQIsUAJiXgO3sEADrpADA3HM3BgItUQBgztMBQFMUAPjBTQl4kB0EYNUUAPixezG/HPBRdhCAVVIA4KceRsRpdgiAVVIA4M0e+oogUDMFAN7uqXcEALVSAODdPvdkAFAjBQDe79RNgUBtPswOsARn2QEK8yjmd7pze/ci4nlEbCfnAFiaD66vr7MzkKA/0T6KiAf9z6P+535eqtH7dGdro8sOAbAMCgA/0heD7Vd+HibGGaP/sbO18SI7BMBQCgDv1L8VbzsinkTEx6lhxuEyIh7tbG18nR0EYAgFgFvrtwNPIuIg2t4MfLaztXGQHQJgCAWAhfSbgYOI2I02byr8xc7Wxml2CIBFKQAM0m8FbopASzcQuhQAFE0BYGn6t+YdRjsbAU8FAMVSAFiqVzYCB9FGEfBUAFAkBYCV6O8ROIz6nxw429na2M4OAXBXCgArNTmfbUfESdR9f8CvdrY2TrJDANyFAsDK9ZcFuoj4dXKUVXFDIFAcHwNi5Xa2Nr7un5v/RURcZedZgfsxv+cBoBg2AKxVvw14HhGPs7Ms2VVEPLAFAEphA8Ba9duA7Yj4LDvLkt0LWwCgIDYApOnfG/B5do4l+5edrY2L7BAA72MDQJr+zvna7gvosgMA3IYNAOkm57NHEXEa9bw4yBYAGD0bANL1b9Lbjno2AV12AID3sQFgNCrbBNgCAKNmA8BoVLYJOMwOAPAuNgCMTv/64C+zcyzBL3a2Nk6zQwC8iQ0Ao9MPzV9l51iCLjsAwNsoAIxS/4hg6S8LetxvMwBGRwFgtPrvB5xl5xioyw4A8CYKAGP3JOZf2yuVLQAwSgoAo9Z/XGc3O8dAJ9kBAF6nADB6/U2Bn2bnGOB+/90DgNHwGCDFmJzPXkTEw+wcC7rc2dp4kB0C4IYNACXZzQ4wgC0AMCoKAMXo3xRY8qOBXXYAgBsKAKXpotxXBd+fnM8OskMARLgHgAL1q/TPs3Ms6CoiHvRPNwCksQGgOP1bAkt9N8C9iLAFANIpAJSq5CF6MDmffZQdAmibAkCRdrY2nke5rwm2BQDSKQCUrMsOMIAtAJBKAaBY/RsCS94CdNkhgHYpAJSuyw4wwK8n57MH2SGANikAFK3wLUBE2QUGKJgCQA1KvqHuqS0AkEEBoHj9K4KfZecYoMsOALRHAaAWXXaAAWwBgLVTAKjCztbGRZS9BTjJDgC0RQGgJl12gAEeT85n29khgHYoAFSjgi1Alx0AaIcCQG0OotzPBdsCAGujAFCV/jO7h9k5BuiyAwBtUACo0WHYAgC8kwJAdSrYApxkBwDqpwBQq5K3APcn57Pd7BBA3RQAqlTBFqDLDgDU7YPr6+vsDLAyk/PZRUTcz86xoF/tbG2cZIcA6mQDQO267AADdNkBgHopAFStP0FfJsdY1P3J+azLDgHUSQGgBV12gAEOJuezj7JDAPVRAKhe4VuAezF/uyHAUikAtKLkIWoLACydAkATdrY2nkfEWXaOBdkCAEunANCSLjvAALYAwFIpADRjZ2vjNMreApT8YiNgZBQAWtNlBxjg6eR89iA7BFCH4t8EuH883c7OkOTiaG/zIjtEiSbns9OIeJydY0HPdrY2drNDAOX7MDvAEnyZHSDJp1H2aTbTbkT8KTvEgp5OzmfdztbGRXYQoGwuAdCcfng+y84xQJcdACifAkCruuwAAzydnM8eZYcAyqYA0KQKtgCeCAAGUQBoWZcdYIDHk/PZdnYIoFwKAM3qtwCfZecYoMsOAJRLAaB1XURcZYdYkC0AsDAFgKbtbG18HWVfT++yAwBlUgBgXgBK3gI8yQ5Bjl/+9u++D8HCFACaV8EWoOTsLKgf/qe//O3fT7KzUCYFAOZK3gLcn5zPdrNDsD43wz8iHkbEUyWARSgAEP/cAnTZOQbosgOwHq8N/xtKAHemAEBvZ2vjMCIus3MsyBagAW8Z/jeUAO5EAYAf67IDDNBlB2B13jP8bygB3JoCAK/Y2do4ibK3AF12CJbvlsP/hhLArSgA8FNddoABDibnM4+GVeSOw/+GEsB7KQDwmsK3APci4iA7BMux4PC/oQTwTgoAvNludoABbAEqMHD431ACeCsFAN5gZ2vjNCLOsnMsyBagcEsa/jeUAN5IAYC367IDDGALUKglD/8bSgA/oQDAW1SwBfCK4MKsaPjfUAL4EQUA3q3LDjDA08n57EF2CG5nxcP/hhLAPykA8A6FbwEiyi4wzVjT8L+hBBARCgDcxm52gAFsAUZuzcP/hhKAAgDvs7O1cRERz7JzDNBlB+DNkob/DSWgcQoA3E6XHWCAp5Pz2XZ2CH4sefjfUAIapgDALdgCsEwjGf43lIBGKQBwe112gAEe2wKMw8iG/w0loEEKANxSvwX4NDvHAF12gNaNdPjfUAIaowDA3RxGxFV2iAXZAiQa+fC/oQQ0RAGAO9jZ2vg6yn7DXpcdoEWFDP8bSkAjFAC4u9K3ALvZIVpS2PC/oQQ0QAGAO7IF4LYKHf43lIDKKQCwmJK3APdtAVav8OF/QwmomAIAC+i3AAfZOQbosgPUrJLhf0MJqJQCAAva2do4iYjL5BiLsgVYkcqG/w0loEIKAAzTZQcYoJuczz7KDlGTSof/DSWgMgoADFD6FiDKvowxKpUP/xtKQEUUABiuyw4wwIEtwNIcRN3D/4YSUAkFAAbqtwAvk2Ms6l7YAizF737z8y7K/mDUXSgBFVAAYDlKHqK2AEvyu9/8fDeUAAqhAMAS7GxtnEbEWXaOBdkCLJESQCkUAFieLjvAAAeT89mD7BC1UAIogQIAS1LBFqDLDlETJYCxUwBgubrsAAM8tQVYLiWAMVMAYIn6LcAX2TkG6LID1EYJYKwUAFi+km+oswVYASWAMVIAYMl2tjYuouxf9l12gBopAYyNAgCr0WUHGODp5Hy2nR2iRkoAY6IAwArYAvA2SgBjoQDA6nTZAQZ4bAuwOkoAY6AAwIr0W4BPs3MMcJgdoGZKANkUAFitw4i4yg6xoIeT89ludoiaKQFkUgBghXa2Nr6Osk/Shz4UtFpKAFkUAFi9krcA96LsAlMEJYAMCgCsWAVbAI8FroESwLopALAeJW8BIiKeuxSwekoA66QAwBr0W4CSXxF8LyJOskO0QAlgXRQAWJOdrY2TiLhMjjHEx5PzWcklphhKAOugAMB6ddkBBvq3yfnsUXaIFigBrJoCAGtUwRYgIuLU/QDroQSwSgoArF+XHWCge6EErI0SwKp8cH19nZ1hkP3jaZedIcnp0d7maXYIFjM5n51GxOPsHAOd7WxtbGeHaEU/GJ9m51iTZ33xYYWKLwBQov65+i+zcyzBs52tjd3sEK1QAlgmlwAgwc7WxmlEnGXnWIKnk/PZSXaIVrgcwDIpAJCnyw6wJErAGikBLIsCAEkq2gJEKAFrpQSwDO4BgEQV3Qtw42VEbPdvPmTF3BPAEDYAkKjfAtR0knsY80cEH2QHaYFNAEMoAJCvyw6wZA8j4oUvCK6HEsCiFABItrO1cRH1/QK/FxFfTs5nXXaQFigBLMI9ADAC/cr8RcwHZ23OIuKJ+wJWzz0B3IUNAIxAvwU4zM6xIo8j4mJyPnuSHaR2NgHchQ0AjET/bv0XEXE/O8sKfRERB33hYUVsArgNGwAYiX5FfpCdY8U+jvkNgl12kJrZBHAbNgAwMpV8KOg2LiOi6z+RzArYBPAuCgCMTOU3BL6JIrBCSgBvowDACPUr8k+yc6yZIrAiSgBvogDASE3OZy9i/lKd1lxFxElEHLpZcHmUAF6nAMBITc5njyLi99k5kp3FvAw89x6B4ZQAXqUAwIhNzmcHEfFv2TlG4iwinkfE6c7WxovsMKVSArihAMDINfRUwF1cRsRpzG+WfNF/VIlbUgKIUABg9PoXBF1EO08FLOplzP+cXkTE1/1fI+YFweWD1ygBKABQgP41upPsHGMz+y7ir9P577Cv/n79k79345t/XMd/f7f2eKP356vrn/xZVUwJeI0CAIVo9NHAiIiYfnsd3/xjPti/mc6H+c3AZxgloF0KABSkhfsBZv1w/+v0Or7627XT+xooAW1SAKAgNX4w6Gbgf/W3+c9f/+F3UgYloD0KABSmfz/AaRR8U+D02+v48zfX8Zera6v8EVEC2qIAQIFKvCnwZuj/x1dO+WOmBLRDAYBCTc5nuxHxeXaOd5l9F/Ef//W9oV8YJaANCgAUbHI+O4yIX2fneN1Xf7ueD/7/8vulVEpA/RQAKNzkfHYSI3ihy+y7iL9883388c/fx/Tb7DQsgxJQNwUAKpBZAmbfRVz+5/dx8Z/fe1yvQkpAvRQAqMS6S8D02+v445+t+VugBNRJAYCKrKMEGPxtUgLqowBAZVZVAm5W/X/88/fL/r+mEEpAXRQAqNCyS8BFP/hd40cJqIcCAJVaRgn46m/X8Yf/+527+vkRJaAOCgBUbNH3BEy/vY7/8/++j7984/cDb6YElE8BgMrd9Y2B1v3clhJQNgUAGjA5n21HxPN4xweEpt9exx/+/Xsf5+FOlIByKQDQiP4rgicR8fD1f+bUzxBKQJkUAGjI5Hz2UcxLwMcR80f7/vDv37nWz2BKQHkUAGjQ5HzWffW360/+1+V3Tv0sjRJQlg+zAwDr9z//939nR4DSPcoOMJQCAA3ZP57+6BIALEtjp/+XEbGdHWKon2UHANZj/3j6KCJOw/BnyVoc/r/7zc+/zg4ylA0ANGD/eLod73kMEBZh+JfLBgAqt3883Y2IL8PwZ8kM/7IpAFCx/eNpF3d4CyDcluFfPpcAoFL7x9OTWMFngcHwr4MNAFTI8GdVDP96KABQGcOfVTH866IAQEUMf1bF8K+PAgCVMPxZFcO/TgoAVMDwZ1UM/3opAFA4w59VMfzrpgBAwfaPp4dh+LMChn/9fA4YCtW/4c9Lflg6w78NCgAUaP94+iQiJtk5qI/h3w4FAArzylf9vNufpTL826IAQEH2j6cfRcSLiLifnYW6GP7tcRMglOV5GP4smeHfJgUACtF/2e9xdg7qYvi3yyUAKMD+8XQ7Ir7MzkFdDP+2KQAwcv11/4tw09/7vIz5n9OLiPi6/2tExIujvU2/9F/zy9/+/STaeYeE4f8GH2YHAN7reRj+r7uM+ZMQL2I+4E9T0xTG8CdCAYBR2z+eHoTr/jfOYl6GTo/2Nl+871/mzQx/brgEACPlef+ImP8CP4yI59b4wxn+vMoGAMbrJNoc/lcx/28/PNrbvMiNUg/Dn9cpADBC/er/YXaONbuMiO5ob/MkO0htDH/exCUAGJn94+mDmN/c1srp3+BfIcOft7EBgPE5iTaGv8G/YoY/76IAwIj0X/mr/a7/q5hf3++yg9TM8Od9XAKAkWjkQz9nEbHr5r7VMvy5DRsAGI+DqHf4X8V88D/PDlI7w5/bsgGAEaj8xr+ziHjiOf7VM/y5CxsAGIcu6hz+n7rWvx6GP3dlAwDJ+tP/n7JzLNlVzE/9p9lBWmD4s4ifZQcAossOsGQvI+KR4b8ehj+LsgGARP37/n+fnWOJXkbEtuv962H4M4R7ACDXYXaAJXp2tLe5mx2iFYY/Q7kEAEn2j6fbUc9Lfwz/NTL8WQYFAPJ02QGWxPBfI8OfZVEAIEFFp3/Df40Mf5ap+HsA9o+nXXaGJKfusi5alx1gCc4M//Ux/Fm24gtARHySHSDRaXYA7q6SD/68jIgn2SFaYfizCi4BwPqVfuf/zUt+/IJeA8OfVVEAYI32j6e7Uf4Hf7Z9zW89DH9WSQGA9eqyAwz0r0d7my+yQ7TA8GfVFABYkwpO/18c7W2WfvmiCIY/66AAwBrsH08/irJP/1cRsZsdogWGP+uiAMB6HETZp/9dN/2tnuHPOikAsGL96f8gO8cAXxztbT7PDlE7w591UwBg9Q4i4l52iAVZ/a+B4U8GBQBWqILTf2f1v1qGP1kUAFitkk//L931v1qGP5kUAFiR/ePpgyj79F9y9tEz/MmmAMDqdFHu6f/Mx6ZWx/BnDBQAWIH+9F/yL/guO0CtDH/GQgGA1eiyAwzwhdP/ahj+jIkCAEtWwenftf8VMPwZGwUAlq/LDjDAM1/6Wz7DnzFSAGCJ9o+n21H2L/ouO0BtDH/GSgGA5eqyAwzg9L9khj9jpgDAkvSn/8fZOQbosgPUxPBn7BQAWJ4uO8AAnzr9L4/hTwkUAFiCwk//VxHhlb9LYvhTCgUAlqPLDjDAoQ/+LIfhT0kUABho/3i6G07/zfvlb/9+GIY/BVEAYLguO8AATv/LcxLzQlU7w78SCgAM0J/+72fnWJDT/xL97jc/fxER21F3CTD8K6IAwDBddoABDpz+l6vyEmD4V0YBgAUVfvq/PNrbPMkOUaNKS4DhXyEFABawfzz9KMo+/XfZAWpWWQkw/CulAMBiDsLpn3eopAQY/hVTAOCO+tN/yZ/M7bIDtKLwEmD4V04BgLs7iIh72SEW9NLpf70KLQGGfwMUALiDCk7/JWcvVmElwPBvhAIAd1Py6f/saG/zNDtEqwopAYZ/QxQAuKX94+mDiPgkO8cAXXaA1o28BBj+jVEA4Pa67AADOP2PxEhLgOHfIAUAbqE//Zf8oZcuOwA/GFkJMPwbpQDA7XTZAQb4wul/fEZSAgz/hikA8B4VnP7d+T9SySXA8G+cAgDvV/IX854d7W1eZIfg7ZJKgOGPAgDvsn883Y6Ij7NzDNBlB+D91lwCDH8iQgGA9+myAwzg9F+QNZUAw59/UgDgLfrT/+PsHAu6irLLS5NWXAIMf35EAYC367IDDHDo9F+mFZUAw5+fUADgDSo4/Zd842LzllwCDH/eSAGANyt5gB4e7W36ZV+4JZUAw5+3UgDgNfvH092IeJidY0FO/xUZWAIMf95JAYCf6rIDDOD0X5kFS4Dhz3spAPCK/vR/PzvHgi7D6b9KdywBhj+3ogDAj3XZAQbonP7rdcsSYPhzawoA9Eo//R/tbZ5kh2C13lMCDH/uRAGAiNg/nn4UZa/Pu+wArMdbSoDhz50pADB3EBH3skMsyOm/Ma+VAMOfhSgANK8//Zf8ydwuOwDr15eAR2H4s6APswPACJR8+j9z+m/X737z84vsDJTLBoCmOf0DrVIAaF3pp//T7BBAmRQAmrV/PH0QEZ9k5xigyw4AlEsBoGVddoABnP6BQRQAmtSf/p9m5xigyw4AlE0BoFVddoABnjn9A0MpADTH6R+gjvcA/CI7QJKL7AAFO8kOMMCzo73Ni+wQQPk+uL6+zs4Aa7N/PN2OiC+zcwzwLwoAsAwuAdCaLjvAAE7/wNIoADSjP/0/zs6xoKsou7wAI6MA0JIuO8AAh07/wDIpADShgtP/YXYIoC4KAK04yQ4wwOHR3qbPvQJLpQBQvf3j6W5E3M/OsSCnf2AlFABa0GUHGMDpH1gJ7wGgav3p//PsHAu6PNrbfJAdAqiTDQC167IDDNBlBwDqpQBQrf3j6UGUe+3/8mhv8yQ7BFAvBYAq7R9PP4qyT9BddgCgbgoAtTqIiHvZIRbk9A+snAJAdfrT/0F2jgFKzg4UQgGgRiWf/s+O9jafZ4cA6qcAUJUKTv9ddgCgDQoAtemi7NP/aXYIoA0KANXYP54+iIhfZ+cYoMsOALRDAaAmXXaAAZz+gbVSAKhCf/p/mp1jgJLvWwAKpABQiy47wADPjvY2X2SHANqiAFC8Ck7/XXYAoD0KADU4yQ4wwLOjvc2L7BBAexQAirZ/PN2OiMfZOQbosgMAbVIAKF2XHWAAp38gjQJAsQo//V+FO/+BRAoAJeuyAwxweLS3+XV2CKBdCgBF2j+ePomyT/+H2SGAtikAlKrkAer0D6RTACjO/vF0NyLuZ+dYkNM/MAoKAEXpP/db8gB1+gdGQQGgNF2U+7nfy6O9zS47BECEAkBB9o+nj8LnfgGWQgGgJCfZAQa4PNrbPMkOAXBDAaAI+8fTLiIeZucYoMsOAPCqD66vr7MzwDv1b/z7MjvHAJdHe5sPskMAvMoGgFHr7/o/yc4xkFf+AqOjADB2J1HuM/8REWdHe5vPs0MAvE4BYLT2j6eHEfFxdo6BuuwAAG/iHgBGqX/b3+fZOQY6O9rb3M4OAfAmNgCMTv+8f+nDP8LpHxgxBYBR6Yf/aXaOJTg72ts8zQ4B8DYKAKPxyvAv9VW/r9rNDgDwLgoAo1DZ8H92tLd5kR0C4F0UANJVNvwjXPsHCqAAkKp/y99p1DP8nf6BIigApOkf9fsy6hn+EU7/QCEUAFL0L/mp4VG/V33m9A+U4sPsALSlf7f/84h4nJ1lya7C6R8oiA0Aa9Nf77+I+oZ/RMTh0d7m19khAG7LBoCV60/9XUT8OjnKqlxGxGF2CIC7UABYqf7UfxJlf9HvfTqnf6A0PgbESvSn/sOIeJqdZcV88Acokg0AS9UP/oP+p6bH+97mIDsAwCIUAJamf67/MNoY/BERnx7tbb7IDgGwCAWAQV458e9G3df5X+fGP6BoCgAL2T+ePogfBn8rJ/5X7brxDyiZAsCt9af9JzEf+jU+y39bnx3tbZ5mhwAYQgHgnfqT/nbMB//HqWHG4TK88Q+ogALAj/Sn/O1Xfh4mxhmjJ1b/QA0UgEb1g/5RRDzofx71Py3dyHdX7voHqlH8i4D2j6en2RkK8yjavGlvKC/8AapSwwag5ZvRWI+rmN8DAVANXwOE93PdH6iOAgDv9q8e+QNqpADA2z072tv0tj+gSgoAvNnLo73N3ewQAKuiAMBPvYz5OxAAqqUAwI9dhff8Aw1QAOAHVxGx7WU/QAsUAJgz/IGmKAAwt2v4Ay1RACDiV0d7m8+zQwCskwJA6351tLd5kh0CYN1q+BYALOLmbn8nf6BJCgAtcsMf0DyXAGiN4Q8QCgBteRkRjwx/AAWAdpzF/OR/kR0EYAzcA0ALnvmwD8CP2QBQu18Z/gA/ZQNArdzsB/AONgDU6CwiHhj+AG9nA0Bt/vVob/MwOwTA2CkA1OJl+KAPwK25BEANPgvX+wHuxAaAkl3G/NR/mh0EoDQKAKX69Ghvs8sOAVAqBYDSnMX81H+RHQSgZAoApbDuB1giBYCxu4qIzqN9AMulADBWVxFxGBGHR3ubX2eHAaiNAsDYGPwAa6AAMBaXEXESBj/AWigAZHsZ86F/kh0EoCUKAFmeRcSJu/oBcigArNPLmF/ff27ND5BLAWDVLiPieczX/BfJWQDoKQCswsuY39B36gM9AOOkALAMVzE/5Z/GfOhfpKYB4L0UABZxGfNh/yKc8gGKpADwPmcRcdH/nEbECzfwAZRPAWjbVcxP8RE/DPl//ljlA9SrhgLwi+wABTHUAYiIiA+ur6+zMwAAa/az7AAAwPopAADQIAUAABqkAABAgxQAAGiQAgAADVIAAKBBCgAANEgBAIAGKQAA0CAFAAAapAAAQIMUAABokAIAAA1SAACgQQoAADRIAQCABikAANAgBQAAGqQAAECDFAAAaJACAAANUgAAoEEKAAA0SAEAgAYpAADQIAUAABqkAABAgxQAAGiQAgAADVIAAKBBCgAANEgBAIAGKQAA0CAFAAAapAAAQIMUAABokAIAAA1SAACgQQoAADRIAQCABikAANAgBQAAGqQAAECDFAAAaJACAAAN+v/0hO1v9T2O+gAAAABJRU5ErkJggg==;fontStyle=1;labelPosition=center;align=center;html=1;textOpacity=50;opacity=50;" parent="1" vertex="1">
          <mxGeometry x="823" y="76.5" width="40" height="40" as="geometry" />
        </mxCell>
        <mxCell id="zvPZIyypiw4BT_DNb9Xp-11" style="edgeStyle=orthogonalEdgeStyle;rounded=0;orthogonalLoop=1;jettySize=auto;html=1;exitX=1;exitY=0.5;exitDx=0;exitDy=0;entryX=0;entryY=0.5;entryDx=0;entryDy=0;" parent="1" source="zvPZIyypiw4BT_DNb9Xp-3" target="fNX_a5Hz9HWH8XYPbjZu-29" edge="1">
          <mxGeometry relative="1" as="geometry">
            <mxPoint x="306" y="290" as="targetPoint" />
          </mxGeometry>
        </mxCell>
        <mxCell id="zvPZIyypiw4BT_DNb9Xp-3" value="&lt;b&gt;Cloud Storage&lt;/b&gt;&lt;div&gt;(Audio Files)&lt;/div&gt;" style="editableCssRules=.*;html=1;shape=image;verticalLabelPosition=top;labelBackgroundColor=none;verticalAlign=bottom;aspect=fixed;imageAspect=0;image=data:image/svg+xml,PHN2ZyB4bWxucz0iaHR0cDovL3d3dy53My5vcmcvMjAwMC9zdmciIHhtbG5zOnY9Imh0dHBzOi8vdmVjdGEuaW8vbmFubyIgd2lkdGg9IjIwIiBoZWlnaHQ9IjE2IiB2aWV3Qm94PSIwIDAgMjAgMTYiPiYjeGE7CTxzdHlsZSB0eXBlPSJ0ZXh0L2NzcyI+JiN4YTsJLnN0MHtmaWxsOiM0Mjg1ZjQ7fSYjeGE7CS5zdDF7ZmlsbDojNjY5ZGY2O30mI3hhOwkuc3Qye2ZpbGw6I2FlY2JmYTt9JiN4YTsJLnN0M3tmaWxsOiNmZmY7fSYjeGE7CTwvc3R5bGU+JiN4YTsJPHBhdGggY2xhc3M9InN0MiIgZD0iTTAgMGgyMHY3SDB6Ii8+JiN4YTsJPHBhdGggY2xhc3M9InN0MSIgZD0iTTE4IDBoMnY3aC0yeiIvPiYjeGE7CTxwYXRoIGNsYXNzPSJzdDAiIGQ9Ik0xOCA3bDItN2gtMnoiLz4mI3hhOwk8cGF0aCBjbGFzcz0ic3QxIiBkPSJNMCAwaDJ2N0gweiIvPiYjeGE7CTxnIGNsYXNzPSJzdDMiPiYjeGE7CQk8cGF0aCBkPSJNNCAzaDZ2MUg0eiIvPiYjeGE7CQk8cmVjdCB4PSIxMyIgeT0iMiIgd2lkdGg9IjMiIGhlaWdodD0iMyIgcng9IjEuNSIvPiYjeGE7CTwvZz4mI3hhOwk8cGF0aCBjbGFzcz0ic3QyIiBkPSJNMCA5aDIwdjdIMHoiLz4mI3hhOwk8cGF0aCBjbGFzcz0ic3QxIiBkPSJNMTggOWgydjdoLTJ6Ii8+JiN4YTsJPHBhdGggY2xhc3M9InN0MCIgZD0iTTE4IDE2bDItN2gtMnoiLz4mI3hhOwk8cGF0aCBjbGFzcz0ic3QxIiBkPSJNMCA5aDJ2N0gweiIvPiYjeGE7CTxnIGNsYXNzPSJzdDMiPiYjeGE7CQk8cGF0aCBkPSJNNCAxMmg2djFINHoiLz4mI3hhOwkJPHJlY3QgeD0iMTMiIHk9IjExIiB3aWR0aD0iMyIgaGVpZ2h0PSIzIiByeD0iMS41Ii8+JiN4YTsJPC9nPiYjeGE7PC9zdmc+;labelPosition=center;align=center;" parent="1" vertex="1">
          <mxGeometry x="156" y="274" width="40" height="32" as="geometry" />
        </mxCell>
        <mxCell id="fNX_a5Hz9HWH8XYPbjZu-14" value="" style="rounded=1;whiteSpace=wrap;html=1;verticalAlign=top;align=left;fillColor=#fad7ac;strokeColor=#b46504;" parent="1" vertex="1">
          <mxGeometry x="276" y="431.5" width="160" height="257.5" as="geometry" />
        </mxCell>
        <mxCell id="fNX_a5Hz9HWH8XYPbjZu-31" style="edgeStyle=orthogonalEdgeStyle;rounded=0;orthogonalLoop=1;jettySize=auto;html=1;exitX=0.5;exitY=1;exitDx=0;exitDy=0;entryX=0;entryY=0.5;entryDx=0;entryDy=0;" parent="1" source="zvPZIyypiw4BT_DNb9Xp-15" target="fNX_a5Hz9HWH8XYPbjZu-23" edge="1">
          <mxGeometry relative="1" as="geometry" />
        </mxCell>
        <mxCell id="zvPZIyypiw4BT_DNb9Xp-15" value="BigQuery&amp;nbsp;&lt;span style=&quot;background-color: initial;&quot;&gt;Table&lt;/span&gt;&lt;div&gt;&lt;span style=&quot;font-weight: normal;&quot;&gt;(Text&amp;nbsp;&lt;/span&gt;&lt;/div&gt;&lt;div&gt;&lt;span style=&quot;font-weight: normal;&quot;&gt;Reviews)&lt;/span&gt;&lt;/div&gt;" style="shape=image;imageAspect=0;aspect=fixed;verticalLabelPosition=top;verticalAlign=bottom;image=data:image/png,iVBORw0KGgoAAAANSUhEUgAAAQAAAAEACAYAAABccqhmAAAACXBIWXMAAAsTAAALEwEAmpwYAAAZz0lEQVR4nO3dX2xU150H8O+dsWPDONhBm9pW2RovBina3djz0EoJRRCsLEnU3VCa9GWr5c+2T2xJ2kpdZdpNJ7AdtJXapVTsQ9SA0Sp5aKg3VbeBbNYBAy1SK8Umuyuk4hTcPtiEFGzHA3aMZ/Zh7pjxZey55/4759zz/UiVktQzczBzv/d3z+/cc61isQgiMlNC9gCISB4GAJHBGABEBmMAEBmMAUBkMAYAkcEYAEQGYwAQGYwBQGQwBgCRwRgARAZjABAZrE72AFTTm8u3ANhi/68HwGaZ4yHfBgEMAzgD4MxAJjUhdzhqsXg3YElvLr8FwPMAnpY8FArXcQB9A5nUGdkDUYHxAWAf+FnwTG+aQQBZ04PA2ACwS/0+8Ixvup8B2GXqpYGRAWCf9d8A0Cx5KKSGSQDbTawGjOsC9ObyuwCcBg9+uqsZwGn7u2EUowLA/gs+JnscpKxjpoWAMQHAg59cMioEjJgD6M3ltwP4D9njIK18fiCTekP2IMIW+wDozeXXorQQhNf8JGISQM9AJnVV9kDCZMIlQB948JO4ZpS+O7EW6wCwr+W4wIe82hz3+YDYXgLYC32ugmd/8mcSwNq4LhSKcwXwPHjwk3/NKH2XYimWFYA98XdF9jgoVjrjOCEY1wrgkOwBUOzE8jsVuwrAXud/WvY4KJYei9v9AnGsAPpkD4BiK3ZVQKwCoDeXfx5Ah+xxUGx129+x2IjNJQDbfhSRWLUF41QBZMGDn8LXjNJ3LRZiUQGw7UcSxKItGJcKoE/2AMg4fbIHEATtA8C+1Zfr/Slqm+2Ws9a0DwDEsDVD2uiTPQC/tA6A3lw+C7b9SJ4O3duC2k4Csu1HitC6LahzBXAIPPhJPq3bglpWAL25fA+AIdnjIKqQHsikhmUPQpSuFQAn/kg1Wn4ntQsAtv1IUZvt76ZWtAoAe+JPy6QlI2j33dQqAFDamoltP1JVh92a1oY2k4Dc3580oVVbUKcKIAse/KS+Zmh0KaBFBcBtvkhDWrQFdakAsrIHQCRIiypA+QDg031IU1q0BZW+BLDbfsPgzD/paRSlB4wqOyGoegXAth/prAOKP1VI2QqA23xRTCj9mHGVKwAtJlGIalD6bkElKwC2/SiGlHyqkKoVAM/+FDdZ2QOoRrkAsNt+3bLHQRSwzfZ3WylKXQJwmy+KOeXagqpVAFnw4Kf4Uq4tqEwFwLYfGUKptqBKFUCf7AEQRUCpuwWVqADY9iMDKdEWVKUC6JM9AKKIKVEFSA8A+8kqXO9PpulWoS0o9RKAbT8ynPTtw2RXAFnw4CdzNUNyW1BaBcCn+xAt6JTVFpRZASgxCUKkAGnHgpQA4NN9iBZ52m6FR05WBcCzP9FifTI+NPIAsJ+cwrYf0WIddks8UpFOArLtR7SsyNuCUVcAh8CDn2gpkW8fFlkFwPX+RK5F1haMsgLIRvhZRDrri+qDIgkAPt2HSMjmqNqCoQeAPfGXDftziGKmL4oPiaIC4N1+ROIiaQuGOglob/M1DM78E3kRelsw7AogCx78RF6Fvn1YaBUA237qaGq0sK61lPVdrQk0NVhVf256toiRawUAwPvXCpiekb9dHAEA0gOZ1HAYb1wXxpvauN5fgrZmC90dSXS1JrCuNYGu1gRSSxzwteTtQHj/WgEj1wq4ODqP8UmGggSHAGwJ441DqQDstt+xwN+YqupqTWDbw3XYuKEOrc3eDna3rk0W8cvf3sFb791ZqBYoEp8fyKTeCPpNAw8ArvePRluzhS98pj6Sg34p5TD46a/nWBmEb3Qgk1ob9JuGEQBZAN8J9E1pQXdHEjs31aP7U0nZQ1nk4u/ncfzcHC6OzsseSpy9NJBJZYN8w0ADgE/3Cc/GDUnsfbxB2tnerWuTRfzLf84yCMIReFsw6ElATvwFTNUz/lJamy384G8bWRGEo9wW3BXUGwZWAbDtF6ymRgs7N9Vjx6frZQ/Fl/7fzOH4uTm2FIMVWFswyIVAfQG+l9E2bkjitb0rtD/4AWDHp+vx2t4V2LhBjwpGE4FV2oFUAPaa5X/1Pxza+/h9sTjwq+n/zRyOvP2x7GHExe6BTKrP75v4DgC2/YLR1mxh/7ONWPcJ2c9qCdf7HxTw4uszbBv6N4rSY8Z9TQgG8W3Lgge/L12tCbz85RWxP/gBYN0nSn/Wrtb4/1lD1oEAnirkqwJg28+/bQ/XYe/j93lerlvL8NVZDF2ZxfjNeYxP3MHlsTlMz1RfwdfUmMD69nq0tdSh7YEk0p0N6FnbEMq48rNFHHn7Y7z13p1Q3t8QkyhVAVe9voHfNmCfz9cbbdvDdfjm54I9wMYn5nH+0m2cu3QbQ1dmhV47PVOwX1N6XXktd7qzAZseWoHPPrQCbS3BTOalGqyFPztDwLPyJqK7vL6B5wqAbT9/gj74Tw3dwsmhvPBBLyrd2YAn0yk8kV4Z2Ht+7+e38db/8L4CHx4byKTOeHmhnwC4Cu7040mQB/+poVs4+s4UxieiPYu2tdRhz9ZVgQUBQ8CXwYFMaouXF3oKAK73966rNYEffKnR9zW/rAPfKaggyM8U8LV/v433rwc0MPN4agsKBwDbft61NVt4+csrfB384xPzONh/I/RSX1S6swEv7Fjta44gP1PAV358C9em1L7fQVGe2oJeejF8uo9H+5/1d+Y/cWEae45cU+7gB4ChK7PYc+QaTlyY9vweqcYE9j/TgGKB9w944KktKFQB9ObyPQCGRD+E/K3wy88UcPjNSZwcygc8qnA8mU5h31PNSDV66/WfuDCNfxsowEpw+bAHQk8VEv0b4t1+HmzckPR18O87el2bgx8ATg7lse/odeSXWG9QyzOPNOHRP5tjJeCN0DHqOgB6c/nt4NN9hDU1WvjHv/Y24z8yPofdRz7A5bG5gEcVvstjpbGPjHsb+ws7HsAKK88QEPe0yFOFXAWAPfHHs78HOzfVe7ruHxmfw75Xrkuf5fdjfOIO9r1y3VMIpBoT2L31fszPfsQQEOf6WHVbAfDpPh50d3gr/fMzBWRe/eOSS3Z1Mj1TwMH+G54uB555pAk9nfcxBMR12xvz1lQzAOz1/qE/oiiOdm7ydvDvO6r3md/p8tic5zmB3VtXoYgiQ0DcIbtyX5abCiALtv2EdXckPW3jdfjNSS2v+Wu5PDaHw29OCr+uZ20D0p0NDAFxzXBx4l42AOzJhJ0BDcgoex+/T/g1Jy5MazXbL+rkUN7TOoGvPlU6kTEEhH3HruCXVKsCyAY2FIN0dySF7+0fn5jH0XemQhqROkrLl8UO4K62eqQ7S50UhoCwZScEl/yW2pMIbPt54OXa/2D/jVhM+tVSnhQUtXvrqoV/ZggIWbYtWDUA7MmDbEgDirW2Zkv42v/U0C0ll/eGZejKLE4N3RJ6Tc/aBrS13N2+giEgpG+p/2OpCoBtP4++8Bnxs78Jpb+Tlz/zFx9tWvTvDAHXOuyNe+9xTwDYkwa81dejjRvENlk6NXQrVi0/t8Yn7ghXAZ99aMU9/40h4Fq2WluwWgXAFX8edbUmhB/dZeLZv0z0z97WksT69nsrLIaAK+XtwxZZdLqyJwuejmY88bPtYbXP/of//sGam3w+d/R6ZPMR5SpAZDORJ9MpXB6795b3cggkG+7nXYRLe643lz9UebegswLg2d8H0fI/zj1/t0R/B9UuA8pYCbjSV/kvCwFgt/26Ix5MbLQ1W0Ll//jEvFEz/0sZujIrtC6grSW5qBvgxBCoaXNlW7CyAshGPpQY6e4QKzvPX7od0kj0I/q7KC8KWgpDoKZs+R8SwMLZn20/H0SfdHOOAbBA9HdRbSLQiSGwrIUqoPyt3S5vLPGwTjAAWP7fJfq76HIRAABDoIZdAJCwe4Oc+fdJpAIYvsqD30nkd7K+zf1iK4bAknYCpQqAZ3+fmhotoV1/ePa/14jALdCpxgSaBDYcZQhU15vLb08A2CJ7ILoTLf/Hb/KL6CS6B4KbeYBKDIGqtiQArJU9CtOYuPS3lih+JwyBe/QkwFt+fRPtAMRxxx+/xgSrIrcTgU4MgUV6vD25gRZpEtz114T7/kWJVgAicwBODIEFzWJrV0mKdGcDfrjnwWV/ZvjqLPa9widrusV7B0pYAZCxWAkwAMhwpocAA4CMZ3IIMACIYG4IJAAMyh6E7qZn3T9iHfA3gx1Xy93iW00YnRQDQ2C0DsBVcC2ALyPXxL6M69vrtV4OvHvrKux+bNWyP3Ps9BSOCWz51f6A2Ey8yNJhEYZ1B4YTAM7IHoVpRM92JlDpd2JQJTCcAPCG7FHo7n3BCqBN8GxnAtG1/WGvpjQkBN5IDGRSEwB+JnskOpueKSIvMA9Qa0cbE4ks7c3PFCJZTRnzEBgdyKSGy7NRrAJ8EpkHqLUzr4lEfieXx6O7lyLGIdAH2G3AgUyqD8CoxMFoT/QygFXAXaK/i7AmAJcS0xDoA7gpaGBEOwGbltne2jSivwsZd1PGLASOl58NsBAAdhVwUdKAtHdxVOyLsdz+9qYR/V3IaqHGJAQm4dwVuELVBwhSbeOTRVybdD8R2NaSdF366nj7sNutvtOdDWhrcd8VGZ+Yl7qhSgxCYOknAw1kUmfAjoBnv/yt2BfzyXTK1c9dHpvT6jkCJy5Muy7T3f4OylT4PWgcAqNwPP2r2ppUVgEevfWeWAA8kV7pegFMrv8m8hpUAuMT864f+tnWUif0XEBAncepaRoCWbvtv+CeALDLg5eiGlGcjFwrCF0GAMCercsvqS2bnikg13/Ty7Ai9a3XPnR9yeL2z142PjGv1HZqmoXAoD3Pt8hSd6UcQmmygASJXgaIVAHnLt3GsdPqPk78YP9N1weol7O/CuW/k0YhkK32H6sGgF0m8FLAg5/+WvwMJXImPPbOFE4N3RL+jLAd7L8pVJ6Lnv0B4Ce/mhZ+TRQ0CIHj9vzePZa8L5VtQW/GJ4u4+HuxL8IT6ZVCi2Fy/TeUCgHRgz/d2SB89h++Oqv0duoKh8AkljmZ17oxnVWAB8fPiVcBL+xYLbRPQK7/Bn50cqL2D4YoP1MQPvibGhN4Ycdq4c8SubVYFkVD4JBz4q/Sst84tgW9uTg6j/c/ELxDsCUpXBa//qtpPHf0upTuwMj4HPYdvS48K7/vqRahvj9QOvvrsn9CEUXcmZ1C4Y4S4x0dyKSyy/2Am1MOqwAPjrz9sfBrnnmkSbgvPnRlFs9+fzzSx42fv3Qb+165Ljwj/2Q6JVz6A3qc/Z3m526pEAI1j92aAcC2oDcXR+eF5wIAYN9TzcL3xk/PFPB6hBNkl8fmhFcnrm+vx76nmoU/S6ezv5PkEBgcyKRq3uXr9qKTbUEPvMwFpBoTOLznQeEQUNn69noc3vMgUh72QtTx7F9JYgi4qtxd/Y2wLejNxdF59P/GWwiITgqqqjzp5+XgP3FhWtuzfyUJIXB8IJMadvODVrHofuVaby5/BtxAVEhTo4XX9q5ASvD5gUBpou1g/41AV7+V2409FW3H6ZkCRuyyPsjPWt9ejxd2rEZXm3g1k58p4Nnvj2t5I9RSkvUrkagLfR+ISQBrl5v5ryQaAFsAnPY2LnNt3JDE/mcaPb02P1PAvqPiE26y+Sn7AeBbr/0x0onNqEQQAi/VmvmvJPS3Y7cFjwsOyHi//K23SwHg7pyAaHdApifTKV8H/4kL07E8+IHQLwdqtv2cvPwNZcEJQWFH3v5YeG1AWWlO4AFkFJ8XaGpMILNjNV7Y8YDng//Dj+Zx+E25C5zCFmII7BJ9gfDfkt0WPFTr5+heL74+I7R7sNMT6ZU4urdVyf0E050NOLq31VOfv9Kf3J9ExsNKQd2EEAKDS633X47QHEBZby7fAmAYQIfwiw3X1ZrAD77U6GlSsNKpoVs4+s6U9PXxbS112LN1le8D3+nU0C3k+m8E+p4qCnBOoLNypx+3PAUAAPTm8rsAHPP0YsNte7gO3/xcMGdxWUEQ1oFfiSHg2g8HMilPbXrPAQCwLehHkCEAlA6Wk0P50Pvm6c4Gz0t6vWAI1CTU9nPyGwBbwLagZ9v+wsI3/ybYA2l8Yh7nL93GuUu3AwuDdGcDNj20Ap99aIXwjTxBYAgs62sDmZTnOTlfAQAAvbl8H4Cdvt7EYH/158A/bFvheda8luGrsxgZm8PlsTmMT9zB2M2ld9Vta6lD+wNJtLXUYX17Pbra65V5ihFDoKrRgUxqrZ/PC+KRrFkA2wGI3+lB+K//A0aufYRDf3d/KCHQs7ZBmYPYj/IlR9xDYH6utNGLyxDY5ffzfH/j2Bb073cf1uHLL09hJMJn3sny4UfeN8t4Ir2SLcK7PLX9nII65RwCny3oywfT9fjKyx/hxAU1970LwokL09jxvTFf25kxBBbsCuJzfM8BlLEtGIzCnVk82lVExsdqOtXkZwrIvPbHRZOSmR2rfXUSDJ8TEFrvv5zAAgBgWzAohTuzWJGcwZ6tq/DMI02yh+PLiQvTOPrOVNW7+hgC7jhCwFfbzynoANgCtgUDUbgzi/m5W0h3NmD31lXaTeQNX53FsXemarYiGQLuVITA7moP+PAq0AAA2BYMUjkEAGgTBG4P/EoMAXeS9SvfO/3i6u4g3zOINqBTFmwLBqJc9s3P3cLQlVkMvXJd2SDwcuCXlQ9eryFgTIvw4/w3gGAnQAOvAACgN5fPAvhO4G9sqMpKoKytpQ5ffLRJ2uo84O6qw5/8ajqQexFYCSzNgvWLwQOf/Fzg7xtSAPBuwYBVC4Gy9e31eDKdiiQMygf9yaF8KLsUMQSqs6zkusH97b8L/H3DCACAbcEwLBcCZW0tdUh3Niws5V3fVu+5nZifKeDy+BxGxuYwdGV2YTlx2BgCi1mwvjt44JPfDuW9wwoAgG3BMLgJAaemxsTCNuNd7fVL7ipU3hwU8Lb3f5D8hsCJC9Nx2VloyrKSawf3t4fybPgwJgErZcG2YKAqJwbdmp4pLEzO6bLNtt+Jwa74PFfhG2Ed/EBwS4Gr4iai4UjUNSBZH839+DKp9hRkCc6fPbDmx2F+QBRrTbPgJqKBYwgYoFgM/ZF8oQcA7xYMD0NgaSff1Ts0LFivnv3nP/3vsD8nqrtNeLdgSBgC9zrYf1P4seWKmYKVeDGKD4okAOwbF7JRfJaJGAJ3xeDghwXrR2H0/KuJ7H5T+waGwag+zzQMgXgc/AD+ACvx/ag+LOw2oFMWbAuGxkuLUEe5/huYniksavWdfPdWHA5+ANgfZtvPKdSFQNXwbsHweVksREo4f/bAmk1RfqCMLWeyYFswVKZcDsROBG0/p8gDgG3BaDAE9BJV289J1qZzbAtGgCGgjSlYia/K+GApAWC3BT09y4zEMATUZ7f9Ipv4W/TZUU8CVuLdgtHhxKCy/nD2wJpPyfpw2ftOswqICCsBZX1d5odLDYCBTGoYvFswMgwB5Zw/e2DNCZkDkF0BAKUqgG3BiDAE1GFZyedkj0F6ANgTgmwLRoghIJ8F69XB/e3vyh6H9AAAAPsxR2wLRoghIJW0tp+TEgFg44RgxBgCcshs+zlJbQM6sS0oB1uEkZLa9nNSqQIAWAVIwUogQsXiHtlDqKRUALAtKA9DIBLnZaz3X45SAWBjW1AShkC4LCup3G3wygUA24JyMQTCYcE6EtU2XyKUCwCAbUHZGAKBm4KV+CfZg6hGyQCwcUJQIoZAoA6o0vZzUqoN6MS2oHxsEfqmVNvPSeUKAGAVIB0rAZ8Ua/s5KR0AbAuqgSHgmXJtPyelA8DGtqACGALiVGz7OSkfAGwLqoMh4J4F67sqtv2clA8AgG1BlTAEXJmK8uk+fmgRADZOCCqCIVDTN1Rt+zkp3QZ0YltQLWwRVvW/Zw+s+UvZg3BLpwoAYBWgFFYCVRSLX5M9BBFaBQDbguphCNxlwfqF6m0/J60CwMa2oGIYAjYrsU/2EERpFwBsC6rJ9BDQpe3npF0AAGwLqsrgENCm7eekZQDYOCGoIENDQJu2n5NWbUAntgXVZVCL8PzZA2s2yR6EVzpXAACrAGUZUwkUiy/JHoIfWgcA24Jqi3sIWLBe1a3t56R1ANjYFlRYjENgClbiRdmD8Ev7AGBbUH1xDAH76T7atf2ctA8AgG1BHcQsBP6ga9vPKRYBYOOEoOJiFAL7dW37OWndBnRiW1APmrcItW77OcWpAgCAXbIHQLVpXQlo3vZzilUADGRSVwH8UPY4qDYdQyAObT+nWAWALQu2BbWgWQhMwUp8VfYggha7ALDbglnZ4yB3dAkBu+0Xi4m/SrGaBKzUm8tfBdAhexzkjuITg0o/3ceP2FUAFXbJHgC5p3gl8HXZAwhLbCsAgG1BHSlYCcSq7ecU5woAYBWgHdUqActKPid7DGGKdQDYbcFY9W1NoEoI2Nt8vSt7HGGK9SVAWW8uPwygW/Y4SIzkywGt9vf3KtYVQIUt4NoA7UisBKYsK/m0jA+OmhEBYK8N2AKGgHYkhMCUZSUfi8Otvm4YEQDAwu5BW8AQ0E6EIVA++GN93V/JmAAAFoUA9w7QTAQhYNzBDxgWAMBCCPQAGJQ9FhITYgict6zkWtMOfsCQLsBSenP551G6b6BZ8lBIQJDdAQvWdwcPfPLbgbyZhoyrACoNZFKHUKoGuLOwRoKoBCxYr1pWcp3JBz9geAVQqTeXX4vStmK7wIpACx4qgSkL1s9hJV40ZZa/FgZAFb25/BYA21GqDnrAQFCWixA4b8G6WETxzNkDa05ENS5dMACIDGb0HACR6RgARAZjABAZjAFAZDAGAJHBGABEBmMAEBmMAUBkMAYAkcEYAEQGYwAQGYwBQGSw/wcBX0vxpnVzMgAAAABJRU5ErkJggg==;fontStyle=1;html=1;labelPosition=center;align=center;" parent="1" vertex="1">
          <mxGeometry x="436" y="270" width="40" height="40" as="geometry" />
        </mxCell>
        <mxCell id="fNX_a5Hz9HWH8XYPbjZu-33" style="edgeStyle=orthogonalEdgeStyle;rounded=0;orthogonalLoop=1;jettySize=auto;html=1;exitX=0.5;exitY=1;exitDx=0;exitDy=0;entryX=0;entryY=0.5;entryDx=0;entryDy=0;" parent="1" source="zvPZIyypiw4BT_DNb9Xp-19" target="fNX_a5Hz9HWH8XYPbjZu-25" edge="1">
          <mxGeometry relative="1" as="geometry" />
        </mxCell>
        <mxCell id="zvPZIyypiw4BT_DNb9Xp-19" value="BigQuery Table&lt;div&gt;&lt;span style=&quot;font-weight: normal;&quot;&gt;(Transcripted&lt;/span&gt;&lt;/div&gt;&lt;div&gt;&lt;span style=&quot;font-weight: normal;&quot;&gt;Reviews)&lt;/span&gt;&lt;/div&gt;" style="shape=image;imageAspect=0;aspect=fixed;verticalLabelPosition=top;verticalAlign=bottom;image=data:image/png,iVBORw0KGgoAAAANSUhEUgAAAQAAAAEACAYAAABccqhmAAAACXBIWXMAAAsTAAALEwEAmpwYAAAZz0lEQVR4nO3dX2xU150H8O+dsWPDONhBm9pW2RovBina3djz0EoJRRCsLEnU3VCa9GWr5c+2T2xJ2kpdZdpNJ7AdtJXapVTsQ9SA0Sp5aKg3VbeBbNYBAy1SK8Umuyuk4hTcPtiEFGzHA3aMZ/Zh7pjxZey55/4759zz/UiVktQzczBzv/d3z+/cc61isQgiMlNC9gCISB4GAJHBGABEBmMAEBmMAUBkMAYAkcEYAEQGYwAQGYwBQGQwBgCRwRgARAZjABAZrE72AFTTm8u3ANhi/68HwGaZ4yHfBgEMAzgD4MxAJjUhdzhqsXg3YElvLr8FwPMAnpY8FArXcQB9A5nUGdkDUYHxAWAf+FnwTG+aQQBZ04PA2ACwS/0+8Ixvup8B2GXqpYGRAWCf9d8A0Cx5KKSGSQDbTawGjOsC9ObyuwCcBg9+uqsZwGn7u2EUowLA/gs+JnscpKxjpoWAMQHAg59cMioEjJgD6M3ltwP4D9njIK18fiCTekP2IMIW+wDozeXXorQQhNf8JGISQM9AJnVV9kDCZMIlQB948JO4ZpS+O7EW6wCwr+W4wIe82hz3+YDYXgLYC32ugmd/8mcSwNq4LhSKcwXwPHjwk3/NKH2XYimWFYA98XdF9jgoVjrjOCEY1wrgkOwBUOzE8jsVuwrAXud/WvY4KJYei9v9AnGsAPpkD4BiK3ZVQKwCoDeXfx5Ah+xxUGx129+x2IjNJQDbfhSRWLUF41QBZMGDn8LXjNJ3LRZiUQGw7UcSxKItGJcKoE/2AMg4fbIHEATtA8C+1Zfr/Slqm+2Ws9a0DwDEsDVD2uiTPQC/tA6A3lw+C7b9SJ4O3duC2k4Csu1HitC6LahzBXAIPPhJPq3bglpWAL25fA+AIdnjIKqQHsikhmUPQpSuFQAn/kg1Wn4ntQsAtv1IUZvt76ZWtAoAe+JPy6QlI2j33dQqAFDamoltP1JVh92a1oY2k4Dc3580oVVbUKcKIAse/KS+Zmh0KaBFBcBtvkhDWrQFdakAsrIHQCRIiypA+QDg031IU1q0BZW+BLDbfsPgzD/paRSlB4wqOyGoegXAth/prAOKP1VI2QqA23xRTCj9mHGVKwAtJlGIalD6bkElKwC2/SiGlHyqkKoVAM/+FDdZ2QOoRrkAsNt+3bLHQRSwzfZ3WylKXQJwmy+KOeXagqpVAFnw4Kf4Uq4tqEwFwLYfGUKptqBKFUCf7AEQRUCpuwWVqADY9iMDKdEWVKUC6JM9AKKIKVEFSA8A+8kqXO9PpulWoS0o9RKAbT8ynPTtw2RXAFnw4CdzNUNyW1BaBcCn+xAt6JTVFpRZASgxCUKkAGnHgpQA4NN9iBZ52m6FR05WBcCzP9FifTI+NPIAsJ+cwrYf0WIddks8UpFOArLtR7SsyNuCUVcAh8CDn2gpkW8fFlkFwPX+RK5F1haMsgLIRvhZRDrri+qDIgkAPt2HSMjmqNqCoQeAPfGXDftziGKmL4oPiaIC4N1+ROIiaQuGOglob/M1DM78E3kRelsw7AogCx78RF6Fvn1YaBUA237qaGq0sK61lPVdrQk0NVhVf256toiRawUAwPvXCpiekb9dHAEA0gOZ1HAYb1wXxpvauN5fgrZmC90dSXS1JrCuNYGu1gRSSxzwteTtQHj/WgEj1wq4ODqP8UmGggSHAGwJ441DqQDstt+xwN+YqupqTWDbw3XYuKEOrc3eDna3rk0W8cvf3sFb791ZqBYoEp8fyKTeCPpNAw8ArvePRluzhS98pj6Sg34p5TD46a/nWBmEb3Qgk1ob9JuGEQBZAN8J9E1pQXdHEjs31aP7U0nZQ1nk4u/ncfzcHC6OzsseSpy9NJBJZYN8w0ADgE/3Cc/GDUnsfbxB2tnerWuTRfzLf84yCMIReFsw6ElATvwFTNUz/lJamy384G8bWRGEo9wW3BXUGwZWAbDtF6ymRgs7N9Vjx6frZQ/Fl/7fzOH4uTm2FIMVWFswyIVAfQG+l9E2bkjitb0rtD/4AWDHp+vx2t4V2LhBjwpGE4FV2oFUAPaa5X/1Pxza+/h9sTjwq+n/zRyOvP2x7GHExe6BTKrP75v4DgC2/YLR1mxh/7ONWPcJ2c9qCdf7HxTw4uszbBv6N4rSY8Z9TQgG8W3Lgge/L12tCbz85RWxP/gBYN0nSn/Wrtb4/1lD1oEAnirkqwJg28+/bQ/XYe/j93lerlvL8NVZDF2ZxfjNeYxP3MHlsTlMz1RfwdfUmMD69nq0tdSh7YEk0p0N6FnbEMq48rNFHHn7Y7z13p1Q3t8QkyhVAVe9voHfNmCfz9cbbdvDdfjm54I9wMYn5nH+0m2cu3QbQ1dmhV47PVOwX1N6XXktd7qzAZseWoHPPrQCbS3BTOalGqyFPztDwLPyJqK7vL6B5wqAbT9/gj74Tw3dwsmhvPBBLyrd2YAn0yk8kV4Z2Ht+7+e38db/8L4CHx4byKTOeHmhnwC4Cu7040mQB/+poVs4+s4UxieiPYu2tdRhz9ZVgQUBQ8CXwYFMaouXF3oKAK73966rNYEffKnR9zW/rAPfKaggyM8U8LV/v433rwc0MPN4agsKBwDbft61NVt4+csrfB384xPzONh/I/RSX1S6swEv7Fjta44gP1PAV358C9em1L7fQVGe2oJeejF8uo9H+5/1d+Y/cWEae45cU+7gB4ChK7PYc+QaTlyY9vweqcYE9j/TgGKB9w944KktKFQB9ObyPQCGRD+E/K3wy88UcPjNSZwcygc8qnA8mU5h31PNSDV66/WfuDCNfxsowEpw+bAHQk8VEv0b4t1+HmzckPR18O87el2bgx8ATg7lse/odeSXWG9QyzOPNOHRP5tjJeCN0DHqOgB6c/nt4NN9hDU1WvjHv/Y24z8yPofdRz7A5bG5gEcVvstjpbGPjHsb+ws7HsAKK88QEPe0yFOFXAWAPfHHs78HOzfVe7ruHxmfw75Xrkuf5fdjfOIO9r1y3VMIpBoT2L31fszPfsQQEOf6WHVbAfDpPh50d3gr/fMzBWRe/eOSS3Z1Mj1TwMH+G54uB555pAk9nfcxBMR12xvz1lQzAOz1/qE/oiiOdm7ydvDvO6r3md/p8tic5zmB3VtXoYgiQ0DcIbtyX5abCiALtv2EdXckPW3jdfjNSS2v+Wu5PDaHw29OCr+uZ20D0p0NDAFxzXBx4l42AOzJhJ0BDcgoex+/T/g1Jy5MazXbL+rkUN7TOoGvPlU6kTEEhH3HruCXVKsCyAY2FIN0dySF7+0fn5jH0XemQhqROkrLl8UO4K62eqQ7S50UhoCwZScEl/yW2pMIbPt54OXa/2D/jVhM+tVSnhQUtXvrqoV/ZggIWbYtWDUA7MmDbEgDirW2Zkv42v/U0C0ll/eGZejKLE4N3RJ6Tc/aBrS13N2+giEgpG+p/2OpCoBtP4++8Bnxs78Jpb+Tlz/zFx9tWvTvDAHXOuyNe+9xTwDYkwa81dejjRvENlk6NXQrVi0/t8Yn7ghXAZ99aMU9/40h4Fq2WluwWgXAFX8edbUmhB/dZeLZv0z0z97WksT69nsrLIaAK+XtwxZZdLqyJwuejmY88bPtYbXP/of//sGam3w+d/R6ZPMR5SpAZDORJ9MpXB6795b3cggkG+7nXYRLe643lz9UebegswLg2d8H0fI/zj1/t0R/B9UuA8pYCbjSV/kvCwFgt/26Ix5MbLQ1W0Ll//jEvFEz/0sZujIrtC6grSW5qBvgxBCoaXNlW7CyAshGPpQY6e4QKzvPX7od0kj0I/q7KC8KWgpDoKZs+R8SwMLZn20/H0SfdHOOAbBA9HdRbSLQiSGwrIUqoPyt3S5vLPGwTjAAWP7fJfq76HIRAABDoIZdAJCwe4Oc+fdJpAIYvsqD30nkd7K+zf1iK4bAknYCpQqAZ3+fmhotoV1/ePa/14jALdCpxgSaBDYcZQhU15vLb08A2CJ7ILoTLf/Hb/KL6CS6B4KbeYBKDIGqtiQArJU9CtOYuPS3lih+JwyBe/QkwFt+fRPtAMRxxx+/xgSrIrcTgU4MgUV6vD25gRZpEtz114T7/kWJVgAicwBODIEFzWJrV0mKdGcDfrjnwWV/ZvjqLPa9widrusV7B0pYAZCxWAkwAMhwpocAA4CMZ3IIMACIYG4IJAAMyh6E7qZn3T9iHfA3gx1Xy93iW00YnRQDQ2C0DsBVcC2ALyPXxL6M69vrtV4OvHvrKux+bNWyP3Ps9BSOCWz51f6A2Ey8yNJhEYZ1B4YTAM7IHoVpRM92JlDpd2JQJTCcAPCG7FHo7n3BCqBN8GxnAtG1/WGvpjQkBN5IDGRSEwB+JnskOpueKSIvMA9Qa0cbE4ks7c3PFCJZTRnzEBgdyKSGy7NRrAJ8EpkHqLUzr4lEfieXx6O7lyLGIdAH2G3AgUyqD8CoxMFoT/QygFXAXaK/i7AmAJcS0xDoA7gpaGBEOwGbltne2jSivwsZd1PGLASOl58NsBAAdhVwUdKAtHdxVOyLsdz+9qYR/V3IaqHGJAQm4dwVuELVBwhSbeOTRVybdD8R2NaSdF366nj7sNutvtOdDWhrcd8VGZ+Yl7qhSgxCYOknAw1kUmfAjoBnv/yt2BfzyXTK1c9dHpvT6jkCJy5Muy7T3f4OylT4PWgcAqNwPP2r2ppUVgEevfWeWAA8kV7pegFMrv8m8hpUAuMT864f+tnWUif0XEBAncepaRoCWbvtv+CeALDLg5eiGlGcjFwrCF0GAMCercsvqS2bnikg13/Ty7Ai9a3XPnR9yeL2z142PjGv1HZqmoXAoD3Pt8hSd6UcQmmygASJXgaIVAHnLt3GsdPqPk78YP9N1weol7O/CuW/k0YhkK32H6sGgF0m8FLAg5/+WvwMJXImPPbOFE4N3RL+jLAd7L8pVJ6Lnv0B4Ce/mhZ+TRQ0CIHj9vzePZa8L5VtQW/GJ4u4+HuxL8IT6ZVCi2Fy/TeUCgHRgz/d2SB89h++Oqv0duoKh8AkljmZ17oxnVWAB8fPiVcBL+xYLbRPQK7/Bn50cqL2D4YoP1MQPvibGhN4Ycdq4c8SubVYFkVD4JBz4q/Sst84tgW9uTg6j/c/ELxDsCUpXBa//qtpPHf0upTuwMj4HPYdvS48K7/vqRahvj9QOvvrsn9CEUXcmZ1C4Y4S4x0dyKSyy/2Am1MOqwAPjrz9sfBrnnmkSbgvPnRlFs9+fzzSx42fv3Qb+165Ljwj/2Q6JVz6A3qc/Z3m526pEAI1j92aAcC2oDcXR+eF5wIAYN9TzcL3xk/PFPB6hBNkl8fmhFcnrm+vx76nmoU/S6ezv5PkEBgcyKRq3uXr9qKTbUEPvMwFpBoTOLznQeEQUNn69noc3vMgUh72QtTx7F9JYgi4qtxd/Y2wLejNxdF59P/GWwiITgqqqjzp5+XgP3FhWtuzfyUJIXB8IJMadvODVrHofuVaby5/BtxAVEhTo4XX9q5ASvD5gUBpou1g/41AV7+V2409FW3H6ZkCRuyyPsjPWt9ejxd2rEZXm3g1k58p4Nnvj2t5I9RSkvUrkagLfR+ISQBrl5v5ryQaAFsAnPY2LnNt3JDE/mcaPb02P1PAvqPiE26y+Sn7AeBbr/0x0onNqEQQAi/VmvmvJPS3Y7cFjwsOyHi//K23SwHg7pyAaHdApifTKV8H/4kL07E8+IHQLwdqtv2cvPwNZcEJQWFH3v5YeG1AWWlO4AFkFJ8XaGpMILNjNV7Y8YDng//Dj+Zx+E25C5zCFmII7BJ9gfDfkt0WPFTr5+heL74+I7R7sNMT6ZU4urdVyf0E050NOLq31VOfv9Kf3J9ExsNKQd2EEAKDS633X47QHEBZby7fAmAYQIfwiw3X1ZrAD77U6GlSsNKpoVs4+s6U9PXxbS112LN1le8D3+nU0C3k+m8E+p4qCnBOoLNypx+3PAUAAPTm8rsAHPP0YsNte7gO3/xcMGdxWUEQ1oFfiSHg2g8HMilPbXrPAQCwLehHkCEAlA6Wk0P50Pvm6c4Gz0t6vWAI1CTU9nPyGwBbwLagZ9v+wsI3/ybYA2l8Yh7nL93GuUu3AwuDdGcDNj20Ap99aIXwjTxBYAgs62sDmZTnOTlfAQAAvbl8H4Cdvt7EYH/158A/bFvheda8luGrsxgZm8PlsTmMT9zB2M2ld9Vta6lD+wNJtLXUYX17Pbra65V5ihFDoKrRgUxqrZ/PC+KRrFkA2wGI3+lB+K//A0aufYRDf3d/KCHQs7ZBmYPYj/IlR9xDYH6utNGLyxDY5ffzfH/j2Bb073cf1uHLL09hJMJn3sny4UfeN8t4Ir2SLcK7PLX9nII65RwCny3oywfT9fjKyx/hxAU1970LwokL09jxvTFf25kxBBbsCuJzfM8BlLEtGIzCnVk82lVExsdqOtXkZwrIvPbHRZOSmR2rfXUSDJ8TEFrvv5zAAgBgWzAohTuzWJGcwZ6tq/DMI02yh+PLiQvTOPrOVNW7+hgC7jhCwFfbzynoANgCtgUDUbgzi/m5W0h3NmD31lXaTeQNX53FsXemarYiGQLuVITA7moP+PAq0AAA2BYMUjkEAGgTBG4P/EoMAXeS9SvfO/3i6u4g3zOINqBTFmwLBqJc9s3P3cLQlVkMvXJd2SDwcuCXlQ9eryFgTIvw4/w3gGAnQAOvAACgN5fPAvhO4G9sqMpKoKytpQ5ffLRJ2uo84O6qw5/8ajqQexFYCSzNgvWLwQOf/Fzg7xtSAPBuwYBVC4Gy9e31eDKdiiQMygf9yaF8KLsUMQSqs6zkusH97b8L/H3DCACAbcEwLBcCZW0tdUh3Niws5V3fVu+5nZifKeDy+BxGxuYwdGV2YTlx2BgCi1mwvjt44JPfDuW9wwoAgG3BMLgJAaemxsTCNuNd7fVL7ipU3hwU8Lb3f5D8hsCJC9Nx2VloyrKSawf3t4fybPgwJgErZcG2YKAqJwbdmp4pLEzO6bLNtt+Jwa74PFfhG2Ed/EBwS4Gr4iai4UjUNSBZH839+DKp9hRkCc6fPbDmx2F+QBRrTbPgJqKBYwgYoFgM/ZF8oQcA7xYMD0NgaSff1Ts0LFivnv3nP/3vsD8nqrtNeLdgSBgC9zrYf1P4seWKmYKVeDGKD4okAOwbF7JRfJaJGAJ3xeDghwXrR2H0/KuJ7H5T+waGwag+zzQMgXgc/AD+ACvx/ag+LOw2oFMWbAuGxkuLUEe5/huYniksavWdfPdWHA5+ANgfZtvPKdSFQNXwbsHweVksREo4f/bAmk1RfqCMLWeyYFswVKZcDsROBG0/p8gDgG3BaDAE9BJV289J1qZzbAtGgCGgjSlYia/K+GApAWC3BT09y4zEMATUZ7f9Ipv4W/TZUU8CVuLdgtHhxKCy/nD2wJpPyfpw2ftOswqICCsBZX1d5odLDYCBTGoYvFswMgwB5Zw/e2DNCZkDkF0BAKUqgG3BiDAE1GFZyedkj0F6ANgTgmwLRoghIJ8F69XB/e3vyh6H9AAAAPsxR2wLRoghIJW0tp+TEgFg44RgxBgCcshs+zlJbQM6sS0oB1uEkZLa9nNSqQIAWAVIwUogQsXiHtlDqKRUALAtKA9DIBLnZaz3X45SAWBjW1AShkC4LCup3G3wygUA24JyMQTCYcE6EtU2XyKUCwCAbUHZGAKBm4KV+CfZg6hGyQCwcUJQIoZAoA6o0vZzUqoN6MS2oHxsEfqmVNvPSeUKAGAVIB0rAZ8Ua/s5KR0AbAuqgSHgmXJtPyelA8DGtqACGALiVGz7OSkfAGwLqoMh4J4F67sqtv2clA8AgG1BlTAEXJmK8uk+fmgRADZOCCqCIVDTN1Rt+zkp3QZ0YltQLWwRVvW/Zw+s+UvZg3BLpwoAYBWgFFYCVRSLX5M9BBFaBQDbguphCNxlwfqF6m0/J60CwMa2oGIYAjYrsU/2EERpFwBsC6rJ9BDQpe3npF0AAGwLqsrgENCm7eekZQDYOCGoIENDQJu2n5NWbUAntgXVZVCL8PzZA2s2yR6EVzpXAACrAGUZUwkUiy/JHoIfWgcA24Jqi3sIWLBe1a3t56R1ANjYFlRYjENgClbiRdmD8Ev7AGBbUH1xDAH76T7atf2ctA8AgG1BHcQsBP6ga9vPKRYBYOOEoOJiFAL7dW37OWndBnRiW1APmrcItW77OcWpAgCAXbIHQLVpXQlo3vZzilUADGRSVwH8UPY4qDYdQyAObT+nWAWALQu2BbWgWQhMwUp8VfYggha7ALDbglnZ4yB3dAkBu+0Xi4m/SrGaBKzUm8tfBdAhexzkjuITg0o/3ceP2FUAFXbJHgC5p3gl8HXZAwhLbCsAgG1BHSlYCcSq7ecU5woAYBWgHdUqActKPid7DGGKdQDYbcFY9W1NoEoI2Nt8vSt7HGGK9SVAWW8uPwygW/Y4SIzkywGt9vf3KtYVQIUt4NoA7UisBKYsK/m0jA+OmhEBYK8N2AKGgHYkhMCUZSUfi8Otvm4YEQDAwu5BW8AQ0E6EIVA++GN93V/JmAAAFoUA9w7QTAQhYNzBDxgWAMBCCPQAGJQ9FhITYgict6zkWtMOfsCQLsBSenP551G6b6BZ8lBIQJDdAQvWdwcPfPLbgbyZhoyrACoNZFKHUKoGuLOwRoKoBCxYr1pWcp3JBz9geAVQqTeXX4vStmK7wIpACx4qgSkL1s9hJV40ZZa/FgZAFb25/BYA21GqDnrAQFCWixA4b8G6WETxzNkDa05ENS5dMACIDGb0HACR6RgARAZjABAZjAFAZDAGAJHBGABEBmMAEBmMAUBkMAYAkcEYAEQGYwAQGYwBQGSw/wcBX0vxpnVzMgAAAABJRU5ErkJggg==;fontStyle=1;html=1;labelPosition=center;align=center;" parent="1" vertex="1">
          <mxGeometry x="560.5" y="270" width="40" height="40" as="geometry" />
        </mxCell>
        <mxCell id="8yc0GDcmws6-InHvEI8O-6" style="edgeStyle=orthogonalEdgeStyle;rounded=0;orthogonalLoop=1;jettySize=auto;html=1;entryX=0;entryY=0.5;entryDx=0;entryDy=0;" edge="1" parent="1" source="zvPZIyypiw4BT_DNb9Xp-22" target="8yc0GDcmws6-InHvEI8O-5">
          <mxGeometry relative="1" as="geometry" />
        </mxCell>
        <mxCell id="zvPZIyypiw4BT_DNb9Xp-22" value="BigQuery Table&lt;div&gt;&lt;span style=&quot;font-weight: normal;&quot;&gt;(Reviews&amp;nbsp;&lt;/span&gt;&lt;/div&gt;&lt;div&gt;&lt;span style=&quot;font-weight: normal; background-color: initial;&quot;&gt;Sentiment&amp;nbsp;&lt;/span&gt;&lt;span style=&quot;background-color: initial; font-weight: normal;&quot;&gt;Analysis)&lt;/span&gt;&lt;/div&gt;" style="shape=image;imageAspect=0;aspect=fixed;verticalLabelPosition=top;verticalAlign=bottom;image=data:image/png,iVBORw0KGgoAAAANSUhEUgAAAQAAAAEACAYAAABccqhmAAAACXBIWXMAAAsTAAALEwEAmpwYAAAZz0lEQVR4nO3dX2xU150H8O+dsWPDONhBm9pW2RovBina3djz0EoJRRCsLEnU3VCa9GWr5c+2T2xJ2kpdZdpNJ7AdtJXapVTsQ9SA0Sp5aKg3VbeBbNYBAy1SK8Umuyuk4hTcPtiEFGzHA3aMZ/Zh7pjxZey55/4759zz/UiVktQzczBzv/d3z+/cc61isQgiMlNC9gCISB4GAJHBGABEBmMAEBmMAUBkMAYAkcEYAEQGYwAQGYwBQGQwBgCRwRgARAZjABAZrE72AFTTm8u3ANhi/68HwGaZ4yHfBgEMAzgD4MxAJjUhdzhqsXg3YElvLr8FwPMAnpY8FArXcQB9A5nUGdkDUYHxAWAf+FnwTG+aQQBZ04PA2ACwS/0+8Ixvup8B2GXqpYGRAWCf9d8A0Cx5KKSGSQDbTawGjOsC9ObyuwCcBg9+uqsZwGn7u2EUowLA/gs+JnscpKxjpoWAMQHAg59cMioEjJgD6M3ltwP4D9njIK18fiCTekP2IMIW+wDozeXXorQQhNf8JGISQM9AJnVV9kDCZMIlQB948JO4ZpS+O7EW6wCwr+W4wIe82hz3+YDYXgLYC32ugmd/8mcSwNq4LhSKcwXwPHjwk3/NKH2XYimWFYA98XdF9jgoVjrjOCEY1wrgkOwBUOzE8jsVuwrAXud/WvY4KJYei9v9AnGsAPpkD4BiK3ZVQKwCoDeXfx5Ah+xxUGx129+x2IjNJQDbfhSRWLUF41QBZMGDn8LXjNJ3LRZiUQGw7UcSxKItGJcKoE/2AMg4fbIHEATtA8C+1Zfr/Slqm+2Ws9a0DwDEsDVD2uiTPQC/tA6A3lw+C7b9SJ4O3duC2k4Csu1HitC6LahzBXAIPPhJPq3bglpWAL25fA+AIdnjIKqQHsikhmUPQpSuFQAn/kg1Wn4ntQsAtv1IUZvt76ZWtAoAe+JPy6QlI2j33dQqAFDamoltP1JVh92a1oY2k4Dc3580oVVbUKcKIAse/KS+Zmh0KaBFBcBtvkhDWrQFdakAsrIHQCRIiypA+QDg031IU1q0BZW+BLDbfsPgzD/paRSlB4wqOyGoegXAth/prAOKP1VI2QqA23xRTCj9mHGVKwAtJlGIalD6bkElKwC2/SiGlHyqkKoVAM/+FDdZ2QOoRrkAsNt+3bLHQRSwzfZ3WylKXQJwmy+KOeXagqpVAFnw4Kf4Uq4tqEwFwLYfGUKptqBKFUCf7AEQRUCpuwWVqADY9iMDKdEWVKUC6JM9AKKIKVEFSA8A+8kqXO9PpulWoS0o9RKAbT8ynPTtw2RXAFnw4CdzNUNyW1BaBcCn+xAt6JTVFpRZASgxCUKkAGnHgpQA4NN9iBZ52m6FR05WBcCzP9FifTI+NPIAsJ+cwrYf0WIddks8UpFOArLtR7SsyNuCUVcAh8CDn2gpkW8fFlkFwPX+RK5F1haMsgLIRvhZRDrri+qDIgkAPt2HSMjmqNqCoQeAPfGXDftziGKmL4oPiaIC4N1+ROIiaQuGOglob/M1DM78E3kRelsw7AogCx78RF6Fvn1YaBUA237qaGq0sK61lPVdrQk0NVhVf256toiRawUAwPvXCpiekb9dHAEA0gOZ1HAYb1wXxpvauN5fgrZmC90dSXS1JrCuNYGu1gRSSxzwteTtQHj/WgEj1wq4ODqP8UmGggSHAGwJ441DqQDstt+xwN+YqupqTWDbw3XYuKEOrc3eDna3rk0W8cvf3sFb791ZqBYoEp8fyKTeCPpNAw8ArvePRluzhS98pj6Sg34p5TD46a/nWBmEb3Qgk1ob9JuGEQBZAN8J9E1pQXdHEjs31aP7U0nZQ1nk4u/ncfzcHC6OzsseSpy9NJBJZYN8w0ADgE/3Cc/GDUnsfbxB2tnerWuTRfzLf84yCMIReFsw6ElATvwFTNUz/lJamy384G8bWRGEo9wW3BXUGwZWAbDtF6ymRgs7N9Vjx6frZQ/Fl/7fzOH4uTm2FIMVWFswyIVAfQG+l9E2bkjitb0rtD/4AWDHp+vx2t4V2LhBjwpGE4FV2oFUAPaa5X/1Pxza+/h9sTjwq+n/zRyOvP2x7GHExe6BTKrP75v4DgC2/YLR1mxh/7ONWPcJ2c9qCdf7HxTw4uszbBv6N4rSY8Z9TQgG8W3Lgge/L12tCbz85RWxP/gBYN0nSn/Wrtb4/1lD1oEAnirkqwJg28+/bQ/XYe/j93lerlvL8NVZDF2ZxfjNeYxP3MHlsTlMz1RfwdfUmMD69nq0tdSh7YEk0p0N6FnbEMq48rNFHHn7Y7z13p1Q3t8QkyhVAVe9voHfNmCfz9cbbdvDdfjm54I9wMYn5nH+0m2cu3QbQ1dmhV47PVOwX1N6XXktd7qzAZseWoHPPrQCbS3BTOalGqyFPztDwLPyJqK7vL6B5wqAbT9/gj74Tw3dwsmhvPBBLyrd2YAn0yk8kV4Z2Ht+7+e38db/8L4CHx4byKTOeHmhnwC4Cu7040mQB/+poVs4+s4UxieiPYu2tdRhz9ZVgQUBQ8CXwYFMaouXF3oKAK73966rNYEffKnR9zW/rAPfKaggyM8U8LV/v433rwc0MPN4agsKBwDbft61NVt4+csrfB384xPzONh/I/RSX1S6swEv7Fjta44gP1PAV358C9em1L7fQVGe2oJeejF8uo9H+5/1d+Y/cWEae45cU+7gB4ChK7PYc+QaTlyY9vweqcYE9j/TgGKB9w944KktKFQB9ObyPQCGRD+E/K3wy88UcPjNSZwcygc8qnA8mU5h31PNSDV66/WfuDCNfxsowEpw+bAHQk8VEv0b4t1+HmzckPR18O87el2bgx8ATg7lse/odeSXWG9QyzOPNOHRP5tjJeCN0DHqOgB6c/nt4NN9hDU1WvjHv/Y24z8yPofdRz7A5bG5gEcVvstjpbGPjHsb+ws7HsAKK88QEPe0yFOFXAWAPfHHs78HOzfVe7ruHxmfw75Xrkuf5fdjfOIO9r1y3VMIpBoT2L31fszPfsQQEOf6WHVbAfDpPh50d3gr/fMzBWRe/eOSS3Z1Mj1TwMH+G54uB555pAk9nfcxBMR12xvz1lQzAOz1/qE/oiiOdm7ydvDvO6r3md/p8tic5zmB3VtXoYgiQ0DcIbtyX5abCiALtv2EdXckPW3jdfjNSS2v+Wu5PDaHw29OCr+uZ20D0p0NDAFxzXBx4l42AOzJhJ0BDcgoex+/T/g1Jy5MazXbL+rkUN7TOoGvPlU6kTEEhH3HruCXVKsCyAY2FIN0dySF7+0fn5jH0XemQhqROkrLl8UO4K62eqQ7S50UhoCwZScEl/yW2pMIbPt54OXa/2D/jVhM+tVSnhQUtXvrqoV/ZggIWbYtWDUA7MmDbEgDirW2Zkv42v/U0C0ll/eGZejKLE4N3RJ6Tc/aBrS13N2+giEgpG+p/2OpCoBtP4++8Bnxs78Jpb+Tlz/zFx9tWvTvDAHXOuyNe+9xTwDYkwa81dejjRvENlk6NXQrVi0/t8Yn7ghXAZ99aMU9/40h4Fq2WluwWgXAFX8edbUmhB/dZeLZv0z0z97WksT69nsrLIaAK+XtwxZZdLqyJwuejmY88bPtYbXP/of//sGam3w+d/R6ZPMR5SpAZDORJ9MpXB6795b3cggkG+7nXYRLe643lz9UebegswLg2d8H0fI/zj1/t0R/B9UuA8pYCbjSV/kvCwFgt/26Ix5MbLQ1W0Ll//jEvFEz/0sZujIrtC6grSW5qBvgxBCoaXNlW7CyAshGPpQY6e4QKzvPX7od0kj0I/q7KC8KWgpDoKZs+R8SwMLZn20/H0SfdHOOAbBA9HdRbSLQiSGwrIUqoPyt3S5vLPGwTjAAWP7fJfq76HIRAABDoIZdAJCwe4Oc+fdJpAIYvsqD30nkd7K+zf1iK4bAknYCpQqAZ3+fmhotoV1/ePa/14jALdCpxgSaBDYcZQhU15vLb08A2CJ7ILoTLf/Hb/KL6CS6B4KbeYBKDIGqtiQArJU9CtOYuPS3lih+JwyBe/QkwFt+fRPtAMRxxx+/xgSrIrcTgU4MgUV6vD25gRZpEtz114T7/kWJVgAicwBODIEFzWJrV0mKdGcDfrjnwWV/ZvjqLPa9widrusV7B0pYAZCxWAkwAMhwpocAA4CMZ3IIMACIYG4IJAAMyh6E7qZn3T9iHfA3gx1Xy93iW00YnRQDQ2C0DsBVcC2ALyPXxL6M69vrtV4OvHvrKux+bNWyP3Ps9BSOCWz51f6A2Ey8yNJhEYZ1B4YTAM7IHoVpRM92JlDpd2JQJTCcAPCG7FHo7n3BCqBN8GxnAtG1/WGvpjQkBN5IDGRSEwB+JnskOpueKSIvMA9Qa0cbE4ks7c3PFCJZTRnzEBgdyKSGy7NRrAJ8EpkHqLUzr4lEfieXx6O7lyLGIdAH2G3AgUyqD8CoxMFoT/QygFXAXaK/i7AmAJcS0xDoA7gpaGBEOwGbltne2jSivwsZd1PGLASOl58NsBAAdhVwUdKAtHdxVOyLsdz+9qYR/V3IaqHGJAQm4dwVuELVBwhSbeOTRVybdD8R2NaSdF366nj7sNutvtOdDWhrcd8VGZ+Yl7qhSgxCYOknAw1kUmfAjoBnv/yt2BfzyXTK1c9dHpvT6jkCJy5Muy7T3f4OylT4PWgcAqNwPP2r2ppUVgEevfWeWAA8kV7pegFMrv8m8hpUAuMT864f+tnWUif0XEBAncepaRoCWbvtv+CeALDLg5eiGlGcjFwrCF0GAMCercsvqS2bnikg13/Ty7Ai9a3XPnR9yeL2z142PjGv1HZqmoXAoD3Pt8hSd6UcQmmygASJXgaIVAHnLt3GsdPqPk78YP9N1weol7O/CuW/k0YhkK32H6sGgF0m8FLAg5/+WvwMJXImPPbOFE4N3RL+jLAd7L8pVJ6Lnv0B4Ce/mhZ+TRQ0CIHj9vzePZa8L5VtQW/GJ4u4+HuxL8IT6ZVCi2Fy/TeUCgHRgz/d2SB89h++Oqv0duoKh8AkljmZ17oxnVWAB8fPiVcBL+xYLbRPQK7/Bn50cqL2D4YoP1MQPvibGhN4Ycdq4c8SubVYFkVD4JBz4q/Sst84tgW9uTg6j/c/ELxDsCUpXBa//qtpPHf0upTuwMj4HPYdvS48K7/vqRahvj9QOvvrsn9CEUXcmZ1C4Y4S4x0dyKSyy/2Am1MOqwAPjrz9sfBrnnmkSbgvPnRlFs9+fzzSx42fv3Qb+165Ljwj/2Q6JVz6A3qc/Z3m526pEAI1j92aAcC2oDcXR+eF5wIAYN9TzcL3xk/PFPB6hBNkl8fmhFcnrm+vx76nmoU/S6ezv5PkEBgcyKRq3uXr9qKTbUEPvMwFpBoTOLznQeEQUNn69noc3vMgUh72QtTx7F9JYgi4qtxd/Y2wLejNxdF59P/GWwiITgqqqjzp5+XgP3FhWtuzfyUJIXB8IJMadvODVrHofuVaby5/BtxAVEhTo4XX9q5ASvD5gUBpou1g/41AV7+V2409FW3H6ZkCRuyyPsjPWt9ejxd2rEZXm3g1k58p4Nnvj2t5I9RSkvUrkagLfR+ISQBrl5v5ryQaAFsAnPY2LnNt3JDE/mcaPb02P1PAvqPiE26y+Sn7AeBbr/0x0onNqEQQAi/VmvmvJPS3Y7cFjwsOyHi//K23SwHg7pyAaHdApifTKV8H/4kL07E8+IHQLwdqtv2cvPwNZcEJQWFH3v5YeG1AWWlO4AFkFJ8XaGpMILNjNV7Y8YDng//Dj+Zx+E25C5zCFmII7BJ9gfDfkt0WPFTr5+heL74+I7R7sNMT6ZU4urdVyf0E050NOLq31VOfv9Kf3J9ExsNKQd2EEAKDS633X47QHEBZby7fAmAYQIfwiw3X1ZrAD77U6GlSsNKpoVs4+s6U9PXxbS112LN1le8D3+nU0C3k+m8E+p4qCnBOoLNypx+3PAUAAPTm8rsAHPP0YsNte7gO3/xcMGdxWUEQ1oFfiSHg2g8HMilPbXrPAQCwLehHkCEAlA6Wk0P50Pvm6c4Gz0t6vWAI1CTU9nPyGwBbwLagZ9v+wsI3/ybYA2l8Yh7nL93GuUu3AwuDdGcDNj20Ap99aIXwjTxBYAgs62sDmZTnOTlfAQAAvbl8H4Cdvt7EYH/158A/bFvheda8luGrsxgZm8PlsTmMT9zB2M2ld9Vta6lD+wNJtLXUYX17Pbra65V5ihFDoKrRgUxqrZ/PC+KRrFkA2wGI3+lB+K//A0aufYRDf3d/KCHQs7ZBmYPYj/IlR9xDYH6utNGLyxDY5ffzfH/j2Bb073cf1uHLL09hJMJn3sny4UfeN8t4Ir2SLcK7PLX9nII65RwCny3oywfT9fjKyx/hxAU1970LwokL09jxvTFf25kxBBbsCuJzfM8BlLEtGIzCnVk82lVExsdqOtXkZwrIvPbHRZOSmR2rfXUSDJ8TEFrvv5zAAgBgWzAohTuzWJGcwZ6tq/DMI02yh+PLiQvTOPrOVNW7+hgC7jhCwFfbzynoANgCtgUDUbgzi/m5W0h3NmD31lXaTeQNX53FsXemarYiGQLuVITA7moP+PAq0AAA2BYMUjkEAGgTBG4P/EoMAXeS9SvfO/3i6u4g3zOINqBTFmwLBqJc9s3P3cLQlVkMvXJd2SDwcuCXlQ9eryFgTIvw4/w3gGAnQAOvAACgN5fPAvhO4G9sqMpKoKytpQ5ffLRJ2uo84O6qw5/8ajqQexFYCSzNgvWLwQOf/Fzg7xtSAPBuwYBVC4Gy9e31eDKdiiQMygf9yaF8KLsUMQSqs6zkusH97b8L/H3DCACAbcEwLBcCZW0tdUh3Niws5V3fVu+5nZifKeDy+BxGxuYwdGV2YTlx2BgCi1mwvjt44JPfDuW9wwoAgG3BMLgJAaemxsTCNuNd7fVL7ipU3hwU8Lb3f5D8hsCJC9Nx2VloyrKSawf3t4fybPgwJgErZcG2YKAqJwbdmp4pLEzO6bLNtt+Jwa74PFfhG2Ed/EBwS4Gr4iai4UjUNSBZH839+DKp9hRkCc6fPbDmx2F+QBRrTbPgJqKBYwgYoFgM/ZF8oQcA7xYMD0NgaSff1Ts0LFivnv3nP/3vsD8nqrtNeLdgSBgC9zrYf1P4seWKmYKVeDGKD4okAOwbF7JRfJaJGAJ3xeDghwXrR2H0/KuJ7H5T+waGwag+zzQMgXgc/AD+ACvx/ag+LOw2oFMWbAuGxkuLUEe5/huYniksavWdfPdWHA5+ANgfZtvPKdSFQNXwbsHweVksREo4f/bAmk1RfqCMLWeyYFswVKZcDsROBG0/p8gDgG3BaDAE9BJV289J1qZzbAtGgCGgjSlYia/K+GApAWC3BT09y4zEMATUZ7f9Ipv4W/TZUU8CVuLdgtHhxKCy/nD2wJpPyfpw2ftOswqICCsBZX1d5odLDYCBTGoYvFswMgwB5Zw/e2DNCZkDkF0BAKUqgG3BiDAE1GFZyedkj0F6ANgTgmwLRoghIJ8F69XB/e3vyh6H9AAAAPsxR2wLRoghIJW0tp+TEgFg44RgxBgCcshs+zlJbQM6sS0oB1uEkZLa9nNSqQIAWAVIwUogQsXiHtlDqKRUALAtKA9DIBLnZaz3X45SAWBjW1AShkC4LCup3G3wygUA24JyMQTCYcE6EtU2XyKUCwCAbUHZGAKBm4KV+CfZg6hGyQCwcUJQIoZAoA6o0vZzUqoN6MS2oHxsEfqmVNvPSeUKAGAVIB0rAZ8Ua/s5KR0AbAuqgSHgmXJtPyelA8DGtqACGALiVGz7OSkfAGwLqoMh4J4F67sqtv2clA8AgG1BlTAEXJmK8uk+fmgRADZOCCqCIVDTN1Rt+zkp3QZ0YltQLWwRVvW/Zw+s+UvZg3BLpwoAYBWgFFYCVRSLX5M9BBFaBQDbguphCNxlwfqF6m0/J60CwMa2oGIYAjYrsU/2EERpFwBsC6rJ9BDQpe3npF0AAGwLqsrgENCm7eekZQDYOCGoIENDQJu2n5NWbUAntgXVZVCL8PzZA2s2yR6EVzpXAACrAGUZUwkUiy/JHoIfWgcA24Jqi3sIWLBe1a3t56R1ANjYFlRYjENgClbiRdmD8Ev7AGBbUH1xDAH76T7atf2ctA8AgG1BHcQsBP6ga9vPKRYBYOOEoOJiFAL7dW37OWndBnRiW1APmrcItW77OcWpAgCAXbIHQLVpXQlo3vZzilUADGRSVwH8UPY4qDYdQyAObT+nWAWALQu2BbWgWQhMwUp8VfYggha7ALDbglnZ4yB3dAkBu+0Xi4m/SrGaBKzUm8tfBdAhexzkjuITg0o/3ceP2FUAFXbJHgC5p3gl8HXZAwhLbCsAgG1BHSlYCcSq7ecU5woAYBWgHdUqActKPid7DGGKdQDYbcFY9W1NoEoI2Nt8vSt7HGGK9SVAWW8uPwygW/Y4SIzkywGt9vf3KtYVQIUt4NoA7UisBKYsK/m0jA+OmhEBYK8N2AKGgHYkhMCUZSUfi8Otvm4YEQDAwu5BW8AQ0E6EIVA++GN93V/JmAAAFoUA9w7QTAQhYNzBDxgWAMBCCPQAGJQ9FhITYgict6zkWtMOfsCQLsBSenP551G6b6BZ8lBIQJDdAQvWdwcPfPLbgbyZhoyrACoNZFKHUKoGuLOwRoKoBCxYr1pWcp3JBz9geAVQqTeXX4vStmK7wIpACx4qgSkL1s9hJV40ZZa/FgZAFb25/BYA21GqDnrAQFCWixA4b8G6WETxzNkDa05ENS5dMACIDGb0HACR6RgARAZjABAZjAFAZDAGAJHBGABEBmMAEBmMAUBkMAYAkcEYAEQGYwAQGYwBQGSw/wcBX0vxpnVzMgAAAABJRU5ErkJggg==;fontStyle=1;html=1;labelPosition=center;align=center;" parent="1" vertex="1">
          <mxGeometry x="691" y="270" width="40" height="40" as="geometry" />
        </mxCell>
        <mxCell id="fNX_a5Hz9HWH8XYPbjZu-43" style="edgeStyle=orthogonalEdgeStyle;rounded=0;orthogonalLoop=1;jettySize=auto;html=1;exitX=1;exitY=0.5;exitDx=0;exitDy=0;entryX=0;entryY=0.5;entryDx=0;entryDy=0;startArrow=classic;startFill=1;" parent="1" source="zvPZIyypiw4BT_DNb9Xp-26" target="fNX_a5Hz9HWH8XYPbjZu-19" edge="1">
          <mxGeometry relative="1" as="geometry" />
        </mxCell>
        <mxCell id="fNX_a5Hz9HWH8XYPbjZu-57" style="edgeStyle=orthogonalEdgeStyle;rounded=0;orthogonalLoop=1;jettySize=auto;html=1;exitX=0.75;exitY=0;exitDx=0;exitDy=0;entryX=0;entryY=0.5;entryDx=0;entryDy=0;" parent="1" source="zvPZIyypiw4BT_DNb9Xp-26" target="zvPZIyypiw4BT_DNb9Xp-15" edge="1">
          <mxGeometry relative="1" as="geometry" />
        </mxCell>
        <mxCell id="zvPZIyypiw4BT_DNb9Xp-26" value="&lt;b&gt;Cloud Function&lt;/b&gt;&lt;div&gt;(Convert&amp;nbsp;&lt;/div&gt;&lt;div&gt;Audio&amp;nbsp;&lt;span style=&quot;background-color: initial;&quot;&gt;to Text&lt;/span&gt;&lt;span style=&quot;background-color: initial;&quot;&gt;)&lt;/span&gt;&lt;/div&gt;" style="editableCssRules=.*;html=1;shape=image;verticalLabelPosition=bottom;labelBackgroundColor=none;verticalAlign=top;aspect=fixed;imageAspect=0;image=data:image/svg+xml,PHN2ZyB4bWxucz0iaHR0cDovL3d3dy53My5vcmcvMjAwMC9zdmciIHhtbG5zOnY9Imh0dHBzOi8vdmVjdGEuaW8vbmFubyIgd2lkdGg9IjIwIiBoZWlnaHQ9IjE5Ljk4OTk5OTc3MTExODE2NCIgdmlld0JveD0iMCAwIDIwIDE5Ljk4OTk5OTc3MTExODE2NCI+JiN4YTsJPHN0eWxlIHR5cGU9InRleHQvY3NzIj4mI3hhOwkuc3Qwe2ZpbGw6IzQyODVmNDt9JiN4YTsJLnN0MXtmaWxsOiM2NjlkZjY7fSYjeGE7CS5zdDJ7ZmlsbDojYWVjYmZhO30mI3hhOwk8L3N0eWxlPiYjeGE7CTxwYXRoIGNsYXNzPSJzdDEiIGQ9Ik0zIDMuOTlMMCA2LjQydjcuMTNsMyAyLjQ0eiIvPiYjeGE7CTxwYXRoIGNsYXNzPSJzdDAiIGQ9Ik0zIDMuOTlsLTMgNCAzLTJ6bS0zIDhsMyA0di0yeiIvPiYjeGE7CTxwYXRoIGNsYXNzPSJzdDIiIGQ9Ik0wIDE1Ljk5bDQgNCAyLTItNi02em0uMDEtOEw1Ljk5IDJsLTItMkwwIDMuOTl6Ii8+JiN4YTsJPHBhdGggY2xhc3M9InN0MSIgZD0iTTE3IDE2bDMtMi40MlY2LjQ0TDE3IDR6Ii8+JiN4YTsJPHBhdGggY2xhc3M9InN0MCIgZD0iTTE3IDE2bDMtNC0zIDJ6bTMtOGwtMy00djJ6Ii8+JiN4YTsJPGcgY2xhc3M9InN0MiI+JiN4YTsJCTxwYXRoIGQ9Ik0yMCA0bC00LTQtMiAyIDYgNnptLS4wMSA4bC01Ljk4IDUuOTkgMiAyTDIwIDE2eiIvPiYjeGE7CQk8Y2lyY2xlIGN4PSI2IiBjeT0iOS45OSIgcj0iMSIvPiYjeGE7CQk8Y2lyY2xlIGN4PSIxMCIgY3k9IjkuOTkiIHI9IjEiLz4mI3hhOwkJPGNpcmNsZSBjeD0iMTMuOTkiIGN5PSI5Ljk5IiByPSIxIi8+JiN4YTsJPC9nPiYjeGE7PC9zdmc+;" parent="1" vertex="1">
          <mxGeometry x="336" y="567.12" width="40" height="40" as="geometry" />
        </mxCell>
        <mxCell id="fNX_a5Hz9HWH8XYPbjZu-19" value="&lt;b&gt;API Endpoint&lt;/b&gt;&lt;div&gt;(&lt;span style=&quot;background-color: initial;&quot;&gt;Speech-To-Text v2&lt;/span&gt;&lt;/div&gt;&lt;div&gt;&lt;span style=&quot;background-color: initial;&quot;&gt;-&amp;nbsp;&lt;/span&gt;&lt;span style=&quot;background-color: initial;&quot;&gt;Chirp&lt;/span&gt;&lt;span style=&quot;background-color: initial;&quot;&gt;)&lt;/span&gt;&lt;/div&gt;" style="shape=image;imageAspect=0;aspect=fixed;verticalLabelPosition=bottom;verticalAlign=top;image=data:image/png,iVBORw0KGgoAAAANSUhEUgAAAgAAAAIACAMAAADDpiTIAAAAIVBMVEVMaXFChfNWkfVcl/dAhfVUkfU+hfU+ifVQkfVmnfdChfWOcGs1AAAACXRSTlMAVI/jq2Q4HDQSjka5AAAACXBIWXMAAAsTAAALEwEAmpwYAAAEc0lEQVR42u3S0RGDIBREUUFBk/4LTgeZ/QGiObeAN7Bztk2SJEmSJEmSJEmSJEmSJEmSJEmSJEmSJEmSJEmSJEmSJnbVuMtaD6y+4qq1ABAAAkAACAABIAAEgAAQAAJAAAgAASAABIAAEAACQAAIAAEgAASAABAAAkAACAABIAAEgAAQAAJAAAgAASAABIAAEAACQAAIAAEgAASAABAAAkAACAABIAAEgAAQAAJAAAgAATB/1rgGQFrLV10OIF91ByBtz58KAAAAAAAAAAAAAAAAAAAAAAAAAAAAAAAAAAAAAAAAAAAAAAAAAAAAAAAAAAAAAAAAAAAAAAAAAAAAAAAAAAAAAAAAAAAAAAAAAAAAAAAAAAAAAAAAAAAAAAAAAAAAAAAAAAAAAAAAAAAAAAAAAAAAAAAAAAAAAAAAAAAAAAAAAAAAAAAAAAAAAAAAAAAAAAAAAAAAAAAAAAAAAPCtVuNWA8hf2gBYO8AYAPf5PwAAAAAAAAAAAAAAAAAAAAAAAAAAAAAAAAAAAAAAAAAAAAAAAAAAAAAAAAAAAAAAAAAAAAAAAAAAAAAAAAAAAAAAAAAAAAAAAAAAAAAAAAAAAAAAAAAAAAAAAAAAAAAAAAAAAAAAAAAAAAAAAAAAAAAAAAAAAAAAAAAAAAAAAAAAAAAAAAAAAAAAAAAAAAAAAAAAAAAAAAAAAAAAAAAAAAAAAAAAAAAAAAAAAAAAAAAAAAAAAAAAAAAAAAAAAAAAAAAAAAAAAAAAAAAAAAAAAAAwtHfckR898qv50ZIfLU/8PwAAAAAAAAAAAAAAAAAAAAAAAAAAAAAAAAAAAAAAAAAAAAAAAAAAAAAAAAAAAAAAAAAAAAAAAAAAAAAAAAAAAAAAAAAAAAAAAAAAAAAAAAAAAAAAAAAAAAAAAAAAAAAAAAAAAAAAAAAAAAAAAAAAAAAAAAAAAAAAAAAAAAAAAAAAAAAAAAAAAAAAAAAAAAAAAAAAAAAAAAAAAAAAAAAAAAAAAAAAAAAAAAAAAAAAAAAAAAAAAAAAAAAAAAAAAAAAAAAAAAAAAAAAAAAAAAAAAABwPwC9xK0GkL+0A7C2MQCGBAAAAAAAAAAAAAAAAAAAAAAAAAAAAAAAAAAAAAAAAAAAAAAAAAAAAAAAAAAAAAAAAAAAAAAAAAAAAAAAAAAAAAAAAAAAAAAAAAAAAAAAAAAAAAAAAAAAAAAAAAAAAAAAAAAAAAAAAAAAAAAAAAAAAAAAAAAAAAAAAAAAAAAAAAAAAAAAAAAAAAAAAAAAAAAAAAAAAAAAAAAAAPwjgBLXAUjr+aqbHghAAAgAASAABIAAEAACQAAIAAEgAASAABAAAkAACAABIAAEgAAQAAJAAAgAASAABAAAAAAAAAAAAAAAAAAAAAAAAAAAAAAAAAAAAAAAAAAAAAAAAAACQAAIAAEgAASAABAAAkAACAABIAAEgAAQAAJAAOiXO0vcaS1JkiRJkiRJkiRJkiRJkiRJkiRJkiRJkiRJkiRJkiRJM/sAQCJf0YWBp/YAAAAASUVORK5CYII=;html=1;" parent="1" vertex="1">
          <mxGeometry x="493.5" y="567.12" width="40" height="40" as="geometry" />
        </mxCell>
        <mxCell id="fNX_a5Hz9HWH8XYPbjZu-32" style="edgeStyle=orthogonalEdgeStyle;rounded=0;orthogonalLoop=1;jettySize=auto;html=1;exitX=0.5;exitY=0;exitDx=0;exitDy=0;entryX=0;entryY=0.5;entryDx=0;entryDy=0;" parent="1" source="fNX_a5Hz9HWH8XYPbjZu-23" target="zvPZIyypiw4BT_DNb9Xp-19" edge="1">
          <mxGeometry relative="1" as="geometry" />
        </mxCell>
        <mxCell id="fNX_a5Hz9HWH8XYPbjZu-23" value="&lt;b&gt;Vertex AI LLM&lt;/b&gt;&lt;br&gt;(PaLM 2&amp;nbsp;&lt;div&gt;Text-Bison)&lt;/div&gt;" style="shape=image;imageAspect=0;aspect=fixed;verticalLabelPosition=bottom;verticalAlign=top;image=data:image/png,iVBORw0KGgoAAAANSUhEUgAAAgAAAAIACAMAAADDpiTIAAADAFBMVEVMaXFAhfNexv+uy/mTqf+ty/lAh/V5mP+xzftMaXFmnfWpyv+wzf+vy/lBhfOvy/llnfWuzPmuy/lAhfWuzPuuy/mty/muzPtal/Flnfeuy/tlnfVBhfVAhfWuy/lCh/ZmnvdlnfVBhfSuzPmuz/+vzf9BhPNBhfRlnfeuy/quy/muy/evy/tVk/9AhvVBhfdBhfSvy/llnfVAhvVBhvVmnvVlnfWty/tBhfVImf+ty/lBhfVKjvOuyvqvy/uvy/lBhfNmnfdAhfWuzPtQjfauy/lBhfWuy/tBhfSuy/tlnfdknfVknfVHhvNmnvdlnfVlnfeuy/lZmPRAhfRmnfevy/tnmP9mnfVNiu9BhfNAhfOty/tBhfWuy/pAhfOty/llnfZBhPNAhfSxy/mvy/uuyvm30P+ty/uvy/tlnfevy/tlnfetzPuuyvity/lAhfWvzv+uy/tlnfVlnfZlnfety/muy/muzPllnfWuy/tknPdAhfVBhPRjnPVBhPRknfWuy/tChfU/hvFlnfVBhvVWjf9lnfWvy/llnfeuy/uuy/tlnfeuy/llnfdBhfOuy/lBhfNAhfNBhfWvy/mvy/ljm/VChPRmnPdlnferyf+uy/lChfWuzPtAhfVlnfexzv9jnPhlnfWvy/lDhfRBhfVBhfWvy/tAhfSuzflknvVmnPmty/tAhfNChfOvy/tChfVlnfdAhfVlnfevy/tnnvVBhfNChfNAhfNlm/ZChfOuy/tChfNjnPVmnfavy/llnfVmnfdChfVkn/dDhvSty/tFiPSvzPtmnfVAhfOryfllnfauzPmvy/lknfdChfWty/lqoPavy/lChfNlnfVAg/NChfVmnfdonvZChfVEh/WtzfuvyfuWvflCg/Oty/lmm/Wvy/mtzfmtzftLjPWuzPlUk/Wbv/dgmfWVu/mLtfdGifVIifWXu/mvy/tChfVmnfdmnfWty/pChfNFiPVLjPVjnPdVk/apyPpdmPabv/lrofeKtPl4qPd+rPdQj/WTufldENaGAAAA7XRSTlMA/QL6BMk2AjYANgcO/fiR/RrsvTr18EcR0z/e7pXoGiEs9SwME0Dg75m4H20JSR+B96QxXjL7M+kGxNgLTuSNn5HTaQ/yxXXM30RugRVW9uS9Fmnr0QyHDtDl3GG0U4HzKdwlrFkKnqNgsHhDIjClFtn4vD6IXlbZph3xcU1ESaJQJMVMBlD7mKnVs4rOhoS2m2ViwWgtXKwYU3plqskQJMDLWZF1fTkoMCZwiYvhwemOKTYZybGvOLnOXBlx6cSv6zrjzWp54ToqjlCV5zZcnMc8p1iouNatp244+1bHNlxafKFfpWbxo9eRfrFVZ2n8AAAACXBIWXMAAAsTAAALEwEAmpwYAAAgAElEQVR42u2deXxURbbHJ53GWBIChCUhCYSEsCXsIGvYwhIEAsgSIAQhgKDsWwZkDTtBQMIqO/hAg8guKOACyiiyzgdxZt7wxM84ft5O6G6YUd84+j6gYLr73jpVdfve7lt1fv+mT+X2Pd++y6k6v/oNQSmt3+ApQABQCAAKAUAhACgEAIUAoBAAFAKAQgBQCAAKAUAhACgEAIUAoBAAFAKAQgBQCAAKAUAhACgEAIUAoBAAFAKAQgBQCAAKAUAhACgEAIUAoBAAFAKAQgBQCAAKAUAhACgEAIUAoBAAFAKAQgBQCAAKAUAhACgEAIUAoBAAFAKAQgBQCAAKAUAhACgEAIUAoGQFYPSG+qllLjxbcPAE5kE9AMp2KeN+rGGv78ZUqAXAtmFuL0VnOpU799e2n2qXMPd8xs55eaoBkFLf7acyk5TKfsMB7Ty/6uSXESoBsLuMW0M1JiuU/0ajPN7q0VwdAHYPcmsq+jNV0u/YH+bxVVSuMgCMcetoWqQil/+dHi0dcqgBwEG3rgrUAGCKR1uHlABgalV9ANxxKuR/u0dPLVQAoCMl/+6NCuT/YpguAHMbyw/A2GgaAO5a8j8ADvXo6wv5AZhFzb97tfQALKLk3xOWJz0A9ekAXJAegNM0ADz7pAdgFR2AFSmS5z8rjApAa4fsAFShA+CWvRj0pYeuzZIDsBvIv3ui5AAcAgDIlRyAqRAAMZID8A4AwFrJARgLASB7KagSPf8l1WV/BoAAeFJyALoDV4BOCIDKb4HWvwciABarCABgPwIgt+YBACxFAOTWNXr+w7oiAHIr4mMqAJUIAiC51lIBaIEAyA5AYjIl/3XbIACyA0CaUAC4SRAA6QFoqL8i5BRBAOQHgDRurZP/jK4IgAoAkIuajwElOYsJAqAEAOTieQ0AejQmCIAiAJDGR/zyPyWdIADKAEAcLbybA3ssCNKBIADBknPRzoRHN/9OdYJ2GAhAMC8Dec+tn7d+6eJgHgMCoLgQAAQAAUAAEAAEAAFAABAABAABQAAQAAQAAUAAEAAEAAFAABAABAABQAAQAPMUEYEAiALgjPv6pbYXLqRe2ZAWnHPXOLf6uh49jkzZfkNoNX/W+ikZUR5PVMaU3CwEgBuAtI4f/Bp0+7rluw04W3T3lDy2djqWyBu/+YuoUkbRUzYjAFwApKwO9/GZtthaxtfuPeotriV9Q6r7mIWFVU9HANgBmKRhNlfeQoM1h0Z3TwbHot68dqGyKNieAMRp2s2Ot8xicMgprXX955kX9j2RoGkReA0BYANgso7XYKpFDwKOddqNPcmMGcxL0I7PSUQAWADYelgvtqM1X2GfXmsfWwbTM/QcwnqkIwAMAGzUD95mxTegeH1WYnkO2VcSMiaBtgTgG0pwh7Hmf4H0HEp791mGGwDFLDg5UX4AVgAAtILev6fRog+a/wX20ww+RsGPIZ1o8UXyA1AVAADaPfAyLfjOMNOPP6KuMZOvrjSDEE9UV+kBGATYxUMX8UJ6fGWzj/8G3eUL3PLjLD3+pvQAvEBP4DToFYy+44x7hNnHT/d48pyHJncAo8gi6QHYQU/gFSC8GLiDpJp9/JDVK9To14MeflJ6ACqGG3KLbw8AYPpDQF2DTp/n6eGtpQeAjKfl7xnoKXoDAEA3sw8/2eCGD1H08Cj5ASimXQKuQ9FdAADCzT78MACAAUA8EO6RHwAyTj99Z8BK2jcAAFXNPvq5QAJbIACQtnbQy15TuA4cAwCwyuyjbwckcAECAEpvNs+9A45NAwAYY/bBnwISmIgAwNoWLv4O/wwdANNrwfvp+RtFEAAGVa6h8fi2gyn0Ch2AYrMPPc/gji8IwENN8pvTfYaxiHuLmv/b5h86vZJzDQFg1GWvWb3or5knctvSALBgQcBNWvqOEASAVc6Ygl9uBFXHX+eYx69MyX8ZCxaGOmiXgIsIAJcqxl3eNnESZ9b09x9vOtmKg26uX8xj2PURATB+6dBdE7bBmgNooZe87m0QACs0VedVMN+qA3hLZ78Xlg4vBCAASlullf9XLPv/Dk0C2DpDEIBAKNJ/XVDVWVYewE3/KYEpQwgCYJ3ae18Ewsdttfb/J3bymhYsyWDd8RMBCNRleNv4po/Sf3j1aOsPYPGhx2tDok4tYm7zRwACp7FxXfKvdHz9+dHBOoC8m02OVV87oE5DjhgEQHEhAAgAAoAAIAAIAAKAACAACAACgAAoC4BjcpfyhamF9Q/eciIA6gFQMf/X1eHRV4oRALUAiCzvvTC4XMFWBEAhAGr5z+hHT0QAlAEgRssmJDwTAVAEgBgdnyD7EZD4RKOlFxcjAHz6rGpQXd4CJWejKb/MB58/dTYdAWDW2GH6rb0VOceq3SruRHFZ8WPJTvroo6RsoXfYXC+niLlNhiAAjMqnrOsv5AHpeuHPfQXhZzq2EknhwpWzXQ8Vv3Ihbz9B3lBft8ecRggA24+2Cq2zh3lh/+5XvG4kZdrzXsA3xd+9e9f1SPGbuIpRZ7V8QtY6EAAGfU3t7RvHOEp7v+7S4VN5juJANZeP1iSxR+dq24QURSAAsKbRLX7YbuiZ5fxDD3PcBxbWc/lp5HLW6EVGrH5VB2ASYPDAUg5yFGjDw1xK6lXBpaEK77NFL07QS17YUgQA0l8AAL5mGOMVvcsH4zVguWb+XS7Xi0zhFKfAnHQEANAIAIAX4CFm6TsF72Y5hKSROvl39T3AEL6Ulr4mCACgK4adPqdS7Kbrs9xA1rh0tYbhQf4ILX0J6QgAXeMAANqCI9SnRJerBR/BJhdF8E0gz5hLHGAUWSK9UeSVOwavAHSrWfgOEhFPA2A2+Ca3nQ7An6B4wCo2IUJyAKBngAJogE+o4U3Bp4CeLqpmGngEfDgvAN1EALPoDNmvAM8bfQt4jR4Pes2upAPQGYpvDdzDoR7xTgb3G7A7AGkG6wCRwJYzYCmxGh2AakB4G8gr+AlggBbGrIbtXwlcRbf6hSqBtwCAykAJbEkHoOUyenwW9BQP1YJiqU+BYYnSA/CJsR8wdAv5AIjf4wJUkx7fFQIA8gomX9CiTxPpAajdjZY/8DVuh0G7+AMQAEAtyAEBABrFNadF15EfAN1CLttbHARAU5MBAAs5T4BfgfIYeIooAMBY/fnAaHhF0CwAgBpAfE2Dt4AAABCr6zif0FgFAEixXi03nGE674TBSqITeAic7jQdAJI3V3wyUQYAdFcFd2G5foQb23WMrKEDsIaYDwBppLnxUNh6oggApL3WsrDwBkyxbekAgAuLL9EBuGQFAKS5xt5jyV8SZQAgJ4b5TQl8EMcWepCa/yopUPxHdAC+sgQAkviOb1yPPKIQACQlv6n3jrHjWJf00ReVwvPBDlop8C54BwgQAITcOOm10ch6B1EKAEK2vvJrf2CN8hxObx1pVYBJcHwf2gWgj2UAEPLGvoxfPIaLGgUr/cE1iPhsR8eXxhSW79KK6+tHdtAHgMUu2rFXP/8fOiwEgBCSvrnOguZdSTBlQ4eQGN0XgTNM+07UPKqX/5FvEmsBCAHZ0SJG7zmwBmNn2UydWkDL+QQBsIXKa88DMTcGbJmuWQPaQhAAm+gT/1LSnTNp7PEfXfXP/8CZBAGwjeJ8JxTK1U/hia85wzf/M+ZEIAA2krPB4dLpH8/dH7x8V+n072LuC0MAQkWOieUHPXwfiE7NrCiylvZA7yUPW0RGLul9gD0KAQip60DF0ZMijQzQf8+e/nwRCIDiQgAQAAQAAUAAEAAEAAFAABAABMCIdp9oP+ty5amKAuC42OR03bmehHan9m9WEYBaqwf9UscbdqWyegCkzxtVKmroWadiAJxI9W7pi1EMgEUf+8QNfUMlAJzl/XzeClMUAsDRRGNV+AB1AKj9rMZ0/rRiZQBoeErTHmZfhCIAVNS2i46erAgADr0G4X1qAFD2tt6SrjQ1AGiiG5yrBAAFuot6b/M9CjsnX8/MH3EwZqq9ALihH5zcWAEALlPW9R/kGCeuIPqXxWDuM5kiDDhn9j63Jj5+zbneMx0WAhCRYcRkzP4AOGlu0VV3sw5zy/s+UmU170tE/8FXf3WLvzq4v2UAPEcN3yw9APQG/08YHyM6ljNiFk7Isgl9fVoCJiyzCIBK1PDq0gOQSgVgGtMYuzdq9YU+z34QsTM0uoL6WwJAFt1mrLXsRpEpQH//ZwxjRF7Qjt3AehBJ8Xc1+gLij1sBwE0gvrnkAMQADh8MJhEOvYtIOOOUwnv9tDuDjr5pAQCHgPhcyQHIdBt0+KANUYPpZaDhLl2n4GzzAXgHiH9LcgDKAwAMB0dIq2IIH6pZ7ErzATgCxBdJDoBxu3jaCOEMPgNPVdAHoMLTpgPQHYjvpDgAz0ID1A43uOvYyzSDiHNgeDKQQMjpBXAbt3w+wGoAVgMAjIEGaED3GgYdAmoaswkkHwMJhMx+i4D4eZID0AUAYDU0wHCDu45NoAMwwVgdx5MAxc8DAGgkOQBPAgCA1ZxoevzrUPxeOgAzoPi19PyBbs/N6fFRXSUHwFmVmr9yW4H4qQZ3HXOMpANQD/oCdeh7/oBXcEddarzlduGWl4LHGXsGrGXwIfI9yCv4bWCACGoCw+D53CZUgs5KDwDd7HeWsXC3+zZUBYYAALcQpt7Ep8AnIIv2HjHKKT0A1Ke4VeD3f9IgAE9DAICVgGWjKHdwlgUdtEuA9Xax1gNQHG5k52CjAByHAIDnA77Uzx/L7tFkmf7GYTuJAgCQb4z4PBoFIBsCgGE6oLpe/rq3YToBiTk68UPTlQBAdz4g1Wk+AKQfPf+fsrzJ6NQC6mYxnoAntDcMyAnCfhFBAcBZqP0Az7KqyzAAn9MBaMbyBbqu09zzcTHzGbimtfvgyUSiCADEka81k8f0AGwYgC10APqwfYG3/PO3jqeEk+g/JVDUkCgDACExvr0hNa6zBRoGILsetQ7EmoUFQ31KwAM413J96b1zUPc6wUlE0JpDyzYojUCNr1m9vgwDQAbTAOjN/AUiWpQy/B+1nb+CG9FoyqMbQd3qFwlRDABCSOVXNn7woCPsdscY9vKHcQBij+rn/2oszxdYPKCo0tCM7p32Nxe0+3csbpS7vsWCxiSICrZDyG7O0pdxAGg7RvQhysluFjEBAED/JrCSIAAqABBxTmc5kBMBUAIA0kazGNCsDUEA1ACAON7v65v+vr0IQQBUAYCQPa96Lwd+tSZBAFQCgJDjlz593BR26TghCIBiADxYIbz8/d6931++hygspQF48EZAFJfqABAEAAFAABAABAABQAAQAATAatUubvXZVNsCsHhA0ZGhGSd3NlnQBgHg1+4d42v83NGberCi/QBYtv7n1d0lD9cD7ROY01d7v4CKV0obfYS/UGwzABZ5d4iVRB0bwjeA4vsFNOjm6+3xitNGAPgvCi3xtMvjAkjp/QLKanWIpu62DQDay8ITFrADpPZ+ASlttU0iK9oEAL3GkChWAlTfL6BQJ3lnxtoDAN3WsAS2R0HV9wt4RTd7L9kCgLP6zaHdmZYHK75fQGVK+v5iAwCGtDbo86n6fgGvUdLXoazVAGRzd3Rs9xgzeFB9v4AYY1bBAQSg/4ufx490uaZ/+odeHEtC6BYxnkXgAKrvF1BIzd8FywCoubJlaa/4+axxdJMozxfgAIrvF1C2KT2Bk6wBIHulr2HsjDlskYBNXAL0Kqf6fgFxQAI3WALA8Wr+bQEDFzKFni4xZhWr+n4BfwYSWN4KAA5ot4i/yBJbF0jgUiBe9f0COgIJHG8BAG/q9Ae3ZOkNTTaYQNX3C4DcwjeaD0B2vF5zaF+GLUPCgARCFX3cL8AYAEadQgkhnfXbw5fAj2BzgQS2AOJV3y/A6C2gNhAPV5OfpmwY4doEhrcDEghZvai+X4DRh0BSw6BbOGlGs4iZDYZD93DcL8Dc10Ayhh4fA9b/+lJdwnpC8YDf/yiD8dLvF1C2Cj2B4AbiG6jhVcAZ5U10m7jfQ/F5Bq/gqu8XAJSCXwPjU7oZ2zOoGR0A+B5w0lgdR/n9AibeMbhvZD4lfEUtMHw24BUM+oRRJ3Mqwcev+n4BpIyh6WBCUjrox9eHwysAADwFDRBBuQSEXYMPQPn9Ak6UM7Bj0AP9Vjc8eisc7TIKAGmebOwdTvX9AihLwl5gG0DPbTx8IrECAP2bwBGmLeiV3y9A9znwwli2eOdw4QeIgACg9xsexWgXr/x+ASm3xZeFP9TYF7R+/zuIVQBoEzCU2e5d9f0CyFitak5bni7Rg377znRg3Ds+IACQ5xL8i/gcP1/V9wsgpIHv9oFNR/A9/6bV93qWrJLPajceGABIVlGU989/AdfhK79fAKlY3qs5tGA09wiT6z/eRHTa61uZwwIEACGNmzzu7py7sxG3X7jq+wUQErmh8OeJnejhDaYKjeCodf311aszt6XxBAUMgAcMPLf/rWNNct8QsgfA/QIeeARwG0QYViABMCrcLyAICiUAQkEIAAKAACAACAACgAAgAAgAAoAAIAAIAAKAACAACAACgAAgAAgAAoAAIAAhq9GXG2RmboiLDBYAXevk7t8/4LnFCEAwdKv+oz7RFWUO1rYegKx5Jx94BZSUeDw51Z9AACzWkxu9VpR1y0+xFoAhh5K9vMKPXEMALJRztV93yeFbVgJw0W9ld9hbDgTAT2XjMlePK8jvUjmwHU8p4zVWFTf9xjoAbmo1B60LcGNv0pYJnS9NeDHJYVsAYlIfmwJGF9wK3LiRgzT7Cu5kWgWATo//0NjAfcenV/Z7dERHmz1lSwBifNI0fHKABnYM12stu24NAEv1jKKOBGrzqKRz3ge1913bATA23+8uvWJEYG4E+v3hVYqtACBvrskeb45eLX2PqkLnZfYCoPYZTQuvigEYenK4uMdYIABwUMx+wwLh8/neDE0Ds652AiBSxwSgRnvjY6casggyDsBSmr/DOuPfr+dV7QNbE2sfABwbdTO02uhtYLJBm0DDABwx1e592SVdB4sZ9gGAZuRUZpKxsTsaNJkyCsBiusnTIWPfbs4SyqEttwsAzmdoKep23dDg09zGdpwwCgBg89bO0JdbXo9qYLXMJgC0B7wAC8aKj70VGLvQbAB2Aj5/WeLfrWHnu/Rjm28TACA/YPcq8ZLARGDoQWYDkGHQKlZfWpsYeKuZPQBw1IAAcFfZITr4dWDkaLMBSAAAEPZ529QXOjRXvWW2ACDNzaAxtcUG7wKMG242AFElxuzidZT9uYtBx20BQGUWANyHKwsNvgG6thgF4Csg3uiGEdp6Kp4l/66FtgDgeSYA3OGfiExzXYa4ggaYDpzjJCD+YwCARQJfKmJCS6b8uzZF2AGAWW5GiVSGDW8YcRU4x+8B8ZU8xjaN0lD/P7Cl33V3ky2uABNZAXB/EMM9uLMqfch8aIAP6ee4L3RZAjZ9SuC/rPXs52LVi7YAYDIzAO5y+dyV4eH0EUGz0M70U7wXil9AB+Ad7trv4ArM+TejFmgCAM5u7ATwV4b/Qh2uAwjUfPop7g1+uxzqawCv2e+cD10cmmMLAKAfqfcynqrP8w1etgNtuK/hX9xA6imG9w2j2r1/zLkkhF779VU/m1QCG7i5VH9swEaP3g3HD6adYoYZt9iEgFUBGq50cckmlUCSEs1HAF9l2HlGfySWAmP2UcopnskwwHr9/PfgegQ8voYv/66PbAIAxRBeW00P8ow+SZevAqb4XkZ/YlN0XwG4eoS2jOTM/xpiFwBqH+YkwF3I094VF27Ibj7iZb0z/CnbopuG2ps/lkTxTASx1X7NrgOatSQsbgUvAc/wVIaf1ySA2W48W2fabeQBxgGyhmoBkPwcx1f4avZd3vz/ntgHAPI1LwDu8EyO4SdqTDiOK8scPkeTgHozmQcY8if//NflWBDqeL8l9+8/PtZOAJBMbgK4KsNTC3yXm/6W5+iyz2mst0niGSHX1/G/E8dKkP4vc//8Xf32EFsBQLqEcxPQYSLH+JNfavpr5LDMFL6jc27yeRdoeSmbb4Qh+0eV2u5xCs9iUI7ar+n5N7Ez6MQw/otAeZ7KcOSsK88Oi+6waswnJwQOL7t3qYpQ39+/yT+C44nt72TknB9VqfqXPGv2nb35L/+uGe8R2wFAIgv5CTC6ZphHbRZe2tuv7/Sju1b2ybbuv87Zy5/+lr0jiA0BIOS3VbgJqDqLSK3lA/lv/59+ZOIBmdse/tkq/ouAkTXDoa5lnfl//q5zscS2AJCUAn4CVtWSNf9vruFP//Re9vUH+Pk20I2bgCoH5cw/d+33wdu/2a5l5lvEFJ/hvwgU7pYv/dnNBC7/r8YS2wNAypbnJ+CZW7Ll/+nZ/Onv28v847LEJOpyNH9leIRDpvQ7ek3nz/8fk4gkAJC0tvwXgdSt8uS//8sCl/9mlmwlapFNnHNEOW4CasTIkv+ZArXfen2sOTbLfAIn1jC5Mhy6l3+R2u+uPUQyAMjUVH4Cbk+yf/5Far+uzm2IdABo7fmuQGV4/kD+9A9caN3xWWoVG9eB/yJQv6yd079ssMDPf+/bEZICQGoP5yfgwmj75r/mEv70Vxhs6Quw1WbRArcBg6ZCNMUe6NnzgHnFtj71+PN/tWcEkRkA0mqawARhigkH0mZ5s1/ezvo1m2+G/VJDkam/GW9bnA/r7eIjX+InYNrkgKf/fa938369Ao5AUrXQWvkRMgAIrRNpGuAJQv/KfLWnA/sftvR1hdbKjxACgBQP4r8IjK8dwAPoo5GdvlsC+A+6fn431FZ+hBIAZKzABOHhuID9+wnaj98TAvYPGC1/LJ/6CxkACNlWlZuAQNnNkz56pdkXA3MH1rB7hzX7AFEKAJJ229zWEX0d0L07Tw/IcwCz5Y/X1F82UQwA4sznJyA6AHbzTsrCvGoBuMb0vMqf/pFbgpaGYO4a1j5aYILQcGV4E82Gy7ALk7N3Bf78r9lDlASApG20vjIcQX0+izf4FDBnSciu/AhFAIhzxAqrK8M96cmYaQiu5fVCd+VHSAJAyESBCUJDrSOALU9nA5cAodrvrppEaQDIVIEJQgN28+SP9HxUEx/5uEDt12XabmC2AUBoglC8MtwGeEVvKbwUR6T2e3Rh0M9+KOwdLNJILloZ3gPlRPCKLGD5Y2bTt70AEGokF7SbPwAlRawg91W8yNRfKLQ+hMju4QIThGKtI6YAIFT7/XRmSJz5UNk+fvI0ayrDNU2w4xWq/QZl6i+EARBqJI8WsJsHWrSmm2r3/uvlf0KodL6FDABCjeQClWGgRX+XJbXf+HdD5qyHEABCjeSv8baOXKLvyTGYt/b7ocDl/9VYggBoSaSRnNdu/l1je0b5SKT2G6SVH3YAQKiRnLcyvCZwfsxCtV9Lmr5tC4BQIzlfZbhPwPZkOS5g+RPcqT8bACDUSM5nKjTD0H4RpWq/I/kXfo7sE2rnO+QAEGskH8NhKjRHd8lOPY46sFDtd9ceggDAEmkk56gMR3ykUwtoyTE1I1L7tbDp294AEEfmClMrw300X91bsl+ehSx/Bs4PxXMdkgCINZJzVIYXajTtD+zJXvsVsfzZ+zZBANgl0kjOYSo0x698/wf2SQARy5/gr/ywGQBC60R4TIUWei3f/JD99i9U+z3aM1RPc+gCQFoJrBPhsZs/3nvGwzvBwL29j5tc+53xNkEA+CXSSM5XGY7IrlmTryVnuYDlTxCavuUAQGidiKl280K132A0fcsCgFAjuXl280K133OxBAEQl0gjuVl28yJ276E19WdDAIQaybkqw6wSsnsPVtO3TAAINZIH3m7+6dkCnh9Ba/qWCgChdSIBtpsXqv0GselbLgDEGsmfDaDdvFDtt1oSQQACdhtoa2plGJBQ7TfUVn7YGwChdSIBspsXsnuv18cmJ9YuAIg1kgfCbl7I7j3YTd8yAiC0TsS43byI3XvITv3ZGwCxCUJjlWGhrT5DoOlbUgDIiWF3LK0Mi2z1GRJN37ICINRILl4ZFqn9hkbTt7QAiE0QFkaK/Ceh2m+/mTY7n7YDQGjDAZHKsMhWn6E+9ScFAEKN5PymQiKWP6HT9C01AGK3AT5Toa6vCvz8Q6jpW3IASPEZ/rcBHrv5d0XaPl6NJQiAVRKZIGS2mxey/An5lR9yASDWSL6RqXVEyPLnj0kEAbBWIhOELHbzInbvdlj5IR0AghOEgKmQUNuHLVZ+yAeAWCP5Y7v52BvrDxXtPH16Z9Gh9TcePb+JbPV5NwSbvhUBgExN5X8beGA371hwbGiYp5TChh5b4BDb6jMkm75VAUBowwH3//53jkdDOcdEar+h2fStDAACjeTfuzx6Krn/nbwrP2QFgLOR/Fv99D/Uj3+TdeWHtABwrRP5530PoHt/l3Tlh8QAMDeSQz//n3Wf9SIQwk3figHA2Ej+/Y8eJt377i7Tyo8IggCEjBgmCL+/7/GwEmD3pm/1ACCfQY3kP93zsOs7+VZ+yA4A1EjO/vt/+EL4nZRTf1IDQMj1boHKv8dz72+2bvpWEwAyWn/Dgb97OHVfxqk/2QHQXyfyf54SXgJ+1Lv8b5LqlMkFgF4j+U/c6dd9EKyWRBCAUJbmOpEfBfLvuWfjpm+FASDOfN91Ind+0PmJ//Bf//nvC+ev/2s77b/7F4XrLZfudMkHACExPutEvtV6A7j/Q9WOj9aGkMS1ySyXgCU1CQJgB/k0kv9TI7mubwv7lw7JmgJfAgYvIwiAPeT4pPQEof8F4N4/uvktD20RRb8EyDD1pwwApXckv/MP/8T+VFVjg5EFybQXAXs1fSMApPb4RwT4zwH/o+kJrZClYX61gLuPu/6cBAGwmXY0/fkR0G8S6Af3n7Uj1vpNCdi16RsBII8byX/y+1l/m6r3BpmhfQ94OZYgAHZUygtut9uvCPCT+4RewCKt9wBJVn6oCAAhG6q4v/O9ALiH6789tPOfEor/SjxQJBMAAALtSURBVOozJDkApHiQ70vgP92X9T++3e9F8NVYggDYWf19r+rfh1Mcgzb7frqX7OdHegCa+17U3RtpFaS5Ph9vjgDYXHV8H+vc42gfP+nz8ToIgM211HcSwJ1P+/g6n48vRQBsrpt+AGTSPv6Fz8dvIgA2l++r/d/oV4B3fD6+CAGwuRb4PgOUK6B9vDs+A0ima75v9tS3gIgEn49fQwBsrkTfN/t/o9UB3vD9dBYCYHf5/KZLfqBVAn3nAxMIAmB3+b7Z3/92vO5n/eYCTiIAtld1j99kQCu9z+b6fnYfAmB7Pee3HvhbvenAhnU9qr0FKgBAlt9Cr/9wN9D+6CHfT4Z1RQDsr0p+awJ3hWsuCTnr98HTBAGwv/xu7PdKmh3WWBX8O//GgBYIgAQaotH189dnffsCHP/q7yCSnI4AyKB9/gYg93p0Lu+1hcjy8xoNxMcIAiCDGkdp9P3dWzd4W9qjX//vPvbc8wcgKhEBkLQU8PAq4Ek49T+5m/5l+19PJns0DaSqEwRAkjfB83peUCUPUn9P2z7kfBYCIIvWixhE5BIEQBZFnOb3iDntQADkASArhzf/rRMJAiCR6kTx5T/qBkEApNLNMC4AWhAEQDLN48n/AIIASKdc5rtAmDr5VwkAsoiRgORFBAGQUnkZLPlvt5kgAJIqvROc/6J0ggDIqxvARaDdAsVOiGoAkDbrR+mnf9R6J0EAZJfz7BHt9B8561TvbCgIACFk8fbuUd6zA1HdtzdW8lSoCcCD58FG+4uOtMtJSMhpd6Rof6N0Vc+DsgCgEAAUAoBCABAAFAKAQgBQCAAKAUAhACgEAIUAoBAAFAKAQgBQCAAKAUAhACgEAIUAoBAAFAKAQgBQCAAKAUAhACgEAIUAoBAAFAKAQgBQCAAKAUAhACgEAIUAoBAAFAKAQgBQCAAKAUAhACgEAIUAoBAAFAKAQgBQCAAKAUAhACgEAIUAoBAAFAKAQgBQCAAKAUAhAChT9f8AEQ77cB4qLAAAAABJRU5ErkJggg==;html=1;" parent="1" vertex="1">
          <mxGeometry x="493.5" y="449" width="40" height="40" as="geometry" />
        </mxCell>
        <mxCell id="fNX_a5Hz9HWH8XYPbjZu-34" style="edgeStyle=orthogonalEdgeStyle;rounded=0;orthogonalLoop=1;jettySize=auto;html=1;exitX=0.5;exitY=0;exitDx=0;exitDy=0;entryX=0;entryY=0.5;entryDx=0;entryDy=0;" parent="1" source="fNX_a5Hz9HWH8XYPbjZu-25" target="zvPZIyypiw4BT_DNb9Xp-22" edge="1">
          <mxGeometry relative="1" as="geometry" />
        </mxCell>
        <mxCell id="fNX_a5Hz9HWH8XYPbjZu-25" value="&lt;b&gt;Vertex AI LLM&lt;/b&gt;&lt;br&gt;(PaLM 2&amp;nbsp;&lt;div&gt;Text-Bison)&lt;/div&gt;" style="shape=image;imageAspect=0;aspect=fixed;verticalLabelPosition=bottom;verticalAlign=top;image=data:image/png,iVBORw0KGgoAAAANSUhEUgAAAgAAAAIACAMAAADDpiTIAAADAFBMVEVMaXFAhfNexv+uy/mTqf+ty/lAh/V5mP+xzftMaXFmnfWpyv+wzf+vy/lBhfOvy/llnfWuzPmuy/lAhfWuzPuuy/mty/muzPtal/Flnfeuy/tlnfVBhfVAhfWuy/lCh/ZmnvdlnfVBhfSuzPmuz/+vzf9BhPNBhfRlnfeuy/quy/muy/evy/tVk/9AhvVBhfdBhfSvy/llnfVAhvVBhvVmnvVlnfWty/tBhfVImf+ty/lBhfVKjvOuyvqvy/uvy/lBhfNmnfdAhfWuzPtQjfauy/lBhfWuy/tBhfSuy/tlnfdknfVknfVHhvNmnvdlnfVlnfeuy/lZmPRAhfRmnfevy/tnmP9mnfVNiu9BhfNAhfOty/tBhfWuy/pAhfOty/llnfZBhPNAhfSxy/mvy/uuyvm30P+ty/uvy/tlnfevy/tlnfetzPuuyvity/lAhfWvzv+uy/tlnfVlnfZlnfety/muy/muzPllnfWuy/tknPdAhfVBhPRjnPVBhPRknfWuy/tChfU/hvFlnfVBhvVWjf9lnfWvy/llnfeuy/uuy/tlnfeuy/llnfdBhfOuy/lBhfNAhfNBhfWvy/mvy/ljm/VChPRmnPdlnferyf+uy/lChfWuzPtAhfVlnfexzv9jnPhlnfWvy/lDhfRBhfVBhfWvy/tAhfSuzflknvVmnPmty/tAhfNChfOvy/tChfVlnfdAhfVlnfevy/tnnvVBhfNChfNAhfNlm/ZChfOuy/tChfNjnPVmnfavy/llnfVmnfdChfVkn/dDhvSty/tFiPSvzPtmnfVAhfOryfllnfauzPmvy/lknfdChfWty/lqoPavy/lChfNlnfVAg/NChfVmnfdonvZChfVEh/WtzfuvyfuWvflCg/Oty/lmm/Wvy/mtzfmtzftLjPWuzPlUk/Wbv/dgmfWVu/mLtfdGifVIifWXu/mvy/tChfVmnfdmnfWty/pChfNFiPVLjPVjnPdVk/apyPpdmPabv/lrofeKtPl4qPd+rPdQj/WTufldENaGAAAA7XRSTlMA/QL6BMk2AjYANgcO/fiR/RrsvTr18EcR0z/e7pXoGiEs9SwME0Dg75m4H20JSR+B96QxXjL7M+kGxNgLTuSNn5HTaQ/yxXXM30RugRVW9uS9Fmnr0QyHDtDl3GG0U4HzKdwlrFkKnqNgsHhDIjClFtn4vD6IXlbZph3xcU1ESaJQJMVMBlD7mKnVs4rOhoS2m2ViwWgtXKwYU3plqskQJMDLWZF1fTkoMCZwiYvhwemOKTYZybGvOLnOXBlx6cSv6zrjzWp54ToqjlCV5zZcnMc8p1iouNatp244+1bHNlxafKFfpWbxo9eRfrFVZ2n8AAAACXBIWXMAAAsTAAALEwEAmpwYAAAgAElEQVR42u2deXxURbbHJ53GWBIChCUhCYSEsCXsIGvYwhIEAsgSIAQhgKDsWwZkDTtBQMIqO/hAg8guKOACyiiyzgdxZt7wxM84ft5O6G6YUd84+j6gYLr73jpVdfve7lt1fv+mT+X2Pd++y6k6v/oNQSmt3+ApQABQCAAKAUAhACgEAIUAoBAAFAKAQgBQCAAKAUAhACgEAIUAoBAAFAKAQgBQCAAKAUAhACgEAIUAoBAAFAKAQgBQCAAKAUAhACgEAIUAoBAAFAKAQgBQCAAKAUAhACgEAIUAoBAAFAKAQgBQCAAKAUAhACgEAIUAoBAAFAKAQgBQCAAKAUAhACgEAIUAoGQFYPSG+qllLjxbcPAE5kE9AMp2KeN+rGGv78ZUqAXAtmFuL0VnOpU799e2n2qXMPd8xs55eaoBkFLf7acyk5TKfsMB7Ty/6uSXESoBsLuMW0M1JiuU/0ajPN7q0VwdAHYPcmsq+jNV0u/YH+bxVVSuMgCMcetoWqQil/+dHi0dcqgBwEG3rgrUAGCKR1uHlABgalV9ANxxKuR/u0dPLVQAoCMl/+6NCuT/YpguAHMbyw/A2GgaAO5a8j8ADvXo6wv5AZhFzb97tfQALKLk3xOWJz0A9ekAXJAegNM0ADz7pAdgFR2AFSmS5z8rjApAa4fsAFShA+CWvRj0pYeuzZIDsBvIv3ui5AAcAgDIlRyAqRAAMZID8A4AwFrJARgLASB7KagSPf8l1WV/BoAAeFJyALoDV4BOCIDKb4HWvwciABarCABgPwIgt+YBACxFAOTWNXr+w7oiAHIr4mMqAJUIAiC51lIBaIEAyA5AYjIl/3XbIACyA0CaUAC4SRAA6QFoqL8i5BRBAOQHgDRurZP/jK4IgAoAkIuajwElOYsJAqAEAOTieQ0AejQmCIAiAJDGR/zyPyWdIADKAEAcLbybA3ssCNKBIADBknPRzoRHN/9OdYJ2GAhAMC8Dec+tn7d+6eJgHgMCoLgQAAQAAUAAEAAEAAFAABAABAABQAAQAAQAAUAAEAAEAAFAABAABAABQAAQAPMUEYEAiALgjPv6pbYXLqRe2ZAWnHPXOLf6uh49jkzZfkNoNX/W+ikZUR5PVMaU3CwEgBuAtI4f/Bp0+7rluw04W3T3lDy2djqWyBu/+YuoUkbRUzYjAFwApKwO9/GZtthaxtfuPeotriV9Q6r7mIWFVU9HANgBmKRhNlfeQoM1h0Z3TwbHot68dqGyKNieAMRp2s2Ot8xicMgprXX955kX9j2RoGkReA0BYANgso7XYKpFDwKOddqNPcmMGcxL0I7PSUQAWADYelgvtqM1X2GfXmsfWwbTM/QcwnqkIwAMAGzUD95mxTegeH1WYnkO2VcSMiaBtgTgG0pwh7Hmf4H0HEp791mGGwDFLDg5UX4AVgAAtILev6fRog+a/wX20ww+RsGPIZ1o8UXyA1AVAADaPfAyLfjOMNOPP6KuMZOvrjSDEE9UV+kBGATYxUMX8UJ6fGWzj/8G3eUL3PLjLD3+pvQAvEBP4DToFYy+44x7hNnHT/d48pyHJncAo8gi6QHYQU/gFSC8GLiDpJp9/JDVK9To14MeflJ6ACqGG3KLbw8AYPpDQF2DTp/n6eGtpQeAjKfl7xnoKXoDAEA3sw8/2eCGD1H08Cj5ASimXQKuQ9FdAADCzT78MACAAUA8EO6RHwAyTj99Z8BK2jcAAFXNPvq5QAJbIACQtnbQy15TuA4cAwCwyuyjbwckcAECAEpvNs+9A45NAwAYY/bBnwISmIgAwNoWLv4O/wwdANNrwfvp+RtFEAAGVa6h8fi2gyn0Ch2AYrMPPc/gji8IwENN8pvTfYaxiHuLmv/b5h86vZJzDQFg1GWvWb3or5knctvSALBgQcBNWvqOEASAVc6Ygl9uBFXHX+eYx69MyX8ZCxaGOmiXgIsIAJcqxl3eNnESZ9b09x9vOtmKg26uX8xj2PURATB+6dBdE7bBmgNooZe87m0QACs0VedVMN+qA3hLZ78Xlg4vBCAASlullf9XLPv/Dk0C2DpDEIBAKNJ/XVDVWVYewE3/KYEpQwgCYJ3ae18Ewsdttfb/J3bymhYsyWDd8RMBCNRleNv4po/Sf3j1aOsPYPGhx2tDok4tYm7zRwACp7FxXfKvdHz9+dHBOoC8m02OVV87oE5DjhgEQHEhAAgAAoAAIAAIAAKAACAACAACgAAoC4BjcpfyhamF9Q/eciIA6gFQMf/X1eHRV4oRALUAiCzvvTC4XMFWBEAhAGr5z+hHT0QAlAEgRssmJDwTAVAEgBgdnyD7EZD4RKOlFxcjAHz6rGpQXd4CJWejKb/MB58/dTYdAWDW2GH6rb0VOceq3SruRHFZ8WPJTvroo6RsoXfYXC+niLlNhiAAjMqnrOsv5AHpeuHPfQXhZzq2EknhwpWzXQ8Vv3Ihbz9B3lBft8ecRggA24+2Cq2zh3lh/+5XvG4kZdrzXsA3xd+9e9f1SPGbuIpRZ7V8QtY6EAAGfU3t7RvHOEp7v+7S4VN5juJANZeP1iSxR+dq24QURSAAsKbRLX7YbuiZ5fxDD3PcBxbWc/lp5HLW6EVGrH5VB2ASYPDAUg5yFGjDw1xK6lXBpaEK77NFL07QS17YUgQA0l8AAL5mGOMVvcsH4zVguWb+XS7Xi0zhFKfAnHQEANAIAIAX4CFm6TsF72Y5hKSROvl39T3AEL6Ulr4mCACgK4adPqdS7Kbrs9xA1rh0tYbhQf4ILX0J6QgAXeMAANqCI9SnRJerBR/BJhdF8E0gz5hLHGAUWSK9UeSVOwavAHSrWfgOEhFPA2A2+Ca3nQ7An6B4wCo2IUJyAKBngAJogE+o4U3Bp4CeLqpmGngEfDgvAN1EALPoDNmvAM8bfQt4jR4Pes2upAPQGYpvDdzDoR7xTgb3G7A7AGkG6wCRwJYzYCmxGh2AakB4G8gr+AlggBbGrIbtXwlcRbf6hSqBtwCAykAJbEkHoOUyenwW9BQP1YJiqU+BYYnSA/CJsR8wdAv5AIjf4wJUkx7fFQIA8gomX9CiTxPpAajdjZY/8DVuh0G7+AMQAEAtyAEBABrFNadF15EfAN1CLttbHARAU5MBAAs5T4BfgfIYeIooAMBY/fnAaHhF0CwAgBpAfE2Dt4AAABCr6zif0FgFAEixXi03nGE674TBSqITeAic7jQdAJI3V3wyUQYAdFcFd2G5foQb23WMrKEDsIaYDwBppLnxUNh6oggApL3WsrDwBkyxbekAgAuLL9EBuGQFAKS5xt5jyV8SZQAgJ4b5TQl8EMcWepCa/yopUPxHdAC+sgQAkviOb1yPPKIQACQlv6n3jrHjWJf00ReVwvPBDlop8C54BwgQAITcOOm10ch6B1EKAEK2vvJrf2CN8hxObx1pVYBJcHwf2gWgj2UAEPLGvoxfPIaLGgUr/cE1iPhsR8eXxhSW79KK6+tHdtAHgMUu2rFXP/8fOiwEgBCSvrnOguZdSTBlQ4eQGN0XgTNM+07UPKqX/5FvEmsBCAHZ0SJG7zmwBmNn2UydWkDL+QQBsIXKa88DMTcGbJmuWQPaQhAAm+gT/1LSnTNp7PEfXfXP/8CZBAGwjeJ8JxTK1U/hia85wzf/M+ZEIAA2krPB4dLpH8/dH7x8V+n072LuC0MAQkWOieUHPXwfiE7NrCiylvZA7yUPW0RGLul9gD0KAQip60DF0ZMijQzQf8+e/nwRCIDiQgAQAAQAAUAAEAAEAAFAABAABMCIdp9oP+ty5amKAuC42OR03bmehHan9m9WEYBaqwf9UscbdqWyegCkzxtVKmroWadiAJxI9W7pi1EMgEUf+8QNfUMlAJzl/XzeClMUAsDRRGNV+AB1AKj9rMZ0/rRiZQBoeErTHmZfhCIAVNS2i46erAgADr0G4X1qAFD2tt6SrjQ1AGiiG5yrBAAFuot6b/M9CjsnX8/MH3EwZqq9ALihH5zcWAEALlPW9R/kGCeuIPqXxWDuM5kiDDhn9j63Jj5+zbneMx0WAhCRYcRkzP4AOGlu0VV3sw5zy/s+UmU170tE/8FXf3WLvzq4v2UAPEcN3yw9APQG/08YHyM6ljNiFk7Isgl9fVoCJiyzCIBK1PDq0gOQSgVgGtMYuzdq9YU+z34QsTM0uoL6WwJAFt1mrLXsRpEpQH//ZwxjRF7Qjt3AehBJ8Xc1+gLij1sBwE0gvrnkAMQADh8MJhEOvYtIOOOUwnv9tDuDjr5pAQCHgPhcyQHIdBt0+KANUYPpZaDhLl2n4GzzAXgHiH9LcgDKAwAMB0dIq2IIH6pZ7ErzATgCxBdJDoBxu3jaCOEMPgNPVdAHoMLTpgPQHYjvpDgAz0ID1A43uOvYyzSDiHNgeDKQQMjpBXAbt3w+wGoAVgMAjIEGaED3GgYdAmoaswkkHwMJhMx+i4D4eZID0AUAYDU0wHCDu45NoAMwwVgdx5MAxc8DAGgkOQBPAgCA1ZxoevzrUPxeOgAzoPi19PyBbs/N6fFRXSUHwFmVmr9yW4H4qQZ3HXOMpANQD/oCdeh7/oBXcEddarzlduGWl4LHGXsGrGXwIfI9yCv4bWCACGoCw+D53CZUgs5KDwDd7HeWsXC3+zZUBYYAALcQpt7Ep8AnIIv2HjHKKT0A1Ke4VeD3f9IgAE9DAICVgGWjKHdwlgUdtEuA9Xax1gNQHG5k52CjAByHAIDnA77Uzx/L7tFkmf7GYTuJAgCQb4z4PBoFIBsCgGE6oLpe/rq3YToBiTk68UPTlQBAdz4g1Wk+AKQfPf+fsrzJ6NQC6mYxnoAntDcMyAnCfhFBAcBZqP0Az7KqyzAAn9MBaMbyBbqu09zzcTHzGbimtfvgyUSiCADEka81k8f0AGwYgC10APqwfYG3/PO3jqeEk+g/JVDUkCgDACExvr0hNa6zBRoGILsetQ7EmoUFQ31KwAM413J96b1zUPc6wUlE0JpDyzYojUCNr1m9vgwDQAbTAOjN/AUiWpQy/B+1nb+CG9FoyqMbQd3qFwlRDABCSOVXNn7woCPsdscY9vKHcQBij+rn/2oszxdYPKCo0tCM7p32Nxe0+3csbpS7vsWCxiSICrZDyG7O0pdxAGg7RvQhysluFjEBAED/JrCSIAAqABBxTmc5kBMBUAIA0kazGNCsDUEA1ACAON7v65v+vr0IQQBUAYCQPa96Lwd+tSZBAFQCgJDjlz593BR26TghCIBiADxYIbz8/d6931++hygspQF48EZAFJfqABAEAAFAABAABAABQAAQAATAatUubvXZVNsCsHhA0ZGhGSd3NlnQBgHg1+4d42v83NGberCi/QBYtv7n1d0lD9cD7ROY01d7v4CKV0obfYS/UGwzABZ5d4iVRB0bwjeA4vsFNOjm6+3xitNGAPgvCi3xtMvjAkjp/QLKanWIpu62DQDay8ITFrADpPZ+ASlttU0iK9oEAL3GkChWAlTfL6BQJ3lnxtoDAN3WsAS2R0HV9wt4RTd7L9kCgLP6zaHdmZYHK75fQGVK+v5iAwCGtDbo86n6fgGvUdLXoazVAGRzd3Rs9xgzeFB9v4AYY1bBAQSg/4ufx490uaZ/+odeHEtC6BYxnkXgAKrvF1BIzd8FywCoubJlaa/4+axxdJMozxfgAIrvF1C2KT2Bk6wBIHulr2HsjDlskYBNXAL0Kqf6fgFxQAI3WALA8Wr+bQEDFzKFni4xZhWr+n4BfwYSWN4KAA5ot4i/yBJbF0jgUiBe9f0COgIJHG8BAG/q9Ae3ZOkNTTaYQNX3C4DcwjeaD0B2vF5zaF+GLUPCgARCFX3cL8AYAEadQgkhnfXbw5fAj2BzgQS2AOJV3y/A6C2gNhAPV5OfpmwY4doEhrcDEghZvai+X4DRh0BSw6BbOGlGs4iZDYZD93DcL8Dc10Ayhh4fA9b/+lJdwnpC8YDf/yiD8dLvF1C2Cj2B4AbiG6jhVcAZ5U10m7jfQ/F5Bq/gqu8XAJSCXwPjU7oZ2zOoGR0A+B5w0lgdR/n9AibeMbhvZD4lfEUtMHw24BUM+oRRJ3Mqwcev+n4BpIyh6WBCUjrox9eHwysAADwFDRBBuQSEXYMPQPn9Ak6UM7Bj0AP9Vjc8eisc7TIKAGmebOwdTvX9AihLwl5gG0DPbTx8IrECAP2bwBGmLeiV3y9A9znwwli2eOdw4QeIgACg9xsexWgXr/x+ASm3xZeFP9TYF7R+/zuIVQBoEzCU2e5d9f0CyFitak5bni7Rg377znRg3Ds+IACQ5xL8i/gcP1/V9wsgpIHv9oFNR/A9/6bV93qWrJLPajceGABIVlGU989/AdfhK79fAKlY3qs5tGA09wiT6z/eRHTa61uZwwIEACGNmzzu7py7sxG3X7jq+wUQErmh8OeJnejhDaYKjeCodf311aszt6XxBAUMgAcMPLf/rWNNct8QsgfA/QIeeARwG0QYViABMCrcLyAICiUAQkEIAAKAACAACAACgAAgAAgAAoAAIAAIAAKAACAACAACgAAgAAgAAoAAIAAhq9GXG2RmboiLDBYAXevk7t8/4LnFCEAwdKv+oz7RFWUO1rYegKx5Jx94BZSUeDw51Z9AACzWkxu9VpR1y0+xFoAhh5K9vMKPXEMALJRztV93yeFbVgJw0W9ld9hbDgTAT2XjMlePK8jvUjmwHU8p4zVWFTf9xjoAbmo1B60LcGNv0pYJnS9NeDHJYVsAYlIfmwJGF9wK3LiRgzT7Cu5kWgWATo//0NjAfcenV/Z7dERHmz1lSwBifNI0fHKABnYM12stu24NAEv1jKKOBGrzqKRz3ge1913bATA23+8uvWJEYG4E+v3hVYqtACBvrskeb45eLX2PqkLnZfYCoPYZTQuvigEYenK4uMdYIABwUMx+wwLh8/neDE0Ds652AiBSxwSgRnvjY6casggyDsBSmr/DOuPfr+dV7QNbE2sfABwbdTO02uhtYLJBm0DDABwx1e592SVdB4sZ9gGAZuRUZpKxsTsaNJkyCsBiusnTIWPfbs4SyqEttwsAzmdoKep23dDg09zGdpwwCgBg89bO0JdbXo9qYLXMJgC0B7wAC8aKj70VGLvQbAB2Aj5/WeLfrWHnu/Rjm28TACA/YPcq8ZLARGDoQWYDkGHQKlZfWpsYeKuZPQBw1IAAcFfZITr4dWDkaLMBSAAAEPZ529QXOjRXvWW2ACDNzaAxtcUG7wKMG242AFElxuzidZT9uYtBx20BQGUWANyHKwsNvgG6thgF4Csg3uiGEdp6Kp4l/66FtgDgeSYA3OGfiExzXYa4ggaYDpzjJCD+YwCARQJfKmJCS6b8uzZF2AGAWW5GiVSGDW8YcRU4x+8B8ZU8xjaN0lD/P7Cl33V3ky2uABNZAXB/EMM9uLMqfch8aIAP6ee4L3RZAjZ9SuC/rPXs52LVi7YAYDIzAO5y+dyV4eH0EUGz0M70U7wXil9AB+Ad7trv4ArM+TejFmgCAM5u7ATwV4b/Qh2uAwjUfPop7g1+uxzqawCv2e+cD10cmmMLAKAfqfcynqrP8w1etgNtuK/hX9xA6imG9w2j2r1/zLkkhF779VU/m1QCG7i5VH9swEaP3g3HD6adYoYZt9iEgFUBGq50cckmlUCSEs1HAF9l2HlGfySWAmP2UcopnskwwHr9/PfgegQ8voYv/66PbAIAxRBeW00P8ow+SZevAqb4XkZ/YlN0XwG4eoS2jOTM/xpiFwBqH+YkwF3I094VF27Ibj7iZb0z/CnbopuG2ps/lkTxTASx1X7NrgOatSQsbgUvAc/wVIaf1ySA2W48W2fabeQBxgGyhmoBkPwcx1f4avZd3vz/ntgHAPI1LwDu8EyO4SdqTDiOK8scPkeTgHozmQcY8if//NflWBDqeL8l9+8/PtZOAJBMbgK4KsNTC3yXm/6W5+iyz2mst0niGSHX1/G/E8dKkP4vc//8Xf32EFsBQLqEcxPQYSLH+JNfavpr5LDMFL6jc27yeRdoeSmbb4Qh+0eV2u5xCs9iUI7ar+n5N7Ez6MQw/otAeZ7KcOSsK88Oi+6waswnJwQOL7t3qYpQ39+/yT+C44nt72TknB9VqfqXPGv2nb35L/+uGe8R2wFAIgv5CTC6ZphHbRZe2tuv7/Sju1b2ybbuv87Zy5/+lr0jiA0BIOS3VbgJqDqLSK3lA/lv/59+ZOIBmdse/tkq/ouAkTXDoa5lnfl//q5zscS2AJCUAn4CVtWSNf9vruFP//Re9vUH+Pk20I2bgCoH5cw/d+33wdu/2a5l5lvEFJ/hvwgU7pYv/dnNBC7/r8YS2wNAypbnJ+CZW7Ll/+nZ/Onv28v847LEJOpyNH9leIRDpvQ7ek3nz/8fk4gkAJC0tvwXgdSt8uS//8sCl/9mlmwlapFNnHNEOW4CasTIkv+ZArXfen2sOTbLfAIn1jC5Mhy6l3+R2u+uPUQyAMjUVH4Cbk+yf/5Far+uzm2IdABo7fmuQGV4/kD+9A9caN3xWWoVG9eB/yJQv6yd079ssMDPf+/bEZICQGoP5yfgwmj75r/mEv70Vxhs6Quw1WbRArcBg6ZCNMUe6NnzgHnFtj71+PN/tWcEkRkA0mqawARhigkH0mZ5s1/ezvo1m2+G/VJDkam/GW9bnA/r7eIjX+InYNrkgKf/fa938369Ao5AUrXQWvkRMgAIrRNpGuAJQv/KfLWnA/sftvR1hdbKjxACgBQP4r8IjK8dwAPoo5GdvlsC+A+6fn431FZ+hBIAZKzABOHhuID9+wnaj98TAvYPGC1/LJ/6CxkACNlWlZuAQNnNkz56pdkXA3MH1rB7hzX7AFEKAJJ229zWEX0d0L07Tw/IcwCz5Y/X1F82UQwA4sznJyA6AHbzTsrCvGoBuMb0vMqf/pFbgpaGYO4a1j5aYILQcGV4E82Gy7ALk7N3Bf78r9lDlASApG20vjIcQX0+izf4FDBnSciu/AhFAIhzxAqrK8M96cmYaQiu5fVCd+VHSAJAyESBCUJDrSOALU9nA5cAodrvrppEaQDIVIEJQgN28+SP9HxUEx/5uEDt12XabmC2AUBoglC8MtwGeEVvKbwUR6T2e3Rh0M9+KOwdLNJILloZ3gPlRPCKLGD5Y2bTt70AEGokF7SbPwAlRawg91W8yNRfKLQ+hMju4QIThGKtI6YAIFT7/XRmSJz5UNk+fvI0ayrDNU2w4xWq/QZl6i+EARBqJI8WsJsHWrSmm2r3/uvlf0KodL6FDABCjeQClWGgRX+XJbXf+HdD5qyHEABCjeSv8baOXKLvyTGYt/b7ocDl/9VYggBoSaSRnNdu/l1je0b5SKT2G6SVH3YAQKiRnLcyvCZwfsxCtV9Lmr5tC4BQIzlfZbhPwPZkOS5g+RPcqT8bACDUSM5nKjTD0H4RpWq/I/kXfo7sE2rnO+QAEGskH8NhKjRHd8lOPY46sFDtd9ceggDAEmkk56gMR3ykUwtoyTE1I1L7tbDp294AEEfmClMrw300X91bsl+ehSx/Bs4PxXMdkgCINZJzVIYXajTtD+zJXvsVsfzZ+zZBANgl0kjOYSo0x698/wf2SQARy5/gr/ywGQBC60R4TIUWei3f/JD99i9U+z3aM1RPc+gCQFoJrBPhsZs/3nvGwzvBwL29j5tc+53xNkEA+CXSSM5XGY7IrlmTryVnuYDlTxCavuUAQGidiKl280K132A0fcsCgFAjuXl280K133OxBAEQl0gjuVl28yJ276E19WdDAIQaybkqw6wSsnsPVtO3TAAINZIH3m7+6dkCnh9Ba/qWCgChdSIBtpsXqv0GselbLgDEGsmfDaDdvFDtt1oSQQACdhtoa2plGJBQ7TfUVn7YGwChdSIBspsXsnuv18cmJ9YuAIg1kgfCbl7I7j3YTd8yAiC0TsS43byI3XvITv3ZGwCxCUJjlWGhrT5DoOlbUgDIiWF3LK0Mi2z1GRJN37ICINRILl4ZFqn9hkbTt7QAiE0QFkaK/Ceh2m+/mTY7n7YDQGjDAZHKsMhWn6E+9ScFAEKN5PymQiKWP6HT9C01AGK3AT5Toa6vCvz8Q6jpW3IASPEZ/rcBHrv5d0XaPl6NJQiAVRKZIGS2mxey/An5lR9yASDWSL6RqXVEyPLnj0kEAbBWIhOELHbzInbvdlj5IR0AghOEgKmQUNuHLVZ+yAeAWCP5Y7v52BvrDxXtPH16Z9Gh9TcePb+JbPV5NwSbvhUBgExN5X8beGA371hwbGiYp5TChh5b4BDb6jMkm75VAUBowwH3//53jkdDOcdEar+h2fStDAACjeTfuzx6Krn/nbwrP2QFgLOR/Fv99D/Uj3+TdeWHtABwrRP5530PoHt/l3Tlh8QAMDeSQz//n3Wf9SIQwk3figHA2Ej+/Y8eJt377i7Tyo8IggCEjBgmCL+/7/GwEmD3pm/1ACCfQY3kP93zsOs7+VZ+yA4A1EjO/vt/+EL4nZRTf1IDQMj1boHKv8dz72+2bvpWEwAyWn/Dgb97OHVfxqk/2QHQXyfyf54SXgJ+1Lv8b5LqlMkFgF4j+U/c6dd9EKyWRBCAUJbmOpEfBfLvuWfjpm+FASDOfN91Ind+0PmJ//Bf//nvC+ev/2s77b/7F4XrLZfudMkHACExPutEvtV6A7j/Q9WOj9aGkMS1ySyXgCU1CQJgB/k0kv9TI7mubwv7lw7JmgJfAgYvIwiAPeT4pPQEof8F4N4/uvktD20RRb8EyDD1pwwApXckv/MP/8T+VFVjg5EFybQXAXs1fSMApPb4RwT4zwH/o+kJrZClYX61gLuPu/6cBAGwmXY0/fkR0G8S6Af3n7Uj1vpNCdi16RsBII8byX/y+1l/m6r3BpmhfQ94OZYgAHZUygtut9uvCPCT+4RewCKt9wBJVn6oCAAhG6q4v/O9ALiH6789tPOfEor/SjxQJBMAAALtSURBVOozJDkApHiQ70vgP92X9T++3e9F8NVYggDYWf19r+rfh1Mcgzb7frqX7OdHegCa+17U3RtpFaS5Ph9vjgDYXHV8H+vc42gfP+nz8ToIgM211HcSwJ1P+/g6n48vRQBsrpt+AGTSPv6Fz8dvIgA2l++r/d/oV4B3fD6+CAGwuRb4PgOUK6B9vDs+A0ima75v9tS3gIgEn49fQwBsrkTfN/t/o9UB3vD9dBYCYHf5/KZLfqBVAn3nAxMIAmB3+b7Z3/92vO5n/eYCTiIAtld1j99kQCu9z+b6fnYfAmB7Pee3HvhbvenAhnU9qr0FKgBAlt9Cr/9wN9D+6CHfT4Z1RQDsr0p+awJ3hWsuCTnr98HTBAGwv/xu7PdKmh3WWBX8O//GgBYIgAQaotH189dnffsCHP/q7yCSnI4AyKB9/gYg93p0Lu+1hcjy8xoNxMcIAiCDGkdp9P3dWzd4W9qjX//vPvbc8wcgKhEBkLQU8PAq4Ek49T+5m/5l+19PJns0DaSqEwRAkjfB83peUCUPUn9P2z7kfBYCIIvWixhE5BIEQBZFnOb3iDntQADkASArhzf/rRMJAiCR6kTx5T/qBkEApNLNMC4AWhAEQDLN48n/AIIASKdc5rtAmDr5VwkAsoiRgORFBAGQUnkZLPlvt5kgAJIqvROc/6J0ggDIqxvARaDdAsVOiGoAkDbrR+mnf9R6J0EAZJfz7BHt9B8561TvbCgIACFk8fbuUd6zA1HdtzdW8lSoCcCD58FG+4uOtMtJSMhpd6Rof6N0Vc+DsgCgEAAUAoBCABAAFAKAQgBQCAAKAUAhACgEAIUAoBAAFAKAQgBQCAAKAUAhACgEAIUAoBAAFAKAQgBQCAAKAUAhACgEAIUAoBAAFAKAQgBQCAAKAUAhACgEAIUAoBAAFAKAQgBQCAAKAUAhACgEAIUAoBAAFAKAQgBQCAAKAUAhACgEAIUAoBAAFAKAQgBQCAAKAUAhAChT9f8AEQ77cB4qLAAAAABJRU5ErkJggg==;html=1;" parent="1" vertex="1">
          <mxGeometry x="621" y="449" width="40" height="40" as="geometry" />
        </mxCell>
        <mxCell id="fNX_a5Hz9HWH8XYPbjZu-29" value="&lt;span style=&quot;font-weight: 700;&quot;&gt;BigLake Table&lt;/span&gt;&lt;div style=&quot;font-weight: 700;&quot;&gt;&lt;span style=&quot;font-weight: 400;&quot;&gt;(Audio&amp;nbsp;&lt;/span&gt;&lt;/div&gt;&lt;div style=&quot;font-weight: 700;&quot;&gt;&lt;span style=&quot;font-weight: 400;&quot;&gt;Reviews)&lt;/span&gt;&lt;/div&gt;" style="shape=image;imageAspect=0;aspect=fixed;verticalLabelPosition=top;verticalAlign=bottom;image=data:image/png,iVBORw0KGgoAAAANSUhEUgAAAJkAAACZCAYAAAA8XJi6AAAAAXNSR0IArs4c6QAAAARnQU1BAACxjwv8YQUAAAAJcEhZcwAADsMAAA7DAcdvqGQAAFQrSURBVHhe7b15kB1Fmifocbx495Ev71NSpu4TIQHiLgoK6qIoiquou3vLZtdmzWZsd9p2dnttbcd2zfafmTUb21lba9vtme6uLqCEuKuhLtQUBRQghEBCV0pKSXnfx3sv3xXnfr/PIzJTFwiUCQLyl+kvIjw8Ivz7/Oeff+7hESGWsYxlLGMZy1jGMpaxjGUsYxnLWMYylrGMZQjFXy5jAd47Y33Fqljfcix7k+uKsEdqcl1P0D9pzJWJhCdUTRO6oQuV9mtCLauaeiwc1p/bvEJ5w0+0DMKXlmTHB7378iXn26VKdWW57KguUcXxKDgukcmLeK67xrXdDLgkFKiJiEYbrDEKSrCq+tuURlWVWUXxTqieV9A1QST0RDSi27GI3hePqv+0qTX8PKX+0gF6+sJj/6AXi2ria7NF5xvlstlcKtlEKKXOtLwtNlkqoejMJVgs/AmVfzXP9TTmFREIRiwIgJ+StsmyEeNwLLY8z7UUBTaPYjyHYh2hKW5V1ZwPdMWdiMVUkYpHh7Px8G9yjcZLOxXF4hN+gfGFJVnPlJeenXW+OVOwv5IrVpst16sXrrLVcxXdo8bN81TF8UTIgynyLRUg6bQA86xaANrwgghKALPGRyKO7B1vg3iI8enrOkQ+uiJIJ1xbF86hqKHNZJJGbzpmvJzUoy+1tiolnPGLhnNU90VAd7dXl3edr+XL9k1ly7u2anubTNcLUfGSfVIj8J8UWpPFz/aGjwso4pH1+TDMUSsgGRFKrsl2EwTDH4iL8yOO9yMKezwXhBOq51ZgKg3NsSOGdyRsiIFUTBuqzcZeS+rGH7JZJceHfwEQ6OxzjbPjXjM1hXfkZs1t+UK11nKV1ZarbbJdNeaqWgzWyiVSsMHyAnpxuXNAtFQEnHraTxsfrZiFKebPwhSja+Ca8ip+Olwff9ik/eQEEj9xPSKcYld0zbYNzTYjhnIkkQgdTEfJummxN8i6TfDxn2N8tC6vYgxOeR35krhjcsbZWShVd1ZMZ63peNQE6uRyqzFqEklCKliyXOTM0xGy2FW2Pmxv/BipCEm+IOZywIyRqwtUKc+Msy1Ur99D8C/BhCPiecgf9VipKaVtk1JZRDi3GtW9Y+mEcSCbjr5RkzFeqY8rw3yazyEWauFzg8mS1z415eyayJs3FsrODVVLI3JpCcsVEXg9UioUI/2yfxQUvFzneH99LvkcZLyMDdY/LubPOH8GeVUGRVLTTSuysyGjpVUTnk2b6CxYlbDmzMYN7UQqFno7nYjsTyWNt5oyymmk/jxhXhufA4Bck3lxa77g3DxTqF5XLDurTFdJuMKIkD/PxSQFQtGSdeAQbC8kzML1hbg8dQRHXzr15Zzf9+E4YBW/FHgwDrHw2ywim1MJq95sNCxOJaP6O3WZyFvNNdHXYjGlH4d9HnB5Wr0K0Dvidc6Y4p7pvPVwoWRtKJte2iHLRU0j7cVIA0SRRSatV1BYWALB8sOAcwQqWZh+Xk3BmYGFqeexMMWHQR7NKfkksLW0xW5hcFbsRTNqC0N1K1FD5DJR9Vg2GXoyE9V/19QU/VxYtQt1dJVhpux1Dk042yYL1g2zFXFLseJtpR5jEoOnyL7KnrQEyKXAsfcLTYaPIyLSIlBxsw8HBMdLQnBsEEUbwREB5gl+MSB+YWrAT0/H4Q9+miBfEr3X+TNhGMQVurCIbE45EVEPUU/0T+lU6E9t2djBq92qnS/xVYWRGa9zdNr69mSuel+h7K2vOmrW8tSILAD4XJJQHDhGFsk8LlagAOKDfSCUv+rHB34cgH08XEH/cNLngFXaJ2OwEwlp7RySBYT3E3PAujxqPi4IgL+frRluZQVpKZZ6o6rniBC1o5GQM5VKKEdrM6FnGmoTz9dexUSbl+Aqw+Ck1z4wZn0zN2t+v1B1d5DvlfQUjfagx0gLZgYKEeQCaFuWCwErHyYa9gVDDEHhEoICnSMKbdOCU/ApL3JOPkbGz3PTP96PkF0Qbgd5K0gv4aflEAD7pVxzFQA9ZQa6DBj0s4WuW4VYRLxbG1d/1VSbfqm19uok2kJprxocHvQ6ZgrWN2fy1oPlqne9zQQDuWBlkOmFhbJgnUslEClYBunm49H4IJyPwAq5PH4lC5kJwocGTejC88lzgbBo5viPMihT+M0frwPohCw4lvNJ23OEDvYFkNvzx6MJxbWCGMqjYgldtQqJkLuvLqk+VZOMvNTVGuvzE1w1mJfhKsB02VvRMyo683n7lkLFubNieluouciyuumHCTZXKAEWri/EvGjzKSiOCpcJy/tBAyosIg/7cirGq3AhkaM9VY02NFXDrQLhuS4l860R8sHkkiRzXVrKWkBNuUjienOUApko4yrOz0fP5wZAnJzZgfhz981vcyq5hL9Ga/JmPXJBFk1UCnHdPlgTV/dmY9rLbU01p+NxZUge89kjyP1njvGi1zIxLe4dm7Hvnyo4a6uO0ux4SgT75FAEFRLnNlA8lhfPPvbIVCACrXMB+2m5bLANQjGpcip13+BYq7St6UpJVZWDtusdVRStEuGpPCCSTQeDDBKIEyqOEsI2QUAlQYTcYDvOVtvxIhjHpxCyHZF0iRh8fVwbSxYkyCUi5VLmEEtsA36e5xBsY3AZuYF8lN6zREhUrbhuDtentO66bGRPfTL5fDKpjMn0ny3Ol+IzAQg2NiHuHZ2q/ihXcndUHDXKCmQdgmAgABT/0dkNiouLac6PoSP5PLKh1BQ7pymOHdJE0QiJt1xV6Y7owjM0VRhRLR/WwocMXX9v3ce4pYMb8mZRbC+Z1vZyxclYQos7ntdZNb2dZdONWdSykVFLCw9+JeSg3LA4sKQ+eYl8XJnmJDhXXlnJaA/tkimI5CwwrRGlda8iwmrZziTEvvaG5N83ppMvXg0W7aNLbYkxUvAaZgvivv5R69Gpgr3L9LSoC23SPxkKLgCQDGqVuFSW54sGy8BYcKznOIprl6hInHBILYd1762Q4pyJxbSJeCz8ZtWI7Nu5yDMg9nteKD4hbi6UxI2Fol1vm9ZK8i13maYXheWjXrJG2Usq1Bwjv/jHj5RVVohzJYVkSEcBLPNTSKKh6qDyOEJxSiKsFO3GGv2N5vr4Y/Xxz96inSvHpwwQLDfj3Dc86f5sMm9vNz2dCQY/iYyKb73QFMn0F8JX/AKFM5icmFLjWKrrELnsKbJa74VU5XQiZkzUp8Ovr18R+tRmr4JwmYK4fjYnbpnJVRvKBVOYnlhp2mKH4+lZV9FiPM2WM76QZJBvYTi/uKTMPHUJ65REgY/mFsmilexsWt3XUhf7+8Zk+jMl2mdKslNj3s/6h6s/m8zZN5uuppOyOUfwlYKb2BdX7kIExRGkRgHZjibskk7kCqvugZihHGjMJF7ZvDp21UyLfu+Ud/NUvojB5RurjnaN46nUwcGMEakE2cFZaMURAizUCeQG0fxAu/h2lFcSISJafUZ7Y2VL6h+T2dgzGUWZ9g/6VPGZkWx/j5cum94/jk2Wvl5xlBBPxaH2UdXkONCcn3KOQgMEcaRg9Bb9OE84FCxbV+zRsGa/l4yqBxrTqVe2rIr+kZNchTjc6908PFm5o1RxbjJtZTtZtiaP+ouoNNT2MdlQ6aTMUtKLYc6iwQ8lpskZHSURC5l2U63+5qrWxN/UJ2KP+8k/VXwmJDs+7iWnp6zvD084/7Zii5UunsOAmohgTJ05gi3MXqBgGceWC54zRXNdRoGolq2pZn86pj5Tmwk/u31F6nPzQMf7p73rZ4rmg7mc+6DpaM2up0VILyQcBivIos2RDfCrFWSfU1Fg0aBKWrqkD0G9DVER0VBJtDaGf52u0X/clc1+6pMhfSfm0wMIVik43xifqj5qOqKLmEHUorpLThhnhggmBz0XEuxcBARDCjSrKjn2IdWppGNKX3Nt5IWVLeknPk8EA67pVPZ1NBiPNdYaf5+Oqq/qqjMmnxHAH9t2DnO/ckGY1xP0iOaVe+PUKnjUk8UjDBXLECMTlXXlWff+k5Neyk/+qeHSJbnIIOLoExMiOmY59/X0l/+yXFXvkDMoKAtUQ2WnKWgWzs3WnD45npTOFgzKpG67wIxSdzSd0N+rr4u+01yvv5gxlHdl+s8njpz1to9NVn+QK3v3W666whE8/MHWTHYMgAv1JCF1xIPOOIjSqcKknmdJpCPmKytba/5LJhR/vr5eKXDyTwEXy+WiAwR797SI12fEPScHqv/N2HT1DlUPk9LQ/UZThzQL/Y4gW/CzSFm8CaWpPDiOeo2Rbs2z7KjhnKlPGb9uakzubq9T9vFhXwAMTHvbBsfcR8dn7AdLVbsL44Yej+mQAlDB5kruUkWIeNIZc5K0SD5aSMyKxkzola627N/oWe039cqnQ7RL5XBRMZD3am3buad/1Pv50GT5DgdPoRHBME8KS+BckgVAAwBKyVopR+4x5cUUhmLa8bA401QX293YEHuqMaEc9A/6wmC44G0cnXAfGZ0yf1goO11k1aQu8EslJ4mGGCAoynP1JwdrNT5KccoirFdFW13slY6W2H9pSGlPK4pSlmmXDp+KTzZTEPHJGfUH41OVOyxb2iGuYi7VSF6S7wECkUI40DHz65QevgXMGW2rqJFqRWQSorejNf7MqtbYE19EggHNSeVoe4u6u70l8lRt2ugJw7uAM0YWXd5WIv+VlCQtfYCFG7KVwBI6d9WwqNphMTJduoNak++fGCrEOdkSY8lJNjXlpUm8e0cnSmuqtiY0LQzasPCsAJh+2pYBKoLPhXt91EtClxxdLNIihhs1rywiWlnUpZTutpbIY60t0V8kw8pRXOeLilqSr71J/KKtIfRYNhXqZqKRLlB0qHjzHYCFkJqUIF1TKbNLooSEF4qLim2I0anSmnAoch/Kx0+4ZFhykp2eFunJafsbparocj3p6GNGAqxYYOglxbD0fTDQkLvhsHiSbpgVGjMsUZ/RjzTWR3fXZoynEkKc4BN8wZFUlKNNDWJ3W5O+pzYd6jZ0VEUQh5pBnmOHLanBC+Hv8y2eTXp1VEOUqura8ZnyfSP5UkymWzosKcm6B70617O+Ppkz15A/oeHRNNzukd1sqZCAaBJYJwWynwYFqtQrggWriLhRFU21xpG2hvgTtVnjVzWGcYz8CUyN+FIARGurFb/saNYfq09rZNFIf6iocpqRb9EW6hIItrETnQVJNni1ZWpVxqer6xxP3Ieb+zLd0mBJSdY3YtZP5dxvVG1llSQTns4OHPwAWEeQBEMIekQgpPCqwiAfrCapHWnIGE/XpiPP1BrGyS8TwQKEheipy4onmxr0PTUprTsEI8Y+Gv5BtECXCOcDKeADO3yI4+qiVFG6JqfL3xwdytf7iZYES0YyWLFQVPnKbMVd7yqhkKKRn4XxMFU2iviTWEAu2HNeooaapJcq7r+JdMo70lCjP5HMRH6VMMSXkmAA5E4pSndLvfhla2Posdqk3m2QPmWnifS2QJfnQhIPJEPLwPvVkHA8Q8uVvHWhkH7PUlqzJSMZrFil7N5tO95Kj5rJhbWMH8iYH+ghYJ2yQopy0eNk026JkFYR6aR2sDYT3hMK68/VGuLsl5VgC8FES4on6zOhPcmI1k1dAGiV9kDPMk2gawnoF34ciCbj2OdVdWE6yqrCbPU7StX82vi4l+Sdi4wlIRmsmBFWrq9UvTWuginJ0nIt5NWcLnwFsBKIjNJvwNz1qohF3SM1af3ZRDT8vJo1ThPBlnxM5/OCZFj01CTEnkxc7I7oopsJxEqd16cM5wM9e4qnf5d8Xk/RQiXTvjGXrzxUMKstfqJFxaKTrHfGqynb5lcrler9VcdeBWnOJdT5CJSBVGhOpR8W0qzhVFz9TUTXntHrQ93tywQ7B7DobTXiaCpu7EkmjJdCmjLmV2UOF9c1EOhalgpuqFdNL5krVtdN54o1HLnIWHSSlYuioVxRHihb3q2uJ6h7DOvkizZny+fNNoN9MewngrnUTKqWSMREnybcl1NqvGeZYBcHiFbSxGk9pPwuEdPPsL/FvSZJtHObzoXANqUgS4bbVZjeWap6Ccf1ru3pmVp032zRSTaRs2ryJWeTaStZwWM4uEggVFC7zhWabxdRFEY4FHL4o4Y4kk3GXkrXhE98UV8Mt1jAtPF0jX4ik9Feioa1I9wjJ/1KjQMLdS31DwrKWcfYCw9YFxVbaS5W7a/NlNxFbzIXlWQ8LqaILVQrYjasE5FKWjEQzE8EoVlAiEdLXwd875KsmKG6Y8lY+DfpcOiFeGN6RO5dxoch2yhGEnH1hXRc+42hK2OSaBLSms0p34eve4D9MuoAuGqsWHXXOyF31+Bgvk7uXBwsKsmmy2KF5YivWI5Sh7ZeCogfCHVxSB2AieSPEcniYf1MLGL8k6HETyw3k5cH6KlSL46EDP2fErHQGW4RoHEe1P4wzVNAk8nNpi6o3DocS9xdqNqLas0WlWQz+WJNqWJvIrokMZWaCeT/zoOE9sd0mIS+LjA3LBxyxmpSodfjMe/IcjP58YAXHBsxcSSZ0F83dHVMtiAgWBDOR1Aucr/Cr97SYqWKtWmqYC7q4OyikWz/lJf2VKWrUrFSGOuCEH72ef+5kHtwgwmiepjyQz3KZFjtiRnh365tSX5h3pf6qaJF5KKG+ttYWO/h2S2oxVyhz4dfu7mMELBO1szVRLkqEq7trl7MDsCikaw0Y65wPeUW2/WyMvNSjAsh9+DlKXwjHP6ZWxEhxZxKJcJvaRHrfeogfOFfO74UgDVzdfF+Mqa+RT3zKSYZmTTptiyELBm/JPwl3w8QVUdkq0LcMmNZKzjRImDRSFYsuPW2422hti/NNeNCyeaAPfziXmpSMXFRU6oiHnFHDN19ISGSy83klYCsWSTuvhgNKz3wtDAfT4K1LlfPA0gmy4SoqYTSpuNuK1SsWt65CFgUksn7XmqDZSspWCdkWQ4LLoQUUArj1x/+t4WhWSIZD02Xq9bxZV/sysDWrKrvj8X0A5rm5dBrl0NHlyZZUFCy4hvoAOD2UlvP1OI0mYtCsmJBrA4p3lccB/e+ZI7518/8ucB8MrJ1EJ662hgXi2huLhU3DqZrIl/6+5KLgk5RSkTUF3Rd9LvUUjAuWhYB8aRR4ClDIoRHo9Oaot5uFpzVnOwKsTgkKzktju3toFDHeWbMCyAxTz4eeCWSoT8TUhwRNfQT4XD4xUTLclO5GIA1my1rB+JRrYpZL5imzQ+iXLS4g/LxSYbnCBy1hur/zkpVNPk7rwhXTDI0lZZl1drkMHKnEjRiPi0k2AJQFHaDZHicPqyLQjpuvDOdn9nXqiw3lYuFbES4yXi4jA+J4aV+8M7YTTnPV0ZTihBEw43BGKdle4lq2Y7K2CvDlVsyU3RoIeVGcvrjGiQCgzjDbLOwcg4CIfldF7hPqXl98Vj4180JsUywRUQiK6rxiHc8pColnp+H6Vbsm50LWR4U/H2y4VSEaXmiXDY57kpxxSQrVUSH7arXO55oWCjE/H3KCwEx+N4ZkSxmaJX+XPX11tbWZZItIjprRCkeVV9IRPUTuAUuX3MgA172R8r3gyQZiouHk2gFHQDLVVXT0+L793shSnBFuGKSVSwRtW1RY7to05HhDwc1+yyM49pCI38hGglZSzr390sKjDVOlcXeeEQ5GNLcSvBZRLzEBbNd+GMU8NRALBCNCSbtGEjmeloyFNJuMJKTXfKMnxxXTLIy5btigzQfTTAJKQhu4oao6Q/r+ulKjcXe3DIWGS3CisXUF8KGdsqj8uFnV303hscyEWAY0NP3SSbLR5AlE3WWo9xYrLqraPOKcOUkqzrUfjsCn0/mp5GQ90uAp/TALpMwGF8Oh7RuIxJ5WrS0LI/wLwHQy6xY2huaHi2raoR0HybfDMGgko9QoJZQ1YWiafxGJbx4UL58ED1RvOXNq6nYzhU/AMyUeGG/F6sUxtX6etlwJWuIAVQLkEmO+BD8+p3SgxXT/g8VW6zQdIP4Q0YpINN54OaU4mGqDa8k6hLePiek3nnH5oZZP8miAW83FEMiVJier0jj4/6KCFbqhS8yy7yDZEYzI2M+f1goMyRMCWHUpMUPzwx6/7JUUdazT0Z/eNgXfTTiFa/j3rHrmlw+eLcSv6nbqYp42OmNG95f3XZtw1PyCp8MXABhUf73IS3y+2rF2et6zt7KrP14eEj8BPPDONVHADMswX4ApvYjQUJAqEhYoWJeGtRMi1hME48mo+IXlLW9FVPsDUWdvSJc2Wsq4b0OBSNK67azV1e9vZotHu+dEj8ZzF+ezFcjIHNYiEdDJHPKE3tLVfHbwye8f3m2v7R+cLgsBobKYnikLMbGTTEx5YqpgityRVtUTLg7eM41RBYtREs52dR1qJWicKVgc/O//0Pv3omZ6u2qZmiKhneF2ZRbq6cmHZlpa6oZbKqL761Jh/ZsrL/wm4vPvTXzoGUr/8Fy9RWUQzoh0Yzb+ItbMhBSIadf96bEqmZjn2Fqd25eJEuGj6vmyuK7g+P21/tHZlvGp0o1s1W3i/InLNsVFimM3x9BS53yoVFV1imQYyzCqiPScaWnqT56vLkx82I6pD63c2P8qv/G5P6zXnO+6D40Ml69c3R6tmVqplJDfhTJTE2epwnbonYDHi8RR36HCq0Jv0peGCFFRCKqSMRCIhUzRDSs48P8GLsUmlMUhlLsDWn2X92zq+2KLBkz4X99bGbv0IR5uysMohgG5yxicZGaPpMu6NLFvb7GbGh8bUdytKst9Zu6bPjXLVGlF8eCZI4jSSbfN4bm8kNIxubYFmFlWnS2RfdUDfNnO69g+GKo7K3IFcW9Z4e8b5zuLTUOjU5np/PWKur1ClcziPfkf3DNJC+Qro8XfobIB0F1cPAENuVVzgehfDtlyluV5HXPZJL61MqW9PDKtsQf2zLRPV2tylXzpY+TM17X2Iz47tk+86t9g7ONo5OleiJWh+lyr5DlhTXChy5QCi6xjJ/GpzYS25ZDzSPKCD1MFc9iukKnZdTQRG0mLuoyEZGOOSIeKvWGVYtI1nzlJPufHyvvHRy3bndERMOzeDx9lwjmuRYPM+galZhTcJJGSbTX6Qe6VmSfam9ueDqeELHREfPHMznrh9QTaeFHrKggpcW6GMlwc4ME9SwR1wvH16xI/G/5ltRTl+P7XQwfjHpdZwbFQ6cGyvf3jxS2z5Y91fEM4Xia5uBFLVAyP2ZH+ULvio5BtjQ4IiQ6lA8gp6x+yh8/VIzXYKpVJ6pWRG1C9K1tj3+wuiO1t7Uh+lxr9rMj26jndZ0dEN88fqZ8V09vYdP4lN1RNkOk0ohwFFXDq9Z5BijpH30w2Q+DTEQo2oDccGdsWHROAw8N5eVQmWA2jMdGJRklNyajieYaZbijTvnH5ubY/7umMdIjc/HxAf0SyUp7+8fM220lSrqm3gZdGB9j9zAlmjNLheFW8QYFalaKIhF2+zuas4MtjVmLTGu7Y9vtjutolG/uJvPXcy8CJhkpgadZ64V3Gm9svfmTEGy84q3tGRH3Hjo5e9uJvuKW2arSXnVCOh69D2qyLxrnP1g/n/y8htbD32KFw7oJ+fVc3PYKKaZIGBWnPmUPrlsR/2DdqprfdbVFfxdRlE/1ZS9HR7zN3QPu/UdOTd8/PF7cbLph1XYjVJl04ZEfhQoFWWRrIUmGVkWOiaFA5gTlkQCs41U2859yhOwwLjbJbJPTb4lsrCo2tIcPbV6dfnxVR3xPVPlkXw3mK/wvj83u7SOSkTPMJKOckTEjRRPz8e5RWVKQAIqvIjhR3XbScVU0ZCNKXU0kFI1ASPJ4WFASC+cA63zJsIbzopBVshZxfXbft25qu4F3fgwMEMEOnRD3HztTfnhgwlxPPljIcpWQdFZl15uzyteXtRl5kLrEXqlyAFE8NERAzeZtTsdZlalpRRMVYaizTipcsDqbI0e3b2p4Zl1X4onMJ1T6x0He89aeGhT3vn+yenP32fJWcg1aTEtE+Q3ZVFY8PQcykSCSYL4FgwCQFPEscRCQQi45CW8HQss1ecuvIiJKQbSkTXvLmtQH165v2N1Wq+6h8vvYMnOXUKPay2/PIebzktpnfCpeJwvGtySQeZhiQU2RiJNpTmlFO26M5Tzj9FA+1D82K3Ilh+o/UnP94b95wYAFwgALVi8Xx/Le2n/eZz/w1qGZB04PmRvy5VDMcsIhvJKKFU1XZgukIJAsJAcUxttB7sg6yXUKXMtxjJ+WnH/+4DzioGgqQFcxhKXEyYantalqMnJyuLp136GR7x8+PPE9fPDVz9qSYLLqbXz/hHjgTwfyPzzSU7xrPK90lOxwlNwakhX+LwoQZSRlg8z8FnBal4HkYOJRS4TWiGSaW2If3qNB2zJQNLETqcndEK4aFVWREMN5VT94YmLLOx8MPtQ/Vv0eEbmdL/wxwCTDD2ZFSIXLDEulS6cQQshMI5OgokHKjwhTiYl8RRe9o0VxeignpmZBNGqyKMOoWXAPApKBUxCAdvAWms6Pg7d6vY17Xys8cLB7+uGhaW9z0TKiNjUVOBdqLiubLS3lE0soneXx1xFPzYFckjzcNMhbLBgnQgjeOjRXQFiS/Jgx6pCsppoVOSurnxwWm988PPPTPx8afxQffkX+FhsDprft9aPioVffyz18atBZP1UykraIhKhEKD+kP58o/EA0aZ0/kA8ZsA1XB/qlIJeUFlNk/MAuAa9DB9iPpX8OkJT0ievYVLlKokYMzET0d45Pb3v9/ZGf9gxVHyGifSyZmQYSkgwB5BZlhpXN/KYAssGFsnwhofywKFq6GJ02xQBZtJlZk2oCnZZyCpLJ1hZp/fOTABfrFHwY3h/w1u4/XLjvzIh1/3RFX0f+V9ThJpnyBMtESwwgQhifwucFujq3DX4eGLC1pOAg8H6ZL1kPfIKSy4gPmCKN44VE1U2IWbtG9E9q6w905x9+6+DQQwPjlbV84CJhmCzYu0fEd985kvtu77izLlfRopaLyo08IS9UBpQ/zi4FuACQPQhslXgf3AQ/8F+QFhUz2Jb64SURjgfT6RokrbBIJaYXExWlVkxV0vrBnuJ6Itr3PzhdfKhCzTglvCwgTz7k5eXl5iHXIRwFboak0iEsN4pUy/HFQLwicoyINjiaFzOFCqUm9472sQ9GZ4BQfHY6IftLlznId4As2KvvFh84O+w+nC9rmy3XiOKaqIGoufMWK1AWrkGycPCvhxPBd6E8BLQLUkvCI1wIWDFYcY1kpnpNaqBidkPCJKIVyKINTRkb3z+Z/8Fr7408MjB++Ur/MIBgfz4kHnr7g+kHR2e8daRXkjckc8yWhgK1MCAZV3Q//xf8cTx20xIKuGjAPgTaoIBryEoXWHLaoqYTVrwismKqWqMfPWtue/PgxA8Odc8+crlEY5JJZx1LKnxch0+PICHzIjOwsJhkMwWR4HxqomorYipfFSPjBZGjpRxF9j/hQofjjPNOKYT5cMCC/fn9wn29Q5X7Z2a9dbatRbkW0rHse8DaUL4W6pGBC80BG1CZlE1OR/IrEwnGhJdCE+bOwKA9/IvaDWuJmbw8CEDHYaik4sb1iWJkTXef+b23Dw4+cKVEG6dCe++YeOCDntJ3pwpql0ndfbQEcF0wlKSR8qS+AwFl/rgmzUHKy7JykHIz2XiXn/6cwAfy2QBsQsf46pwOUtMJXBEi+5kUOTOlnxlz1+w/Ov69wycKD1wO0ZhkAu+qIsbCmYQFgio5mn/PhS+CbJ4QKPPyj46n5sS0NDGds8ToREnkCpawiWg8pMDp/AKlgGL/MLwz6K1760j1O6dHnPvzZXWz7enUo5IEYz+RlMN8kT/0h18J5JsrBqVGwPgRaiQmfHtEDo+cecEBFcDPH8scnCEAcswn4jNRnaZAlo2W2AdXoewlopNlY113f/H+/YeH7u8d+WQ+GnrN7xwR979/qvTg6JSzrmxpPCsV7gn7yCQv8UyCBUSAPkmPvMSCtBrIyuWJpV+hcAD9z1v5+cDKgpxB4HRgAn9pj/UNPYNoJnUGpsuxaN+4t+5A9/T9x08X7y9/hI/GbFLRU8HcNLwdGYFOzcrlAEAif4szML8H63xTlc6hUCY8LyoqVliMT1tiaHRWTOVMYTkoSHS3SVg6EO8bVnDNiwC1+Y8nvL94673Zf9PdW/lxvqxstpVQFMMp0mqB2Ag4B/0gazJ780sCEwy9Q1pKpYdk4DwS0RBoHTLLvKGi4XxQvH+Sc+Bfm5Qe9F6heFuNiKIbjw4XQpsP9sz+4I2Dg48cPFXY7B90WUCv+Y33xSP7Pij8oHfE3FiyFGoisQcuAUrCJxIE9OVFHmWQBEMbIw0EDAXGC1GO0DHkokOQXegLvz6pAoIF8TIAsvRxoKxm8uy4PmhXFVExVY5Ge4aczW8eHP/BgQ+mH8LYJR96EfC5/t1/Luztn7Jup8qjuRqRBZaCTiedfcqdDxaKlvPNC7ITZAnZ8WPId9A8k/pCjqhJhUV9TUxkkmER0om+xDcUUEzJvb+qKfOX5YnQ4Z075YDsqSlvc++4+Da19w/1DtuthZKetuHwoXBRjaXklD9eoVUSG1OMaBVxnBeucViXDQsnQxnBJyCouAsgV6kg5IAz/DU5KImjeA/rANs4eyA3A9fEgmLkS+RwBDUrblVERMnORsvH2xq1V9evqn1ja2fNB9mkcpiPuwTeOeVtPjpof/tEb+XRibyzpkIuwRzBKASViaWkHVL1vgCII6C0OJ9EAMTJ1oIoB51BRlrnMU/IyPv4sDnwJnbxWhAAnF8GnF8GCYxGhPEpHWPW7qhXD65oSjy1trP+2fWtSrefZA6cy//ziemn+ydK9xadcMhWDVI+mhXayaXB6uR1TsxRMjvy4nIpAQGxxA/qlSXCmiPiEZVJFo/qIhoL841Zw5udaq6N/V0spe/RFWH2j4otE7n8jWNT7m1DE/bashnS2erQqZnsPKaDc0tgFcqUNR3bVC0oAboBIA1iON8gPDVxGL03QqoIhw0uCnCubNqibKHPBmsWplzDIuNI+HvgPeRAAVIc/cjLk+wsP8kKQvO1KFCc5prCEDknGSpOtdZFhtub028lU/FT2XRUJOOcikcRymUhckUh+sddsvjF1aM575apWW+t6aIaUr65N4sKLqVgeZAJwpx+WQFMQwpo9nF++I2Ub6rgioNZLiERMvABL5X8ZZKa9YWyxDX4BDgZ/zIxScigZM+FLzktWG64V3Q1NKWGKIqYNmtnYuJEc130lUwysa+9KXXg5o3zlYuPfvrV2X8zljN/MGuF6nIlEc7NOtnZipBjMv7MCh6+oNScNc6VvOD5QJPDVoXT+O06NS8GZjqEVRGLGsIwVMqcKWIRvcdRxF7Lcl3qNOyaKdjN+ZJbZ+Lr4JhMhxPSD8brJHwVBD/0j8KHzUKB21QYIBnyixu+8CDCquWk4spEOqFb6WSIiQ7rgJm8s2VMd/EEdSpCuaKXrVpaSPbkUBCQF9edl5HrHJ07sOSscBCAgvzOJF2dChgftYjqplOXNqaSMdXCLIdkXCfLQvmjU1YqQhSIaDMlRUzk7VDJVLNED036xbI5RiVFqUoygJ4Eui6ujE6YzAGuS00k97Yxs2WWCrxsxQx3Kp0wrPq6lOFp4YZTfeS6jBHx6Fzs21E+dLRYOC1O75+XVuiqdF2O44gLwC4PrsvXlsTGHRHdM51ERExkk/qwoVT/ZJZmjq9tT4w98vWup1mDx6hXNDUjbpjMi7py1dk8Ml7eOThqN0+XRNb0DCpwFJwUPFC5r+dLALmnTCC/XDK+ReFeEu2hgLsJZMEENYdjlqs6tqvUUQhhjA1DH+zY4zhKG9Q6aUGwSr/+9dl5xbUoIUgGNenkNYRV08pE3am6dGiioUZ7I51Onqqt0Ylk8jjQp0DWZGxaENnM9X3D1Z0jk05z2Q5lKZcaW270YOmMCADLjktzPhBHMb7SkVFYR7Y8IBtZFB3DPZQX2KeIrlEBk0QuufJUs0zyU03ymyzfQYeMstftXxNEgulAPGJ8hUtrgoBUsnmEAdA8tijlhpR3qjZlvFlfl+5buzK9abzk3fO7P05nT/SVhErEotL0SaaRlQsJHTMz5s5JfhdkQ5nJy/lYsOHLiyDZgLKmY1z0RKnlUk0nLGZHk1qpsqIutO+/fmTDo0h1DgYr3rqBQXHtqb7qzWdH7dsHJrz1FVtlMx5cLGhGA8EvhH9x0giYj03EgDTIDEabYU0Qg0FVlxxvFFJAJtnooUbDosgYQF4N16XkvIGdEFKSDJGKVxExtVjORK1TzXXhP67rbNy/rlM70PEhvtHxvLfucDfJ3Dt789C0uD1XVtaTy8A9Ex4b5IIH6KL4P0du7KFAGYXSZcGjEJAQVPZH0tnKIT3ySsTygzQnKDJcB2dAQVMUROMfpi1DEgzXkEdgHeN4hpcXqXC53JIV3etXpZ/saKr/9dZ2caJii11vnXX/7398+vSW/nGyYiGDiAAd0dFENINch2gsIkIhTFSUVgz+G64jMwHMXd1fEs4hGjobkIWrArkMVcpPQUTcSac96736P/7F1juDM1yAkaq3+fApce87x6rfHxg1N5ZNVYcacAGcLLBQUKS8/PmnwjanpAUUCVBKSh/0brhHN5fO388FKgsWe7FbnoMT+AUsj4E2uJmidTSpKhEsopbKdTGzu7PZeH7nNR3Pb2pV3sNxl4NXyAk/0mPf2zNkfX+mIDaSxdG5E8RklzmF8nnYgOHngwPFI0tQOAI2UEMgAwIdB5WhIi2UB/skPUleNM9ITpCEJV3TtqQhxfGxtOQ0dBWqACFREplwodxRp3Zfu6H+uWs2Zvbg6yVI8cphLzGWs/749EvHduSqKdIRuQpEStchH5VIplE9ikQjIhIJCx1fnqBagHlmMm/0419nHsG6zD/yB1mZaDAUtBv+bwgf2vemnI5a59X/6acb7gxK/wI0hZXDmzeK3ddvDD++qlk/GNEx1xI9FVIJHD+fKHK+Fo5YmBkA21J5wX0xeY+QtkmZ6NXB/0BNp8aDhCdfhseEZK3H8ShKcEqG+cKVwqEWgYa4DvygWRHXcuWmtNm9uTP65N27Op78OAQD7litHL5+m757U2f08aaMdjCkVCnDmOAnCxZBXu/ikLmCj4IPzSNPJA/Jws62TEApIAPi0BnBnV7ctYAOYEUCWTmpPIaAKzIxKTDxKK2ukGOv5EU2Olte3Ro6fPO2pidvWUAwAM80jJAvhrFKHMWWlU7OM2sImE9XLpVFcbYoqlXM8acrsBGRf+fnQMKP4zxCXnSsyDUgWTVfJi5vyOMnvSTJgCZFOb11g3h2+/ronvbG0NGIZtu4uYzc4PQgGsI8yYKMBOsycE2dswYgC4gHIkllY2YE7kFKCybTMVBz5cnnIPfgjNIKsq/nEsHUQqEhUenevDL23C3XtT7fXPvJvh53fZNy+uaN4tmNK/Q99UnvKHlNRDRqSOjCTHq6plR0EABfVtILE4pkkzM/KLDi5RJ5lc0m5Jb7ITOOwbG+cBK0Dl3hEnxdWmK3JJglompRNCSqha5GpXvH+vpnt6xOPk8EmZMZD+VGM9XmsfGS7jhBMVP+aFXD12Gkv0KiucIyTVEtV4QJonFWZLnOy7gwLACyB9LSQRxQdpBtgaaADyUZUK8oJ5hoG+NPtTcR0diiSaKxfzFHNJwScfICFwQUAC2RjGsLLeWoPcL88Uh9UfAOpEFzhI4ItiBcmWr0LPlgpZ5r1mWeue3alj34TiRSf1JsqFdO7NyoPruu3XiqNqEQ0UxbVgZIx1XGL4QAl8q1lI97dAuClBnHoMJd+lh5WroW6QbXRAR6r4YoWZmwmVtRp568ZVvrM1tXJ58OLyAYQP2ZmOKGvjU6UawxKeusbyaWDKxz2taoA4B1y7TIqhHRKPFclrhMQBGE4FhAJgi2FgJjcRoxGZ0cPhxxcvHhANE2bxK7b9gaf7yrXT+ajFpl6hv5esCYmhxZZtcLyrtUwAG8TkRE4G0cQ2t+kPv9aD+5BPwcjNTLa8EKaqIoonqhXJ8yu69Zk37yms2tu2uvkGABQLSbNsZ2b6WmsyEpjoZVp4w84aOIuFPATjvnkggzF/w1ipYBmUfFgayBzHM09f8kWF5sBUJzCUFmeT3sBcHCSrFcEy6e7KjTnt+5qfE/b1oR232xWbqn+mbD/UPW3ZN5qwNz4qAydjnIJDOJpLL9QLkiS2SSRUPzaRLhOAmlmeukUF6k3iGllBSyAVJ6YP58DIhLuCySAW0kyKZ1Ys+tOxNPru4In0xEHGo6LT6RHN/xM0DXuLyAtBcLGJmWwxhYB3N51isH9ELhX6C7XBZxo1SmZrH7mg0Nz+3asfL5ttTiTone0KacuH5HdM+1GzJPNtVETkbI6WDesNJlX5A2OO081aTqgyDn1vlL2vaTz0Fu4jcIwbEBFSmOIuDfhZVSORWudrc3hp+4bkvbf9zelfx/SGcXyIym0lKc5ODIbJPl6GStDNYpfDF+3oHOx4EIh6nYGLvjvFNGQbRquUiEtirU6ayQ5XU4LecHZSzdFK4eXBlwRVoy5ivNQlw2yQD4aBvaxRO7Nsce37hSf78mUS0Zapl6A8R8zojMBMjiN/kfE1LRsnXXiUoGLeUdCAxVwHfRuXkkhzcyW15Z73Xv3JR98radTVfcRF4K6zLK6Rs26U9sW5d4vL1WO5rQqzZG9qFNtuK4Q6KEhUN5hG2VtZ4KgnTAgeXBUgJLaeXohwK/3pyD7KFhzpoMsGAkM2uhBJ+zXBctH17bqD15y9ZVT163xrhkp+Y0NZUN9ca9Q+PFjKdG+YktnmqFgMF1n2iBvkEu+QoDyhcZDsXNV2pT1rHVbeE365Jub0gpUxsqrZtNBkXKijyiZwlZQTwpG36DDlrAgY9FMgDz2js7xLO7tiZ/sXND8jdNNeJ0VJc+C84ta4m8HIQC4S4LUvN0DlI4T9CTN3rlTV5SDDmUOnWNo2LGaYyXKpvawye+sq3pmZs31D6NTyjLkywNVhDRbtwmnr1hc/yprpbQkZqoVTEUy4HTK+dbhYRLZPNU3ICXTYucDQHZQRQZ5gp1LiANuf9cWCQvT1DALJEwpdNoLx4dLImUPmN31FjHd67LPn3ndZ1PX9N1aYuNp8hHxsrJkTHlnqmZ6ipMt+IKynupXKjkeURgzgrQOvJHREGzhLeQx/TKeFOy9NzdN2n/ccMK9Ze1CedoSKnIMuYKEeQTN+EhLyoSjoY+QDIK6Cn5+NgkA+CjXdOq/Kct68L/9satqb9d2RQ6EtOpdqMWcN6p/rEZlqxjVfuEk1YuCDKeA20sXEq2ktCOSeQqibCXcyLOqNUYL/Rduzqx95atjU9sWRN7OhX5dJ4aaqPrbF8rdt+2Pf4POzbE9jak3MEIWXHVrVDNJ8+aFMxqxSOFZJEUIpziE48LAwHrQaA0iMP7KJBWugH0R5VJo4IGuaJq3skYM9baZvWDG7dkn7x1e+2zXdSE4zKXQuGESK/rUL55un+m06SmEmNjTCS/zAMDgGvhlwMRh68NqisVUZ/yqlZxat+19coLt++MPXbT1syTq5r044lQ2QkreJDIIkOA4SxIDQpJV2ZOTiIgKg3PkPavckUY97yWvmHx8OGT9g8PnijtnJ7F1GBYIGk2AxKxofKPmV/zheSahjgEEpXICQFghHWv4sT0qpuOmH2tddqRjV21f+rszLzYmlKO4wyfBQ5PeR2Dg+K7J85W7zw7VNhSqHgdpqdruD0t/cbAMkj5WNrzNI2hAxTqXAo8HUaWQhVVR1crIhm23IZMqG99R82RDV2Jlzsy6kuRiPKhzz7Cir33+0qboqr/6eU/DX2rZEXJsoTpnDivSWXgj12RcqFfWFpuOikHuFerilkR0aadbWtib65tS//1Q3d1vobz9pa9zoFh8a3TA+Y9J3uLW8anq60lS9HgKvBHJuCTU0VB04nnIqnMRERMO+1Z69W//mnXpUf8Pw7Knreid0Lc/6eDsz/bfyi/rWxHqGLqQscH2ekKbExpyabUPwZArUImJcmooVHwdqCq8Owy1Q28IM8TdWm9r7MleXxNW+r3Ndnwc2saP1zRnyb2D3odE+PiodPDlbsGhnMbc0WrAzMe0ETBx4KF4po+53CjUeFSpl+yBA7GB6lwqQXAOJqhOyIVc8+01OlTazpqhle1J/6YrdGfa/wIcgXAq1VPDFR/9PJrs//q+OnCWkH+GN8HpmvJm+6kfzZpaNYkydjvgyEgfRvqjMgmcn3Xbsz+w61bO/92c1fsnAeZ+ype19goydtfveNUf2H96HS5o1QVwrQxzk+E0yJsUHT0gqnlaa9ziGSrF4dkwGDJ6/jzgfzPX9+f+ykpvcOIp4QRDvH0GsxrkqPMsGhEJxIQ5MNj9Nw15q4XajIeHq6IhhpNtNQZZ1prw90tDcZvEsnQc12f4ZPbH4Wj417z9LR4aHTSuXNwbLZ1fGo2UyhaXQ78Sypk3J9l2Ylk0mrgHRwOuQIVrkzJWKinJhWZbqpJDLU0xX8LeXeuvPC9Ix+FF/Z7HSPjpf/vD68N3V008RVI6lmS9cLbe0jJFBaSDAFWDL15qgdkfTR3SKzr8E401Oj/+r//8U2/xVEXA8p6alZ8d2jU+9rASKV5cDSfncpXV4FsfOuKylJ38k5T2n31f/iLzYtHMuC5t71bz/QV/o83Dk7cUqQajXcvGJi1g1pEipUDf755Jskw3QROPo/HkMI9e0ZkomVxx41dPTs3xP6upVb8Q0xRBvzTfy6ANyGRd3pfYVbcO1vymkslS5SrtjAt9MClJYffGY0oIh7VRDoRHkxH9Rdjjniqq0v5xJ/7Iata19dffeTVt3L/Xc9AscvyolSJ5ctk6MKkcVoQwfAH+yUtmd+s4+6DNyvSxpi4cVvq9c6W9F9//RbZVH4UuvNenVMWD80UxD35omiulB1hVqvCLM04mZh479u3t/63i0oyMtcdf3qv8hd/3Dfz88lctU06hajD1CuBeolo0vmX8SrVcptveZCweDLdzZGzOyW+dvOqw/W1qZ9858bMEUqPl1N8rnDOe8LOeycafhe+LgvvR0vW1LtiWFjBDOGPixHPazjdI77++juln+w/NPKVkhnRXJV8MbJiUB/uMgTAGgqdXzZDdhRlgaYypMyK1ky+7+Zrav722o1Nj6/pyFy2W3L+e9GkqOMikrTc7+xsLS0qyYC/e9m79dCJ6X9/8uzkDXibHw+ksmgw19Khlz0cXBpNCKZ7o2eFl5yUhG6PibZa89TNO5r/r1UdqSd2rmudoITL+BD87pi3Y3io9O9ef3vqTmqyyYRFSeOovGSh8Lltv6kEqIrzPpdfWIIWhahGboohpsSWrsibKxuNv9pw3/p3PulLcC4GaVIWEV2rxamujvDe2kxiQCGb7LG/BeeeyESBGlE/yD/uuFM6BWNFbph8mJQYn1FWdZ8cu79SML81M+MtyXexvyg4WyR/cNK69Wi3vXYy70Z5zI5aC49cFDnLZR7zFoWKHR0uAu7aqF5J1KdDfS0N6ZdXtjUOLCbBgEUn2W3ksEbCsT+31seLmCDHA7T4ygWcX/YNsJRWDECvEmYdxs11dWErCVFxa7RTA/aug8emH37z8JkGTriMCzBe9FpOnRZ3njpT/Wbv8GwHxsXQk+XZLdyjhF5hxaS+Ybugehgx9scQSw4/xuRa6o2+YqX6h2hzzaK3HItOMmBdmxjp6jAmMLd9YY+KROT9srlEIAWQIjhg2igpCA/Nmh6e0M5ED3QXNoyMOt94Zf/ifq74i4K3T4mu46fyD586M7OrVHYjXJFZ2xh/k0MWCFLfsF6SaBi6kO+Sw8BvRdQkxEBbY/Tl1R2ZIXzTnJIsKpaEZKsaxOialeGXWhoj3XjVFHovrADuWfKC4CsAftqcUlDr0O2PCEupEdOVdNvB7ulvToxN3dPbu9xsLgRe43n6VHHH0Z7KuqmcnZQVmXRKugbJAv0isMWigPHI4EkjNDEadQoM4tSK5ki/EdH+0LCyYUleX7okJGvNislURDzf3mz8UyqmDbs2iAZC6Uw2NmqsAF4h+AohwVlRGFtSosLWsqHRvLbr0MmJ7x87O/i1kRFvuekkHCQ9nOw1bzvdV/nG4JjVgfumUCVPFecHCRACQMfQLSwaHH7ygmmTZyF7s6Im5Q23NiVfX9MeP7MUVgxYEpJR01i2x8WJbDL86w1dmZ6IhpFt+AeoRehRnq8EqQiePYtayE0sNZ1k0cpeOtk3rty+/+jkj/cfG777y040EOz9Y+bd7x0t/Whw0rrRdkMR3M4Bc3gyJBMMIdAr75JRmIZNnS88pqgLPD6XF+tXZXqy6fiLYkPdkvXil4RkAMZ81nbqJ9atMl6vz+hjrlnk12FJkx0oYSGC7YBsaGJdYYuIKJjJ5Olh+6aDx0Yfeu9Y/1cLhS8n0U6R3AdPmF89eLz00NlR86aKpSahNumDQW9+wgW6RAD14PGTOnmP6paFak2IxhpxpGtF+g/tbcnji92jXIglIxljhZhozOq/3roh3ZNOQFRbEoyIJsWVSpC1D5BxrDBKi7Ez1FK88W+6ksj2jLi3HDg+/eib7w3fPT7uNctjvhzArat9h5y7Dx4vPto7Yt5SKCtZzCbkG9vceaJEF1RerMuA23nS0pkiJPIiGy8Pr1+VfbahNvb05lXxSU6+RFhSkqF2NNTo3WtWR/+5vTXVrSplEpIcUwUDsIFFuxTRMLRBpo8Ug8l8eKVmrhzNnh2xbnnv+OQj7x4dvWN42Fuqb01cVQDB3j5UvOv9I9MPDY9Wd5UrbpbrKlVEAQPEN7+l1i4EaRZWjHapGoY1ZkVInRGr2xM9TbXRF9Ry9gS5N5irtGRYWktGWN8qcq1Nxp4Na5PPN9eFhnUV8uDGOO6b0SqRiO+pzTkOQKAs2DE55oPpJFUlgbfJZI/3V25/84ORH795bOjew2e8Rfm67NWKfae89tfeLXzr/aMz3z87ULolP+s0gDH8fg+QjHQzr7fzwQr2B2dpjQgW1qZEY9bpXr+67vfRjDjxSW9lfRwsOclQSyoN4uiqjtCL12xMn0rGiDLknOEGLQSHerjDjXXWyQKFUYSvJvyQskLChEUz48kzo871bx8c/eG7R/t+9uYHha8UvC+Wn4aB1j984H3l3aPTP/zg6NSjQ2TBihWRxSCqvCcpe+I8/gglXYJoiMUHVTEOqZCzn4qUpjZ2Zl/qbKl78a4dnUWZammx5CQD0GzGNf3gNeujr3d2JHrxekyHP1hAXWpQCASidPKB30BZyBoF2pQjO7TCRAtT05kSeTOZPTum3nTgyPi/+ODU2L8+fiL/VSqYL4Sf1lPyOt4+5nzt0LHJf3WoO/fzwTFzV9nUsrgVBL5IRx8WHuzywzktwTygT7lHznpdvSIz2NVWv8cqFY8vdTMZADn8VED+lz5UElvePWL/8LevzTzYOzy7AuM7uEHrkazwyTjAelHTGCDIIN/UpVrL3XUKoCfmQOleXmRipcK6Vam3O9uzv+9srXtz3Vr9RFJRxuSRnx/AenUPi3XHTs1ce7qveM/AaHVHblaQg493VQQ6kRaMqyUWcwryyXYOZDOJB1zQiYorg+KWbdlDt27v/Mm164yDfqIlx/m5WlKAaEdGxPYDx8Sje/88+PDYjNeKW0kKvz8ftowUyCQDkeazhjVZG5lapDhJNIy9yY9XFETCKFU6WxODa1akj29YmXiitT31u9aU8rmZwQHnvq9f3HV2MP/wmeHS2tP9hbZiRY1hJov8Ah8qoK8jKISIxv0m4KIEm0fwaqmwNy7aa83h6zY0/s0121sf39weOeUnWVJcOmdLBBDtTFFsevHl6k/f2D/2cLEqWnEfjZ+gQe3kGhpoL8jefDblY2ZoPKE4Oo7i8OYd3IPDJ3lSRrW8uj359tpVqd9lMpE/dHakh1Ze5Ot2VwswB+/9o6IlXyjcembAuqd3pHT9TNlN4tVSbLFJQNzzRvXCuCGkD7RDCoBCfHVduijRRoCUukuOvyiIhox1ZHNXZvdNN65+fKIn3HvHHUvbbF46Z0uMQ+Pejhf+KfeX3b2F+/IlpRVPuaCGulTj5HvqoTmKWKhAP042rCAYCiLoqVIsvvJmF0QsVLaaarSBdZ2Zk82Nsd9Twj+s6WgY3/gJpjQvFXDv8fBpq8VzirdOTCn3nO0rrhmbslqLphpx+QkmyOQwufi1nFAEsYnVsRAymnDposRQEToI7Gy4eDHgjKhLmke2b8j+oqO17tlQuf7MUhLtMyMZcHDA2/XS3ukfH+spPzhb1RrkY1SYB1WlnJFCQCrUVD+9JBmvUByyDhIS0cghBtF4SBvzo1z4amURNSpWU53e19VBZKuL/yaXK/6Juu7VTSsS46nPoCnFB1v7ekX9B6eK4XjauW1g3Lm7dyC/ZmzSXlWp6iHXw8MYeDyOEoNgFOZutc1rgRDoxG8yP6K5lMdiv06/8GdLZPmnREOqfHDbmuwvO1fUPx+6gYi2RB2BD8vZp4K3Tnk7Xn4195cneov35ctqq0P+AzoCsGh4M2OQQVbmApLNgRWM+k5LHEvrnkO/IBwRTXGLIhmxnIas3tfeGC11tCTHGhsjL05OOS91NNWO71y3dGTDtORYr6gbL4jMwLAVbszad47NON86O1Rp6B8txsanzbZZIpeixrnw2cekuoK7HTwnDCKxqMwkrBAkwVjsgDy0kNN8Lg4cIa1/iMcbcRMdD+2E3DHRkK4e3LK2fs+ajuyTS2XRLp2zTxHvnvF2/foP4z8+0UsWzdIbMB6Gz66g2cQbcQJFy1qLdcIc4bAKBcoOAT/BDeuGcREcy30rdA6KIqSWRSahiLbGZE9TXbQnEQv9ZnCs8rumTKrY0lKT+9rOT/4gRwC8h0IkRbp/SiSmp2djLQ3KN3J58fWRCbtpdKISHRnPd83M4pMyYcpZhNxKzKAg6wKCkbyyukB2qiSQWwp/DlgNHE0/vDGnFP6d10wAxEBHmA2Lp9XhZsCrLQhDmRaNaevIteuzv7hhc8fTW9Z88u9aXgoXSvAZARbtt3+cJB+teF/B1FtBDSgazQW/bgmKYuvkq5CVL9dlb5S2OI7IhqQoBfSq0DNDNAaAyR9BVz6q4Z1mRRELe2casrFiXTY+lo5F947O5H9XKlRy6VREpOrDIhWmkAqLMC0lgiU15/ilRZV+EPJ5GRJxI9PYkLqrXNW+Nj5jNYxMFuNDY7OrCkWSQ0/KsUESA9/6Rt6YLOQi8DwwEG2u8qBy0TrLRCGI5lVogwJkoyW/64yE5tt0dAyScsChPoK3W+J2Ht5lAUpjUBeVL0x1qyFlHtm2Jrn7phs6H9/SsbhEW5CNzx5s0f557Mcn+soP5spqg03mHUrhZpOaTw9fd4P6KNc80h3AH/KQMVLFKATZKZA1l79IjD0umlKykHhpCvluwi3zm7mjhtoXi4iZaFR1E/GQSCTCIIyIRgwRo6DrOhHDvwKRBE+5Y0C5irfgVCwxW7BEYZaIRp57qeomy6a6qlhVRZUMGx58xYtjVMUgWSivRPhgUBUvMoH/Kf0unBw/uA5IhlX6CeJ41SeYLxvW+SV7dDzOIadbk/xMNhARx9KhrDYMduM8stmE9edBXTzvKnKiMVU5snND5hfXbV25qBbNz8LVg6Mj3q4/vFH5r949OvmdUapgeDBCZ0NlkzKJZFwgpCrWuVQ4/RAgiowB5C8OhPox5CGJGIiMmi9HzWXh8FPWaKboGq6Hp/DIlpLvgmck+Vr0o+INhfQnbQUlpXM4tkWBCg/NM3we2s8dERQkHt0ncstPbsu8cI6JCDLndB6qOCAc55iXFMumGNf0owhy6AZbWEqC8JJYhA/gyleng7TBvUwQja8wtz0PqQ8QDeeDTvHEku5MiMaMeXDH+uzjN+1YtXtjZ5S/M3+lCGS4qjBQ8na9sk/8+I13x+4bGCu34q03Cp4258pOCoHySakoBNIyFwqvYvccAtGwJBqh4GgJsgQFJFPQL+3COh6xxzlxPlgE/hi83E2BjvKbXiaBPJIII9Miit/5wXsoDe+kbf/4YA+WHPyEcj046mLANf1KwksC8oWOkeI4OniCXrmrkD1GU7zwXLROBJIx8/HIGgAdoPlGjqBPzDPTnWlqOitHbthS84tbr+t8es0iNJ3B9a46THrerjcPiB+/tn/8wf6RakOxovELdmExpHVBwfqWCCXmFxTIIHEp0WQxy9c64TyyNoMN/KCrX5CSaP7ZsBsLMC4Arkf/OJsfQRtYXxD8bT4PNa94ons+vURwRhBtwdkpO7g2pYYPh8cJyTKCZHi3LnrNIbUo0tFqrrM929vSscI621fJHj89tqpiw9+itMxucgv4uUvkIviVazInuCLOL9ehRx1vFPKmRFO6cvCaDbWP79q+4oot2kK5rjqMm96OswPiB/uPlHa98/7opvFpO+2IKL/Yw+/rs2J4yi0IR8SbV6RUJnBO4fEvKZVNFPYEykaBSqJxoBhJNN7Fx12MZHNg0iNiPg/IojxBcBW5vvCweaDY5/PD1+broUkkq0ur/J1RpyBC3rSoS9qD29fXPbNjW/vu+vbo6VO97vdef7v0yOGeyVvLVoQae/IBKS94m4+87vkBkNeTnQFs4zrkA5OvGvZmuDOwc3PmFzfvaLsii7ZAa1cv+nPe9fsPix+9fWDkO6cHCitKDpFMi/E9OZQhlwVbNXQMpHVDYUO5XEP5LBKBeudFp1S0GhANG/7aHOaKhC7E63homS6M7bm4uVTyuhLBElhIMjo7LuVvyathr2zGuWn0/SV5KwmvL62S35SnnvHs1Oq28JHrt7a8ccv2xl/VJBS+0X1oxqsZG3G+9c9/Lv2LD05M3IrHCvElPh4CIouGXvU8cM0gb4GksO6ouCG6OsUR0QwxLZpTpSNb1iZ237Zz9e4NXZFP9C644ApXPYqet7P7rHjwrYP5rxw5kV8zmrOzZUu+VhKONqjBTScTTVqT+cIOsHCbi5p+KY5W5B7EyA1/jeOxZDCbKQ5Whi0USMZR50GeeyGC6yy0nrzKQI6l38UEk8VM5CB5vAqRaxa3ykRjVulZuyL14oqWml95k5WD997bYhLJ5wZPe4lox4ec7732dumnB7snbnVEnGJh0aji8aOJ8sq0QfHIEZaIk8C1Za+TOiqwaOgM2KOiPjF7ZNv69BM3b+/ac82G1Mcm2pyYVzuoUPXT0yKeK9g7+4a8bx05ObPrRG9+Tb6k4INfpBjfZ5mTCAoksjEZaBesjk++cwIrXCKIZcLOM4Ahj5f78RMU0KVwvmLnU2OPdLZ54ia2+S4H4uUV2Bq7JhW1KcJaRaTj1tiajmTPxtW1r2bS7nPRTO0Hl3p8DQ+b9Jx17n3l7dLPj56c2GV5cco7biWBaEwjSoXckAQk+7lEk3lCRwvvvoUV1KkzEPKm7LpE8ej29Zknv3Lj2ifWrYie5uSXCXnuzxFwq2b6tIi5+fKmXF7c230mf/vpvpmu6bzbgIeC4fTiHqiiwlmG0rgkWVAUHoYoeFyKJZfKngPFSaVfSDIgIBrgc/eimLdjQSJs05n5cvB7ZJMorZm0asib41CTqFaFgSCKuDsxvKI9TdYr86dsOvJiOmUfaeysMdsVpcynvQRg0U72O9979e3iT9/vHr3VVfCushDXJ9UfMgkIJqe9B5DryI9s9PHOErzUjnw0MWPXJyqnrllf88vrtqwki3b5TeeFmvycAGSrmRaxgSF7x9nB4tePn8zfNjRRWZWbBdmiPIOWB2HhzLKY0kLwWBg/eBHUaPpdYO0uBezi+4u0zun5kAvTywKSa/iDFZHAHiwwZiZv6IPHPPxBTTxmCwtnlnKbo2ZRHehsS55uro+/rqr6b2Ox0KldXXW51o/x8K20aNa9r7yR//nJ/tyukh0hv478LQc+6zzBgoD8zUOuw0fD15ghgeaVhKHkqddpHd60OvWr23as3HO5PtqFWvocAq+xPHbS3jo5Xf56/1DxtqGxUtdU3mouVjEOFCYNRUhtsrC5FnNPdKFSJdhfYZy/D2QhqoIwRLD5NzsHBAogrZK0Tig8P5oQ2AZYMu7Fgor+cIQmyiJmmHh16UBbc+x0Q130Fdus/jpbmx5aQeT6pE92w6IdPW19740DuZ8e7snf6rh4f+z8nQ/pKhDJA7LxHj+vpCOps8DnpYVbJYuWJx+tcnzz2tiTd1zX/tiGro/20b4QJANwY3pCiDrhVFZXLOebY5PWrWeHzLrh8XK8UPbayiZ5Iy6Zfw1WhFVGTSpIQ/9EHBT7HPFAJD8VftjQ0RKDrQxsc5y/LVPyUn7JjenE20goY2A9cWuMCs+1REizRCRkiZq46GtpiJTaG2Lj2RrtNbrYi6oaGmjprJlYjNcGBBbtT++Uf37s5Pguy6WeuUfWibIme66wpD7JEBfkFxaWhSAd8VQqvPYLFg3TqGbsmmj+xMZV0V/dcdva3dd8BNEC7XxhgGY0MiSa+wetxrN95axquDfni+pdo9NW6+TEbEep7AjbVYVFZc7vcuVhEDQLciCWm0zfBEmlzyNoToM43gIhURpyFxcWUsgmVRYi/MCQSp6ijobUFIm4JhprYwP1GaO/Num9bNneG50t6alVrbHRzhYxTNdZON5wRaB86D2zInvipPvAK29P/iV1lq5xvSixRlo0vtvA44vzFk3G87G8DqLB7cASBMSzFdR0lmti5e6tq4xn7rpz4+4NbZduOn3VfDEB61auEc0jo3Zb1LDvLOStu/GKg4kZU0zkypFiyWydLdtateoKG/0Bhbr7mHpDCuXXKyHQVqDqQFnYBt8kydCZoFTcmaBmGA/GOLj5bgpD80Q0rIlYRBOpuNGXzcQqmUxYZDLaRG2N8ftiUflDW2N0QEyL4aV+/hEW7Xi39cDet/M/OjuQv95yiWjUFPJtMe4MkBxUESCbrGNk2XmD9rOkTC8ZT5vyWwO5cm0sf2br6vivbr1+zdOb1yQv+tEOPt0XHVQjQ/050TEyLdryUyLaP14UqYR1U6ni3ZEviqZcvqwUZi1RrpALbikhIlyD7YiITdyxHYpz7PPuCRKgaNI230QngmlkpXRdVCJhdYyslhUlVzAdN0RNKuqlkuHxqOG9nCuof25uSon6er3Y3i56a8TiWq2PQl/Ra3njgHX/2+9P/2RwzLy2Yho63yR3XZIBkw+IaLBmlDYgFqg1Z9B4C/Gw+iQ7Zm8o03ZDqnJ07crYU3ftWn/RAdsvBckuBrwmfGRCrBifFvGpqaKYni6JfK4qGuoiG8NG6C7S+CpqUkNV0xNViywdbcgPXknbhgdfjJAuwga50kQwwxAWeX1nLMt8eXyqcjRFTWIDOVy1NSm3vi6cb8qKoWzss39N/PFxr+Xgcev+A4eLPzjZl7++YofJosGxR9NOFk3FS6QBOcQi6UYxbNEC8kk/DfH4yD1ZNLs2VjyxdU3sV7fetOHpzSvC51i0Ly3JLoWz415zrixWk3+eLVVFyKwKUabWzzQxjgXnHUuyYmQADGJWNKpRkyhEOCzsSEjkozFx6mr+5gBwetpbceCw9e0338/9pHeksqVihaJy1izuliCATiASSBVQCxYN62gu5Tgf3An4sSoRLaJM2vWJ4tG17bGnbr9lI3UG5i3aMsm+pADR9h+0H3jj/cmHBseq28p2OIo7JvIeMFOMQMTCjX/pnEkfjSAbUUkyfCMKPpouiiIspu1MpHh0a1f68Ttv2vLsBv9DY8sk+xKjd8br/Od95e++f3TqwcFx+xpYNDmtCNYJbgF8NDnEETAMhJFBNrDBgDf7aLgF5ZJFi5U+2Lou+eR1Wxr37NzS2CMJu4wvJfCJxa9eH33uhm3ZJ1vrtaNhrWqDEBgsRj9HNpKgE9GKOQa6yb9gL8gI743fXC6SwhI1+kRB3XLk+NDDp04NfhNHLZPsSw4Q7fqt0adv2FL7y1Ut8XfD+HYpBo1pH3dx0CTSkqnmE405RxuSgjLAXXNdWDb+apxeMZ3NFLUDRyyTbBlida3Sv2NT9IVrNyZ/1V4fOhgNmWW+O0H0QZOIJSBtGv5onQmHNbJjPLCGcUKTtkoiERf2ujWtg2u62nmi4zLJlsFY16ScvnlH9IXrttXsaWs0joao6ZQ+GRpHEA1UCSiGdTSSmFErZ9WCYCGlIOJG3l7VFu7/6i0bn92xpe4FnFtSdBnL8IHOwJuHyt9548DMjwbHqxurjhZF35EJhttkfGdDEo0/tUhWDIO4hjKLV3iV2+vskW/ctvapnZuSjxmKnLW7bMmWcQ74e+tboy/s3JLZ05rVD8dCdjn4lCSmu8sXF8J6BdOoyAvziiJpFOyOBnfk7lvXvEAE2x0QDFi2ZMu4KLrJor21r/jd947PfH9owtpcMsNRPKBMzPKBhtMUeO4gFc7bq5uV/rtv63xq29qa3XFDeddPxFi2ZMu4KNaRRdt1ffy57etTTzdlyUdTbFvOFjaIXJj245AFmxVpItiaVq3/jhtXvXAxggHLlmwZH4qevLf2z++a979zKP9I/4i5xXQiOncDvJxIhibtrhZv+DtfXf/Mjg2pX5Gv9pZ/2DlYJtkyPhJoOvcdsL/7zsGpR84O5K9VFVdPhov2ika7/xu3dr1w0zXZfySCXWDBAiw3l8v4SKDpvHm7/vSt18Wf6Gg0D4fdfqu9zhy+5+auF67blIUFuyTBgGVLtozLBqYJ9Zyevnd6qnBjS9YYvWV705PGRXywZSxjGctYxjKWsYxlLGMZy1jGMpaxjGUsYxnnQ4j/H8nacmLSYwTtAAAAAElFTkSuQmCC;html=1;labelPosition=center;align=center;" parent="1" vertex="1">
          <mxGeometry x="306" y="267.5" width="45" height="45" as="geometry" />
        </mxCell>
        <mxCell id="fNX_a5Hz9HWH8XYPbjZu-56" style="edgeStyle=orthogonalEdgeStyle;rounded=0;orthogonalLoop=1;jettySize=auto;html=1;exitX=0.25;exitY=0;exitDx=0;exitDy=0;entryX=0.889;entryY=1.026;entryDx=0;entryDy=0;entryPerimeter=0;startArrow=classic;startFill=1;endArrow=none;endFill=0;" parent="1" source="zvPZIyypiw4BT_DNb9Xp-26" target="fNX_a5Hz9HWH8XYPbjZu-29" edge="1">
          <mxGeometry relative="1" as="geometry" />
        </mxCell>
        <mxCell id="jw7mLviETihouoWUYdHp-1" value="&lt;b&gt;AI Tools&lt;/b&gt;" style="shape=image;imageAspect=0;aspect=fixed;verticalLabelPosition=bottom;verticalAlign=top;image=data:image/png,iVBORw0KGgoAAAANSUhEUgAAAgAAAAIACAMAAADDpiTIAAADAFBMVEVMaXFAhfNexv+uy/mTqf+ty/lAh/V5mP+xzftMaXFmnfWpyv+wzf+vy/lBhfOvy/llnfWuzPmuy/lAhfWuzPuuy/mty/muzPtal/Flnfeuy/tlnfVBhfVAhfWuy/lCh/ZmnvdlnfVBhfSuzPmuz/+vzf9BhPNBhfRlnfeuy/quy/muy/evy/tVk/9AhvVBhfdBhfSvy/llnfVAhvVBhvVmnvVlnfWty/tBhfVImf+ty/lBhfVKjvOuyvqvy/uvy/lBhfNmnfdAhfWuzPtQjfauy/lBhfWuy/tBhfSuy/tlnfdknfVknfVHhvNmnvdlnfVlnfeuy/lZmPRAhfRmnfevy/tnmP9mnfVNiu9BhfNAhfOty/tBhfWuy/pAhfOty/llnfZBhPNAhfSxy/mvy/uuyvm30P+ty/uvy/tlnfevy/tlnfetzPuuyvity/lAhfWvzv+uy/tlnfVlnfZlnfety/muy/muzPllnfWuy/tknPdAhfVBhPRjnPVBhPRknfWuy/tChfU/hvFlnfVBhvVWjf9lnfWvy/llnfeuy/uuy/tlnfeuy/llnfdBhfOuy/lBhfNAhfNBhfWvy/mvy/ljm/VChPRmnPdlnferyf+uy/lChfWuzPtAhfVlnfexzv9jnPhlnfWvy/lDhfRBhfVBhfWvy/tAhfSuzflknvVmnPmty/tAhfNChfOvy/tChfVlnfdAhfVlnfevy/tnnvVBhfNChfNAhfNlm/ZChfOuy/tChfNjnPVmnfavy/llnfVmnfdChfVkn/dDhvSty/tFiPSvzPtmnfVAhfOryfllnfauzPmvy/lknfdChfWty/lqoPavy/lChfNlnfVAg/NChfVmnfdonvZChfVEh/WtzfuvyfuWvflCg/Oty/lmm/Wvy/mtzfmtzftLjPWuzPlUk/Wbv/dgmfWVu/mLtfdGifVIifWXu/mvy/tChfVmnfdmnfWty/pChfNFiPVLjPVjnPdVk/apyPpdmPabv/lrofeKtPl4qPd+rPdQj/WTufldENaGAAAA7XRSTlMA/QL6BMk2AjYANgcO/fiR/RrsvTr18EcR0z/e7pXoGiEs9SwME0Dg75m4H20JSR+B96QxXjL7M+kGxNgLTuSNn5HTaQ/yxXXM30RugRVW9uS9Fmnr0QyHDtDl3GG0U4HzKdwlrFkKnqNgsHhDIjClFtn4vD6IXlbZph3xcU1ESaJQJMVMBlD7mKnVs4rOhoS2m2ViwWgtXKwYU3plqskQJMDLWZF1fTkoMCZwiYvhwemOKTYZybGvOLnOXBlx6cSv6zrjzWp54ToqjlCV5zZcnMc8p1iouNatp244+1bHNlxafKFfpWbxo9eRfrFVZ2n8AAAACXBIWXMAAAsTAAALEwEAmpwYAAAgAElEQVR42u2deXxURbbHJ53GWBIChCUhCYSEsCXsIGvYwhIEAsgSIAQhgKDsWwZkDTtBQMIqO/hAg8guKOACyiiyzgdxZt7wxM84ft5O6G6YUd84+j6gYLr73jpVdfve7lt1fv+mT+X2Pd++y6k6v/oNQSmt3+ApQABQCAAKAUAhACgEAIUAoBAAFAKAQgBQCAAKAUAhACgEAIUAoBAAFAKAQgBQCAAKAUAhACgEAIUAoBAAFAKAQgBQCAAKAUAhACgEAIUAoBAAFAKAQgBQCAAKAUAhACgEAIUAoBAAFAKAQgBQCAAKAUAhACgEAIUAoBAAFAKAQgBQCAAKAUAhACgEAIUAoGQFYPSG+qllLjxbcPAE5kE9AMp2KeN+rGGv78ZUqAXAtmFuL0VnOpU799e2n2qXMPd8xs55eaoBkFLf7acyk5TKfsMB7Ty/6uSXESoBsLuMW0M1JiuU/0ajPN7q0VwdAHYPcmsq+jNV0u/YH+bxVVSuMgCMcetoWqQil/+dHi0dcqgBwEG3rgrUAGCKR1uHlABgalV9ANxxKuR/u0dPLVQAoCMl/+6NCuT/YpguAHMbyw/A2GgaAO5a8j8ADvXo6wv5AZhFzb97tfQALKLk3xOWJz0A9ekAXJAegNM0ADz7pAdgFR2AFSmS5z8rjApAa4fsAFShA+CWvRj0pYeuzZIDsBvIv3ui5AAcAgDIlRyAqRAAMZID8A4AwFrJARgLASB7KagSPf8l1WV/BoAAeFJyALoDV4BOCIDKb4HWvwciABarCABgPwIgt+YBACxFAOTWNXr+w7oiAHIr4mMqAJUIAiC51lIBaIEAyA5AYjIl/3XbIACyA0CaUAC4SRAA6QFoqL8i5BRBAOQHgDRurZP/jK4IgAoAkIuajwElOYsJAqAEAOTieQ0AejQmCIAiAJDGR/zyPyWdIADKAEAcLbybA3ssCNKBIADBknPRzoRHN/9OdYJ2GAhAMC8Dec+tn7d+6eJgHgMCoLgQAAQAAUAAEAAEAAFAABAABAABQAAQAAQAAUAAEAAEAAFAABAABAABQAAQAPMUEYEAiALgjPv6pbYXLqRe2ZAWnHPXOLf6uh49jkzZfkNoNX/W+ikZUR5PVMaU3CwEgBuAtI4f/Bp0+7rluw04W3T3lDy2djqWyBu/+YuoUkbRUzYjAFwApKwO9/GZtthaxtfuPeotriV9Q6r7mIWFVU9HANgBmKRhNlfeQoM1h0Z3TwbHot68dqGyKNieAMRp2s2Ot8xicMgprXX955kX9j2RoGkReA0BYANgso7XYKpFDwKOddqNPcmMGcxL0I7PSUQAWADYelgvtqM1X2GfXmsfWwbTM/QcwnqkIwAMAGzUD95mxTegeH1WYnkO2VcSMiaBtgTgG0pwh7Hmf4H0HEp791mGGwDFLDg5UX4AVgAAtILev6fRog+a/wX20ww+RsGPIZ1o8UXyA1AVAADaPfAyLfjOMNOPP6KuMZOvrjSDEE9UV+kBGATYxUMX8UJ6fGWzj/8G3eUL3PLjLD3+pvQAvEBP4DToFYy+44x7hNnHT/d48pyHJncAo8gi6QHYQU/gFSC8GLiDpJp9/JDVK9To14MeflJ6ACqGG3KLbw8AYPpDQF2DTp/n6eGtpQeAjKfl7xnoKXoDAEA3sw8/2eCGD1H08Cj5ASimXQKuQ9FdAADCzT78MACAAUA8EO6RHwAyTj99Z8BK2jcAAFXNPvq5QAJbIACQtnbQy15TuA4cAwCwyuyjbwckcAECAEpvNs+9A45NAwAYY/bBnwISmIgAwNoWLv4O/wwdANNrwfvp+RtFEAAGVa6h8fi2gyn0Ch2AYrMPPc/gji8IwENN8pvTfYaxiHuLmv/b5h86vZJzDQFg1GWvWb3or5knctvSALBgQcBNWvqOEASAVc6Ygl9uBFXHX+eYx69MyX8ZCxaGOmiXgIsIAJcqxl3eNnESZ9b09x9vOtmKg26uX8xj2PURATB+6dBdE7bBmgNooZe87m0QACs0VedVMN+qA3hLZ78Xlg4vBCAASlullf9XLPv/Dk0C2DpDEIBAKNJ/XVDVWVYewE3/KYEpQwgCYJ3ae18Ewsdttfb/J3bymhYsyWDd8RMBCNRleNv4po/Sf3j1aOsPYPGhx2tDok4tYm7zRwACp7FxXfKvdHz9+dHBOoC8m02OVV87oE5DjhgEQHEhAAgAAoAAIAAIAAKAACAACAACgAAoC4BjcpfyhamF9Q/eciIA6gFQMf/X1eHRV4oRALUAiCzvvTC4XMFWBEAhAGr5z+hHT0QAlAEgRssmJDwTAVAEgBgdnyD7EZD4RKOlFxcjAHz6rGpQXd4CJWejKb/MB58/dTYdAWDW2GH6rb0VOceq3SruRHFZ8WPJTvroo6RsoXfYXC+niLlNhiAAjMqnrOsv5AHpeuHPfQXhZzq2EknhwpWzXQ8Vv3Ihbz9B3lBft8ecRggA24+2Cq2zh3lh/+5XvG4kZdrzXsA3xd+9e9f1SPGbuIpRZ7V8QtY6EAAGfU3t7RvHOEp7v+7S4VN5juJANZeP1iSxR+dq24QURSAAsKbRLX7YbuiZ5fxDD3PcBxbWc/lp5HLW6EVGrH5VB2ASYPDAUg5yFGjDw1xK6lXBpaEK77NFL07QS17YUgQA0l8AAL5mGOMVvcsH4zVguWb+XS7Xi0zhFKfAnHQEANAIAIAX4CFm6TsF72Y5hKSROvl39T3AEL6Ulr4mCACgK4adPqdS7Kbrs9xA1rh0tYbhQf4ILX0J6QgAXeMAANqCI9SnRJerBR/BJhdF8E0gz5hLHGAUWSK9UeSVOwavAHSrWfgOEhFPA2A2+Ca3nQ7An6B4wCo2IUJyAKBngAJogE+o4U3Bp4CeLqpmGngEfDgvAN1EALPoDNmvAM8bfQt4jR4Pes2upAPQGYpvDdzDoR7xTgb3G7A7AGkG6wCRwJYzYCmxGh2AakB4G8gr+AlggBbGrIbtXwlcRbf6hSqBtwCAykAJbEkHoOUyenwW9BQP1YJiqU+BYYnSA/CJsR8wdAv5AIjf4wJUkx7fFQIA8gomX9CiTxPpAajdjZY/8DVuh0G7+AMQAEAtyAEBABrFNadF15EfAN1CLttbHARAU5MBAAs5T4BfgfIYeIooAMBY/fnAaHhF0CwAgBpAfE2Dt4AAABCr6zif0FgFAEixXi03nGE674TBSqITeAic7jQdAJI3V3wyUQYAdFcFd2G5foQb23WMrKEDsIaYDwBppLnxUNh6oggApL3WsrDwBkyxbekAgAuLL9EBuGQFAKS5xt5jyV8SZQAgJ4b5TQl8EMcWepCa/yopUPxHdAC+sgQAkviOb1yPPKIQACQlv6n3jrHjWJf00ReVwvPBDlop8C54BwgQAITcOOm10ch6B1EKAEK2vvJrf2CN8hxObx1pVYBJcHwf2gWgj2UAEPLGvoxfPIaLGgUr/cE1iPhsR8eXxhSW79KK6+tHdtAHgMUu2rFXP/8fOiwEgBCSvrnOguZdSTBlQ4eQGN0XgTNM+07UPKqX/5FvEmsBCAHZ0SJG7zmwBmNn2UydWkDL+QQBsIXKa88DMTcGbJmuWQPaQhAAm+gT/1LSnTNp7PEfXfXP/8CZBAGwjeJ8JxTK1U/hia85wzf/M+ZEIAA2krPB4dLpH8/dH7x8V+n072LuC0MAQkWOieUHPXwfiE7NrCiylvZA7yUPW0RGLul9gD0KAQip60DF0ZMijQzQf8+e/nwRCIDiQgAQAAQAAUAAEAAEAAFAABAABMCIdp9oP+ty5amKAuC42OR03bmehHan9m9WEYBaqwf9UscbdqWyegCkzxtVKmroWadiAJxI9W7pi1EMgEUf+8QNfUMlAJzl/XzeClMUAsDRRGNV+AB1AKj9rMZ0/rRiZQBoeErTHmZfhCIAVNS2i46erAgADr0G4X1qAFD2tt6SrjQ1AGiiG5yrBAAFuot6b/M9CjsnX8/MH3EwZqq9ALihH5zcWAEALlPW9R/kGCeuIPqXxWDuM5kiDDhn9j63Jj5+zbneMx0WAhCRYcRkzP4AOGlu0VV3sw5zy/s+UmU170tE/8FXf3WLvzq4v2UAPEcN3yw9APQG/08YHyM6ljNiFk7Isgl9fVoCJiyzCIBK1PDq0gOQSgVgGtMYuzdq9YU+z34QsTM0uoL6WwJAFt1mrLXsRpEpQH//ZwxjRF7Qjt3AehBJ8Xc1+gLij1sBwE0gvrnkAMQADh8MJhEOvYtIOOOUwnv9tDuDjr5pAQCHgPhcyQHIdBt0+KANUYPpZaDhLl2n4GzzAXgHiH9LcgDKAwAMB0dIq2IIH6pZ7ErzATgCxBdJDoBxu3jaCOEMPgNPVdAHoMLTpgPQHYjvpDgAz0ID1A43uOvYyzSDiHNgeDKQQMjpBXAbt3w+wGoAVgMAjIEGaED3GgYdAmoaswkkHwMJhMx+i4D4eZID0AUAYDU0wHCDu45NoAMwwVgdx5MAxc8DAGgkOQBPAgCA1ZxoevzrUPxeOgAzoPi19PyBbs/N6fFRXSUHwFmVmr9yW4H4qQZ3HXOMpANQD/oCdeh7/oBXcEddarzlduGWl4LHGXsGrGXwIfI9yCv4bWCACGoCw+D53CZUgs5KDwDd7HeWsXC3+zZUBYYAALcQpt7Ep8AnIIv2HjHKKT0A1Ke4VeD3f9IgAE9DAICVgGWjKHdwlgUdtEuA9Xax1gNQHG5k52CjAByHAIDnA77Uzx/L7tFkmf7GYTuJAgCQb4z4PBoFIBsCgGE6oLpe/rq3YToBiTk68UPTlQBAdz4g1Wk+AKQfPf+fsrzJ6NQC6mYxnoAntDcMyAnCfhFBAcBZqP0Az7KqyzAAn9MBaMbyBbqu09zzcTHzGbimtfvgyUSiCADEka81k8f0AGwYgC10APqwfYG3/PO3jqeEk+g/JVDUkCgDACExvr0hNa6zBRoGILsetQ7EmoUFQ31KwAM413J96b1zUPc6wUlE0JpDyzYojUCNr1m9vgwDQAbTAOjN/AUiWpQy/B+1nb+CG9FoyqMbQd3qFwlRDABCSOVXNn7woCPsdscY9vKHcQBij+rn/2oszxdYPKCo0tCM7p32Nxe0+3csbpS7vsWCxiSICrZDyG7O0pdxAGg7RvQhysluFjEBAED/JrCSIAAqABBxTmc5kBMBUAIA0kazGNCsDUEA1ACAON7v65v+vr0IQQBUAYCQPa96Lwd+tSZBAFQCgJDjlz593BR26TghCIBiADxYIbz8/d6931++hygspQF48EZAFJfqABAEAAFAABAABAABQAAQAATAatUubvXZVNsCsHhA0ZGhGSd3NlnQBgHg1+4d42v83NGberCi/QBYtv7n1d0lD9cD7ROY01d7v4CKV0obfYS/UGwzABZ5d4iVRB0bwjeA4vsFNOjm6+3xitNGAPgvCi3xtMvjAkjp/QLKanWIpu62DQDay8ITFrADpPZ+ASlttU0iK9oEAL3GkChWAlTfL6BQJ3lnxtoDAN3WsAS2R0HV9wt4RTd7L9kCgLP6zaHdmZYHK75fQGVK+v5iAwCGtDbo86n6fgGvUdLXoazVAGRzd3Rs9xgzeFB9v4AYY1bBAQSg/4ufx490uaZ/+odeHEtC6BYxnkXgAKrvF1BIzd8FywCoubJlaa/4+axxdJMozxfgAIrvF1C2KT2Bk6wBIHulr2HsjDlskYBNXAL0Kqf6fgFxQAI3WALA8Wr+bQEDFzKFni4xZhWr+n4BfwYSWN4KAA5ot4i/yBJbF0jgUiBe9f0COgIJHG8BAG/q9Ae3ZOkNTTaYQNX3C4DcwjeaD0B2vF5zaF+GLUPCgARCFX3cL8AYAEadQgkhnfXbw5fAj2BzgQS2AOJV3y/A6C2gNhAPV5OfpmwY4doEhrcDEghZvai+X4DRh0BSw6BbOGlGs4iZDYZD93DcL8Dc10Ayhh4fA9b/+lJdwnpC8YDf/yiD8dLvF1C2Cj2B4AbiG6jhVcAZ5U10m7jfQ/F5Bq/gqu8XAJSCXwPjU7oZ2zOoGR0A+B5w0lgdR/n9AibeMbhvZD4lfEUtMHw24BUM+oRRJ3Mqwcev+n4BpIyh6WBCUjrox9eHwysAADwFDRBBuQSEXYMPQPn9Ak6UM7Bj0AP9Vjc8eisc7TIKAGmebOwdTvX9AihLwl5gG0DPbTx8IrECAP2bwBGmLeiV3y9A9znwwli2eOdw4QeIgACg9xsexWgXr/x+ASm3xZeFP9TYF7R+/zuIVQBoEzCU2e5d9f0CyFitak5bni7Rg377znRg3Ds+IACQ5xL8i/gcP1/V9wsgpIHv9oFNR/A9/6bV93qWrJLPajceGABIVlGU989/AdfhK79fAKlY3qs5tGA09wiT6z/eRHTa61uZwwIEACGNmzzu7py7sxG3X7jq+wUQErmh8OeJnejhDaYKjeCodf311aszt6XxBAUMgAcMPLf/rWNNct8QsgfA/QIeeARwG0QYViABMCrcLyAICiUAQkEIAAKAACAACAACgAAgAAgAAoAAIAAIAAKAACAACAACgAAgAAgAAoAAIAAhq9GXG2RmboiLDBYAXevk7t8/4LnFCEAwdKv+oz7RFWUO1rYegKx5Jx94BZSUeDw51Z9AACzWkxu9VpR1y0+xFoAhh5K9vMKPXEMALJRztV93yeFbVgJw0W9ld9hbDgTAT2XjMlePK8jvUjmwHU8p4zVWFTf9xjoAbmo1B60LcGNv0pYJnS9NeDHJYVsAYlIfmwJGF9wK3LiRgzT7Cu5kWgWATo//0NjAfcenV/Z7dERHmz1lSwBifNI0fHKABnYM12stu24NAEv1jKKOBGrzqKRz3ge1913bATA23+8uvWJEYG4E+v3hVYqtACBvrskeb45eLX2PqkLnZfYCoPYZTQuvigEYenK4uMdYIABwUMx+wwLh8/neDE0Ds652AiBSxwSgRnvjY6casggyDsBSmr/DOuPfr+dV7QNbE2sfABwbdTO02uhtYLJBm0DDABwx1e592SVdB4sZ9gGAZuRUZpKxsTsaNJkyCsBiusnTIWPfbs4SyqEttwsAzmdoKep23dDg09zGdpwwCgBg89bO0JdbXo9qYLXMJgC0B7wAC8aKj70VGLvQbAB2Aj5/WeLfrWHnu/Rjm28TACA/YPcq8ZLARGDoQWYDkGHQKlZfWpsYeKuZPQBw1IAAcFfZITr4dWDkaLMBSAAAEPZ529QXOjRXvWW2ACDNzaAxtcUG7wKMG242AFElxuzidZT9uYtBx20BQGUWANyHKwsNvgG6thgF4Csg3uiGEdp6Kp4l/66FtgDgeSYA3OGfiExzXYa4ggaYDpzjJCD+YwCARQJfKmJCS6b8uzZF2AGAWW5GiVSGDW8YcRU4x+8B8ZU8xjaN0lD/P7Cl33V3ky2uABNZAXB/EMM9uLMqfch8aIAP6ee4L3RZAjZ9SuC/rPXs52LVi7YAYDIzAO5y+dyV4eH0EUGz0M70U7wXil9AB+Ad7trv4ArM+TejFmgCAM5u7ATwV4b/Qh2uAwjUfPop7g1+uxzqawCv2e+cD10cmmMLAKAfqfcynqrP8w1etgNtuK/hX9xA6imG9w2j2r1/zLkkhF779VU/m1QCG7i5VH9swEaP3g3HD6adYoYZt9iEgFUBGq50cckmlUCSEs1HAF9l2HlGfySWAmP2UcopnskwwHr9/PfgegQ8voYv/66PbAIAxRBeW00P8ow+SZevAqb4XkZ/YlN0XwG4eoS2jOTM/xpiFwBqH+YkwF3I094VF27Ibj7iZb0z/CnbopuG2ps/lkTxTASx1X7NrgOatSQsbgUvAc/wVIaf1ySA2W48W2fabeQBxgGyhmoBkPwcx1f4avZd3vz/ntgHAPI1LwDu8EyO4SdqTDiOK8scPkeTgHozmQcY8if//NflWBDqeL8l9+8/PtZOAJBMbgK4KsNTC3yXm/6W5+iyz2mst0niGSHX1/G/E8dKkP4vc//8Xf32EFsBQLqEcxPQYSLH+JNfavpr5LDMFL6jc27yeRdoeSmbb4Qh+0eV2u5xCs9iUI7ar+n5N7Ez6MQw/otAeZ7KcOSsK88Oi+6waswnJwQOL7t3qYpQ39+/yT+C44nt72TknB9VqfqXPGv2nb35L/+uGe8R2wFAIgv5CTC6ZphHbRZe2tuv7/Sju1b2ybbuv87Zy5/+lr0jiA0BIOS3VbgJqDqLSK3lA/lv/59+ZOIBmdse/tkq/ouAkTXDoa5lnfl//q5zscS2AJCUAn4CVtWSNf9vruFP//Re9vUH+Pk20I2bgCoH5cw/d+33wdu/2a5l5lvEFJ/hvwgU7pYv/dnNBC7/r8YS2wNAypbnJ+CZW7Ll/+nZ/Onv28v847LEJOpyNH9leIRDpvQ7ek3nz/8fk4gkAJC0tvwXgdSt8uS//8sCl/9mlmwlapFNnHNEOW4CasTIkv+ZArXfen2sOTbLfAIn1jC5Mhy6l3+R2u+uPUQyAMjUVH4Cbk+yf/5Far+uzm2IdABo7fmuQGV4/kD+9A9caN3xWWoVG9eB/yJQv6yd079ssMDPf+/bEZICQGoP5yfgwmj75r/mEv70Vxhs6Quw1WbRArcBg6ZCNMUe6NnzgHnFtj71+PN/tWcEkRkA0mqawARhigkH0mZ5s1/ezvo1m2+G/VJDkam/GW9bnA/r7eIjX+InYNrkgKf/fa938369Ao5AUrXQWvkRMgAIrRNpGuAJQv/KfLWnA/sftvR1hdbKjxACgBQP4r8IjK8dwAPoo5GdvlsC+A+6fn431FZ+hBIAZKzABOHhuID9+wnaj98TAvYPGC1/LJ/6CxkACNlWlZuAQNnNkz56pdkXA3MH1rB7hzX7AFEKAJJ229zWEX0d0L07Tw/IcwCz5Y/X1F82UQwA4sznJyA6AHbzTsrCvGoBuMb0vMqf/pFbgpaGYO4a1j5aYILQcGV4E82Gy7ALk7N3Bf78r9lDlASApG20vjIcQX0+izf4FDBnSciu/AhFAIhzxAqrK8M96cmYaQiu5fVCd+VHSAJAyESBCUJDrSOALU9nA5cAodrvrppEaQDIVIEJQgN28+SP9HxUEx/5uEDt12XabmC2AUBoglC8MtwGeEVvKbwUR6T2e3Rh0M9+KOwdLNJILloZ3gPlRPCKLGD5Y2bTt70AEGokF7SbPwAlRawg91W8yNRfKLQ+hMju4QIThGKtI6YAIFT7/XRmSJz5UNk+fvI0ayrDNU2w4xWq/QZl6i+EARBqJI8WsJsHWrSmm2r3/uvlf0KodL6FDABCjeQClWGgRX+XJbXf+HdD5qyHEABCjeSv8baOXKLvyTGYt/b7ocDl/9VYggBoSaSRnNdu/l1je0b5SKT2G6SVH3YAQKiRnLcyvCZwfsxCtV9Lmr5tC4BQIzlfZbhPwPZkOS5g+RPcqT8bACDUSM5nKjTD0H4RpWq/I/kXfo7sE2rnO+QAEGskH8NhKjRHd8lOPY46sFDtd9ceggDAEmkk56gMR3ykUwtoyTE1I1L7tbDp294AEEfmClMrw300X91bsl+ehSx/Bs4PxXMdkgCINZJzVIYXajTtD+zJXvsVsfzZ+zZBANgl0kjOYSo0x698/wf2SQARy5/gr/ywGQBC60R4TIUWei3f/JD99i9U+z3aM1RPc+gCQFoJrBPhsZs/3nvGwzvBwL29j5tc+53xNkEA+CXSSM5XGY7IrlmTryVnuYDlTxCavuUAQGidiKl280K132A0fcsCgFAjuXl280K133OxBAEQl0gjuVl28yJ276E19WdDAIQaybkqw6wSsnsPVtO3TAAINZIH3m7+6dkCnh9Ba/qWCgChdSIBtpsXqv0GselbLgDEGsmfDaDdvFDtt1oSQQACdhtoa2plGJBQ7TfUVn7YGwChdSIBspsXsnuv18cmJ9YuAIg1kgfCbl7I7j3YTd8yAiC0TsS43byI3XvITv3ZGwCxCUJjlWGhrT5DoOlbUgDIiWF3LK0Mi2z1GRJN37ICINRILl4ZFqn9hkbTt7QAiE0QFkaK/Ceh2m+/mTY7n7YDQGjDAZHKsMhWn6E+9ScFAEKN5PymQiKWP6HT9C01AGK3AT5Toa6vCvz8Q6jpW3IASPEZ/rcBHrv5d0XaPl6NJQiAVRKZIGS2mxey/An5lR9yASDWSL6RqXVEyPLnj0kEAbBWIhOELHbzInbvdlj5IR0AghOEgKmQUNuHLVZ+yAeAWCP5Y7v52BvrDxXtPH16Z9Gh9TcePb+JbPV5NwSbvhUBgExN5X8beGA371hwbGiYp5TChh5b4BDb6jMkm75VAUBowwH3//53jkdDOcdEar+h2fStDAACjeTfuzx6Krn/nbwrP2QFgLOR/Fv99D/Uj3+TdeWHtABwrRP5530PoHt/l3Tlh8QAMDeSQz//n3Wf9SIQwk3figHA2Ej+/Y8eJt377i7Tyo8IggCEjBgmCL+/7/GwEmD3pm/1ACCfQY3kP93zsOs7+VZ+yA4A1EjO/vt/+EL4nZRTf1IDQMj1boHKv8dz72+2bvpWEwAyWn/Dgb97OHVfxqk/2QHQXyfyf54SXgJ+1Lv8b5LqlMkFgF4j+U/c6dd9EKyWRBCAUJbmOpEfBfLvuWfjpm+FASDOfN91Ind+0PmJ//Bf//nvC+ev/2s77b/7F4XrLZfudMkHACExPutEvtV6A7j/Q9WOj9aGkMS1ySyXgCU1CQJgB/k0kv9TI7mubwv7lw7JmgJfAgYvIwiAPeT4pPQEof8F4N4/uvktD20RRb8EyDD1pwwApXckv/MP/8T+VFVjg5EFybQXAXs1fSMApPb4RwT4zwH/o+kJrZClYX61gLuPu/6cBAGwmXY0/fkR0G8S6Af3n7Uj1vpNCdi16RsBII8byX/y+1l/m6r3BpmhfQ94OZYgAHZUygtut9uvCPCT+4RewCKt9wBJVn6oCAAhG6q4v/O9ALiH6789tPOfEor/SjxQJBMAAALtSURBVOozJDkApHiQ70vgP92X9T++3e9F8NVYggDYWf19r+rfh1Mcgzb7frqX7OdHegCa+17U3RtpFaS5Ph9vjgDYXHV8H+vc42gfP+nz8ToIgM211HcSwJ1P+/g6n48vRQBsrpt+AGTSPv6Fz8dvIgA2l++r/d/oV4B3fD6+CAGwuRb4PgOUK6B9vDs+A0ima75v9tS3gIgEn49fQwBsrkTfN/t/o9UB3vD9dBYCYHf5/KZLfqBVAn3nAxMIAmB3+b7Z3/92vO5n/eYCTiIAtld1j99kQCu9z+b6fnYfAmB7Pee3HvhbvenAhnU9qr0FKgBAlt9Cr/9wN9D+6CHfT4Z1RQDsr0p+awJ3hWsuCTnr98HTBAGwv/xu7PdKmh3WWBX8O//GgBYIgAQaotH189dnffsCHP/q7yCSnI4AyKB9/gYg93p0Lu+1hcjy8xoNxMcIAiCDGkdp9P3dWzd4W9qjX//vPvbc8wcgKhEBkLQU8PAq4Ek49T+5m/5l+19PJns0DaSqEwRAkjfB83peUCUPUn9P2z7kfBYCIIvWixhE5BIEQBZFnOb3iDntQADkASArhzf/rRMJAiCR6kTx5T/qBkEApNLNMC4AWhAEQDLN48n/AIIASKdc5rtAmDr5VwkAsoiRgORFBAGQUnkZLPlvt5kgAJIqvROc/6J0ggDIqxvARaDdAsVOiGoAkDbrR+mnf9R6J0EAZJfz7BHt9B8561TvbCgIACFk8fbuUd6zA1HdtzdW8lSoCcCD58FG+4uOtMtJSMhpd6Rof6N0Vc+DsgCgEAAUAoBCABAAFAKAQgBQCAAKAUAhACgEAIUAoBAAFAKAQgBQCAAKAUAhACgEAIUAoBAAFAKAQgBQCAAKAUAhACgEAIUAoBAAFAKAQgBQCAAKAUAhACgEAIUAoBAAFAKAQgBQCAAKAUAhACgEAIUAoBAAFAKAQgBQCAAKAUAhACgEAIUAoBAAFAKAQgBQCAAKAUAhAChT9f8AEQ77cB4qLAAAAABJRU5ErkJggg==;html=1;opacity=50;textOpacity=50;" parent="1" vertex="1">
          <mxGeometry x="823" y="620" width="40" height="40" as="geometry" />
        </mxCell>
        <mxCell id="jw7mLviETihouoWUYdHp-2" value="" style="editableCssRules=.*;html=1;shape=image;verticalLabelPosition=bottom;labelBackgroundColor=#ffffff;verticalAlign=top;aspect=fixed;imageAspect=0;image=data:image/svg+xml,PHN2ZyB4bWxucz0iaHR0cDovL3d3dy53My5vcmcvMjAwMC9zdmciIHhtbG5zOnY9Imh0dHBzOi8vdmVjdGEuaW8vbmFubyIgd2lkdGg9IjIwIiBoZWlnaHQ9IjE3LjUiIGZpbGwtcnVsZT0iZXZlbm9kZCIgdmlld0JveD0iMCAwIDIwIDE3LjUiPiYjeGE7CTxzdHlsZSB0eXBlPSJ0ZXh0L2NzcyI+JiN4YTsJLnN0MHtmaWxsOiM0Mjg1ZjQ7fSYjeGE7CS5zdDF7ZmlsbDojNjY5ZGY2O30mI3hhOwk8L3N0eWxlPiYjeGE7CTxwYXRoIGNsYXNzPSJzdDAiIGQ9Ik0xOC45MSAxMC42M0wyMCA4Ljc1IDE3LjgyIDVoLTMuMDdsLTEuMDYtMS44NkgxMi41VjEuODhoMS45NGwxLjA2IDEuODdoMS41OUwxNC45IDBoLTQuMjd2NWgxLjczbC43MyAxLjI1aC0yLjQ2djIuNWgyLjI2bDEuMDUtMS44N2gyLjgxbC43MiAxLjI1aC0yLjhMMTMuNjIgMTBoLTIuOTl2NC4zOGgzLjRsLS43MiAxLjI1aC0yLjY4djEuODdoNC4yN2wzLjI4LTUuNjJoLTIuMDlsLS43MyAxLjI1SDEyLjV2LTEuMjVoMi4xNGwuNzQtMS4yNXoiLz4mI3hhOwk8cGF0aCBjbGFzcz0ic3QxIiBkPSJNMS4wOSAxMC42M0wwIDguNzUgMi4xOCA1aDMuMDdsMS4wNi0xLjg2SDcuNVYxLjg4SDUuNTZMNC41IDMuNzVIMi45MUw1LjEgMGg0LjI4djVINy42NGwtLjczIDEuMjVoMi40N3YyLjVINy4xMUw2LjA2IDYuODhIMy4yNWwtLjcyIDEuMjVoMi44TDYuMzggMTBoM3Y0LjM4SDUuOTdsLjcyIDEuMjVoMi42OXYxLjg3SDUuMWwtMy4yOC01LjYyaDIuMDlsLjczIDEuMjVINy41di0xLjI1SDUuMzZsLS43NC0xLjI1eiIvPiYjeGE7PC9zdmc+;opacity=50;textOpacity=50;" parent="1" vertex="1">
          <mxGeometry x="777" y="624" width="40" height="36" as="geometry" />
        </mxCell>
        <mxCell id="jw7mLviETihouoWUYdHp-3" value="" style="editableCssRules=.*;html=1;shape=image;verticalLabelPosition=bottom;labelBackgroundColor=#ffffff;verticalAlign=top;aspect=fixed;imageAspect=0;image=data:image/svg+xml,PHN2ZyB4bWxucz0iaHR0cDovL3d3dy53My5vcmcvMjAwMC9zdmciIHhtbG5zOnY9Imh0dHBzOi8vdmVjdGEuaW8vbmFubyIgd2lkdGg9IjIwIiBoZWlnaHQ9IjE4IiB2aWV3Qm94PSIwIDAgMjAgMTgiPiYjeGE7CTxzdHlsZSB0eXBlPSJ0ZXh0L2NzcyI+JiN4YTsJLnN0MHtmaWxsOiM0Mjg1ZjQ7fSYjeGE7CS5zdDF7ZmlsbDojNjY5ZGY2O2ZpbGwtb3BhY2l0eTouOH0mI3hhOwkuc3Qye2ZpbGw6I2FlY2JmYTtmaWxsLW9wYWNpdHk6LjZ9JiN4YTsJPC9zdHlsZT4mI3hhOwk8cGF0aCBjbGFzcz0ic3QwIiBkPSJNOS4xNyA1LjE0bDEuNjYtMi41N0w5LjE1IDBINUwwIDguNThsMi41IDUuMTQgNS04LjU4eiIvPiYjeGE7CTxwYXRoIGNsYXNzPSJzdDEiIGQ9Ik0xNC4xNyA1LjE0bDEuNjYtMi41N0wxNC4xNyAwaC0zLjM0bDEuNjcgMi41Ny0xLjY3IDIuNTd6Ii8+JiN4YTsJPHBhdGggY2xhc3M9InN0MiIgZD0iTTEwLjgzIDEyLjg2bC0xLjY2IDIuNTdMMTAuODUgMThIMTVsNS04LjU4LTIuNS01LjE0LTUgOC41OHoiLz4mI3hhOwk8cGF0aCBjbGFzcz0ic3QxIiBkPSJNOS4xNyAxMi44Nkg1LjgzbC0xLjY2IDIuNTdMNS44MyAxOGgzLjM0TDcuNSAxNS40M3oiLz4mI3hhOzwvc3ZnPg==;opacity=50;textOpacity=50;" parent="1" vertex="1">
          <mxGeometry x="727" y="624" width="40" height="36" as="geometry" />
        </mxCell>
        <mxCell id="8yc0GDcmws6-InHvEI8O-1" value="&lt;b&gt;Analysis and Visualization&lt;/b&gt;" style="rounded=0;whiteSpace=wrap;html=1;fillColor=none;verticalAlign=top;align=left;dashed=1;dashPattern=8 8;" vertex="1" parent="1">
          <mxGeometry x="906" y="160" width="179" height="240" as="geometry" />
        </mxCell>
        <mxCell id="8yc0GDcmws6-InHvEI8O-5" value="&lt;b&gt;Notebook&amp;nbsp;&lt;/b&gt;&lt;div&gt;(&lt;span style=&quot;background-color: initial;&quot;&gt;Colab Enterprise&lt;/span&gt;&lt;span style=&quot;background-color: initial;&quot;&gt;)&lt;/span&gt;&lt;/div&gt;" style="shape=image;imageAspect=0;aspect=fixed;verticalLabelPosition=top;verticalAlign=bottom;image=data:image/png,iVBORw0KGgoAAAANSUhEUgAAAFAAAABQCAYAAACOEfKtAAAAAXNSR0IArs4c6QAAAARnQU1BAACxjwv8YQUAAAAJcEhZcwAADsMAAA7DAcdvqGQAABEVSURBVHhe7Zp5cFTHnce73zGHNDMaSaORBLrGQkKHxSFhhDHGYMA2GDvBseXYsStOHJbdKsf2Vu1usX9sYSq7tVWpTbkqzm6qvNmqODZJYRIMWcAHtiWBEYhLAp1I6ECIGZ1zambevKv312KILZgZjZRJav94nyod87pf/15/+9e//nW/QRoaGhoaGhoaGhoaGhoaGhoaGhoaGhoaGhoaGhr/v8HRv4uGEIKPnYwsu9ovVjvHJLskYz5aFBeGQSgzA4tVpbyzdjXTWeUwjmCMSbQ4Kajdtu7Isis9SnV7p5QbjqhctCgheh2OlBQwzupyvuOJR9JuRi8vmkUJuG/fPuZ7P9znuNQRXtnWIeTyPOsQRLIuHFQLZRXrotUSwvNYzjCjUXs2d6YonzlTXcV0lBcZhhIJSe3u3bvPcbFbXHm5Q8wNBlWHIKB1Hr9SFBHnHzgKNC+lG5nRtDTcynLo2qoK3rWyxnjVkY8XPIiUBQv44YcfsiUljxX33eR3jo7LuyamlaJgCBkJQZnQmiFaLTkIETkeT+blMENLc9nThXlcc0l+sOvAgXec+/fvV6O1ZqF2N258qnjgJt7ZcU3c5ZwkRdMexSiJi7OLGOw26ImQl83eKMjnD9us0vHWU28P3W13Ptjo36SgnTDkbC673M3v6R+Rnp6cIqsiErJDkRk6kdQUmgPGrKoii29GzZ+cJmVhQS2XGcO0FJT7PvnkgBKtNWu3quoxR1s/8/TlLrFhYFip8wWIHe5dtF34bZJlbPUE1PzxKSVfEJmsiuoN/Ns//YeI2WwINDc3J+WNSQu4b18jR8yrSsfG0r4/NCK/IkRwGVhIatrMB0aYVRTEBwXis5qZqyFvZ+dnn/1epmXUbl7JmuLro/odV3ul5yZg0GQFpc/emALANicrJAcG5L6IRKoUpMPPP/PwmMHA+ZMREcL5/NBOWAqqSsYm03cOjCjfl1WUEy1KCTD9QxxLemzZzJH61dzZ2lq7RK9TuzUP1ToGncanL3VKz3u8ZLWqkrTZm1IIiMiDNxfcdCnrTrWKL5w8q26vq6tLKizM64G0E0tLKwrH3IYnp93qs6qKHRBsk1ookgLiEcvgIbOF+WhNDXdkfPh4786dO5XGxkYuv6Sq5PqI7smBYelZmG61EOONdP5F7/wLgDlRQlkQTmRWl3P5gZUm93xemFBAGnuyl9YVjnvSdzgn5QZFxWsSdwKSC4LDGJEgz6OwQY+FNCMSeA4JskoElSABRluEJyJQB2IXtINxiGVRS6VD/+v+Kxc6XnvttngGa0XBiDP9yas9UoOs4Lpk7UJ0C+t5JKQbsUDtswwSoBBs32U3DrQhCBGMKU0fKF9eM1pVbk4YDxMKuHXr31gE5NjVOyS9qMiJOgGTEOGQ0cC4LWbmCjxls9HAni/IZduLC7l2qwW3hwX6g9oNOjTIMkSEmJcBc0fPsChk1DFnxOk/HNi/f5dIW9uxY4+V8I5nWtvE70KaUgftw3RKIB5CbhCsTcWokePwBVsm2+4o4tuX5LHtej1uF0XcznFk0KjHIgyiFcKAPl57MLsYlRCL10+sBoNeWl1X4ywtNs/EEzHuSNCpa7WXlA1PZvxEiKDtBMUXD1r2phmYrtwc9tKq+7lzNkP4zPHjP3dFK8yhas2Pcyc9/LbrN9TvCGGyEbzEU1nO/8LZe+Ln+/c3iNT7xt3F1QPOrP2jLnWbQhJ7Hni3FwbudGkx81FWhu9k98X/GY8WzuHxb/9TbiDIbLvSKTWMuqS1YRGZoFEIRXHahtACs+j8lnX63wTdnQdffnmdP1oyh7gCvvPOyWwlfd1Lvdel3dCJchpoo0XfALQjyGOx4KaKUt2R7Axv08SN42NOp1NJlE81XrxlC3gyt3T0Sc/PBFX9E5v0/zY+fKy1oaFBOXy4NZu31LzycZPwI0khpbHtUghJM2LvEjt3urZG/zsz2F5bbR9PlAzfuuW3TXh1G1ouy5v7h6QHgiFSDdXN8URkMAoVF7AnsHT57/e+sXk0enkOMW+ksc8v1Fb2jtj2B0Lq4+BjsPLdbQSuEhw0p+PGR9frP8g0OJvWry+dTDabHxkZyQpF8tee7xQNnpHmj994Y0eEeh/GpZXdNzN/cvWa9JiqxJu6s57nW1WtO/Vgre6gHLr5+cqVydmmu5lNO16xT7vznjjVKjwrRMgGaM8S0w5d4Dh0vrzI/+M3d5dcidV+zDSGkIKMdEv+lpCgVkA8iOnm4HtKehoeXLdad4yXFyYepaioyO0a/erzgfbjJ15/ffts7NPpMrPMNvvWm2NyOYgHnhfLLlFh2L15dra5tlr3W1UY/SJZ8Sh0Zmyud4zd75CObdug/wBi5GmwE5rt0V3ABQayjhyd0fbIBx+0gqfeS0wBh1yKaeCWvAFyoxLowT2ZPu2EXocCZQ62O+QfPtPS8v7UQsS7w+bNm2Ua9+7c63KFMyDuPRzwk2L4GGOBo53EoXQD01K/Svchlm58WVNz38RibFdUWKYI6/m8ppL/I3jzEFy6J+RAuxyoWDziVDZcvxUGL72XmAKOeQTuplPOgdh3jxdQ8aDhUK6NPbOuTn+0shSPLXT/GI9JH+bHJ1W7imJ7H6BCZ0eqynR/9PoGvzx69MD0YsS7w9Obl04p8lhTXg7bDe0IsbwQnoX1+pQcX1iOmfvG3YkQyIWi/94NZAvoRp6dP+ZxjjaeOHHQE73+ZzMzg5DHr7IwSWNCJYWYOzM1OdjadeHQRCoGLpv3TuTZuS/B00bgY8z24Hni6hS3IC6QicI4BUZHhlrd7ktTqfI+ihsEdHsUBLlaTKiA2Vks4khQSpXdhoY1PtforfPQmB/6tWBvXriAAD3LcHvcIk07opdSwsyMiCCBTSigzYpRVlb0QorwBcYi0DShzhG9lDQLFhByI2SBFNRkSt12+JvcG4W+hgqYlckiU8z1cPGYdDpkMePZvi2URXkg7C8h5Yh++CtD+wj7sJRCcyh2EeJRFiwgnV6+AJmdbqlmvjGh3un1KygQiV5IEaIoIn8wfuhIxKI8UJGp0eiHFKKDsGBKj+8KVEC3j8wuNqmE9oX2aTEsSkAKZ8yY9yxxoWSZELLCIkFDRCyogNMeghgpdbbpflSnMyxah7g30oOz6L9zoWsVg0zZ2SWrf/WrnpSG87Q0QqxmlsRMoQEqoMenmHKLC+sa24as0cuLhor3y19+ZbXlL18Fn9Jm+xaDuFoAMQXMNuukLAvrhtbuybWgcyw0Vzw2rjyFzIUbjxxJnYhZJk7MzmTc0I14OR4jyajoWp/yVI4hf2NnZyf47OKg4h050p6RU7z6Ide4shMuFcHPXXpAJYIVowG7WY6JmbLFFLAgWw04CrlzsKyPQiN33Uj9g5hEkTzSdU16ITPPsbGnJzUi5uVhX2E+25Kmw7foljF6+RvM2k4fn5I3Nl+Udg2MWvKiBQuCitfTcyvLtrTy4QtXpYawgB4BF7PAdm6OHuDxCoPJzcJc7lyJVY0ZeWMKODzc5JdE30mGQb3gv7MveOYCHcHIFgqrj5+5FHmJ8Ms2Dgy4M6KFSUE7Ab/nTJnJyUEPVgOfLs3n+iAOxgnrGEcklNU3KNeJStbmxsZbtmhBUlC7/f39tpCcs6W1PfIiZBSPwUX73eJR6AyEjf+EQryNOt3gwg5Uf/azlqwAV7nbNabuhtEpgaoxT0dgcz+daWU+XXO/7g/pVs+pbfUF09HCuHR3d2cHZUdtU4tYOe1Dnh/u0rWUlRkG6cHAwYMtWYxl1d82ngnvlhVUGM8u6BC0mtH5+4r402tWcU02k9DucGR6oxVi0tvba5PZ0jUXLkfWDrvkdR6vWhcWiC2WeNQGw2Ah3858yoiX3vyXf9xyI1owh5geSPH7I34TH/4cfMQJAsaJSRhDTMoen1KfOH0+8nc9XebXT7aEn7h4Mb5XNDYO5fXeKHm08az0A+eU8qYkK691DKhb33rrrVmhursj/jRW/MyezfXC8Mb1QtA63TeD6nsH5R+daBT3nO3UbT34yUjcTV5r61DeLXfRo81nwz+Ae3a7xtUNQoTkxBMP+izCDOwoK+ZPFdlNcROnuB5I+ekvjuUR9uH/HByVnyQqTrABuO0RaUbsybCgDkXCXapKpnJzWWTLYpAEQcA5rqLJKYVO/ow0A1rpnSG1EEdzeR75crLYXyPvZ3vp2SBt7cCB05m6jLpXv7oYeSkkqNXQyQTfPpiNBdOmdOYifGiXFOTJge1ewRIG8TAkU14VbCswF1GGyYhW+fykLigQOx2E2/fHgL49ZEhX0RL29zXVzBFXX9/Anj1rYoSyeQR8//0TloKyR/c0nRVedk0olVB9nq9R3BYSGg3qeKSkGRlkiL6eDoYIgumCoIMMPGAaeBAsPLOdCBj16OO1tdy+F58yX6OuRY/2rfb1y5vOiS9eGxRfgs4vhboJcr+v7YLXKAYDRulpGOngaQUYklnbEXK33ZhAQzK0MZxtZX5bUaoeMihf9DU03B7YWCR4KIReeOFb8sYHV0zJKlHHJoldiKjZsV3+DlAKzw3DYlJUZBZEYp4J3f4RJWSGrRJs2ZEJ6vzptSJBhIH0i1FVJmIwENe7//WvXofDoeblbPGsXlHgD0ZItT8IsZAk+hrJ13Zh6pkhrJhDYWIOBIkZBs0MsfQeu/HBAtQ4W5Cv/Lc4fb731Ve/nXDPlVDAQ4cOkdWrqz1bNq6YdHsVPOlRM2WJcPCg9GVPAiGTB5ZzeoBqiYhqho5lpj/68Gh3c/Mhpbn5PfXxbRsCy8pL7W4PyYGpzIOIKbMbE5i6HE/6ipbwn4Rc5z7du3dHKFoSl4QCUqiIOh2afuV720bbesQhlsUzkEakg69bYTDnvT8pMOJgmlq8AXWKVy590dx8bDbe0BmwacuKMZdLHoIVcWYmSNKJmkK73wBGRTCbmZ77irjDm+r1/7skd8z13nvvxUvo/0RSo0lPf61W5jr2vn2ouox7Nz+bOQRxogdETOjeC2H2lGeGfu3ia+iBbYaB6b/R/R+HtjxoeHdZCXfIbGJ6YGeVMrsUjkVCrp3pX1HJHX1mu/7IZamjl77wihYnZEEjSb/esLJKN7mufrMrLKqqoqAsSSE8TEF94tiYAPrulcdTmRl4IM/OfCHP9F9qbj465+Gp3YJ8dvK7uza5EIPViIizYHHAqkIkWII5GgaiVZMGYm8EhPPB3ttbuIS9/sAK/qNtDxkPd139qvfZhx5K+mxmnoAaG7rknbkQKW/riKyf9JP1oRCqnwkrS0BQS/xvEkSBOAMbzDCoDaslI6cb8bheh88tyWMvbnqQP9vWerQ33qsCanfKT8qbzgjrLneJxbKkOoQIfiAiqctgU5PUOeuscBzym4zsqN6ALudkMiMP3K931q3gz7W0NCfteXdYlIB3oG/5t3/rnyu6rsv1E1PKWohR9YpKligyYUWQABac2XM26pss+AjDMBLHkRHIUq8IAhm321ixZrnedf9y5sLvftPS/dZbmxTwZJjMiaFCQmxm9ObtFVMB/OTYhPqdcFgphtUX7BIkg01ZvP2GCMRCHA9LNNjnWCzDc4zq9Az94tOF5cv5S58ebulBqEmFRJ4kY/tu/iwB70A7dG04svzGiFo/6SZlvoBi8AVgNxNQUSB8+51gejqDTEYczs5kB/LzubNtp/69//bdCC324SnesFp6rU962DkmL5v2EgO16YMfr19FMiwBZshFLbBLzzQxyGxiBZuNGSzMY1q72o72Pvfcc/Qd96Ls3iElAt6BemR1dTXu6uqK2y6Uk1Q8+DdJxu4d/hL2NTQ0NDQ0NDQ0NDQ0NDQ0NDQ0NDQ05gWh/wPt0iao/zZT5AAAAABJRU5ErkJggg==;html=1;labelPosition=center;align=center;" vertex="1" parent="1">
          <mxGeometry x="970.5" y="265" width="50" height="50" as="geometry" />
        </mxCell>
      </root>
    </mxGraphModel>
  </diagram>
</mxfile>
